%TF.GenerationSoftware,KiCad,Pcbnew,8.0.6*%
%TF.CreationDate,2025-08-08T18:32:04+02:00*%
%TF.ProjectId,arduinojoystick controlling,61726475-696e-46f6-9a6f-79737469636b,rev?*%
%TF.SameCoordinates,Original*%
%TF.FileFunction,Legend,Top*%
%TF.FilePolarity,Positive*%
%FSLAX46Y46*%
G04 Gerber Fmt 4.6, Leading zero omitted, Abs format (unit mm)*
G04 Created by KiCad (PCBNEW 8.0.6) date 2025-08-08 18:32:04*
%MOMM*%
%LPD*%
G01*
G04 APERTURE LIST*
%ADD10C,0.600000*%
%ADD11C,0.200000*%
%ADD12C,0.100000*%
%ADD13C,0.150000*%
%ADD14C,0.120000*%
G04 APERTURE END LIST*
D10*
X32466164Y-45244514D02*
X33894736Y-45244514D01*
X32180450Y-46101657D02*
X33180450Y-43101657D01*
X33180450Y-43101657D02*
X34180450Y-46101657D01*
X36894736Y-46101657D02*
X35894736Y-44673085D01*
X35180450Y-46101657D02*
X35180450Y-43101657D01*
X35180450Y-43101657D02*
X36323307Y-43101657D01*
X36323307Y-43101657D02*
X36609022Y-43244514D01*
X36609022Y-43244514D02*
X36751879Y-43387371D01*
X36751879Y-43387371D02*
X36894736Y-43673085D01*
X36894736Y-43673085D02*
X36894736Y-44101657D01*
X36894736Y-44101657D02*
X36751879Y-44387371D01*
X36751879Y-44387371D02*
X36609022Y-44530228D01*
X36609022Y-44530228D02*
X36323307Y-44673085D01*
X36323307Y-44673085D02*
X35180450Y-44673085D01*
X38180450Y-46101657D02*
X38180450Y-43101657D01*
X38180450Y-43101657D02*
X38894736Y-43101657D01*
X38894736Y-43101657D02*
X39323307Y-43244514D01*
X39323307Y-43244514D02*
X39609022Y-43530228D01*
X39609022Y-43530228D02*
X39751879Y-43815942D01*
X39751879Y-43815942D02*
X39894736Y-44387371D01*
X39894736Y-44387371D02*
X39894736Y-44815942D01*
X39894736Y-44815942D02*
X39751879Y-45387371D01*
X39751879Y-45387371D02*
X39609022Y-45673085D01*
X39609022Y-45673085D02*
X39323307Y-45958800D01*
X39323307Y-45958800D02*
X38894736Y-46101657D01*
X38894736Y-46101657D02*
X38180450Y-46101657D01*
X41180450Y-43101657D02*
X41180450Y-45530228D01*
X41180450Y-45530228D02*
X41323307Y-45815942D01*
X41323307Y-45815942D02*
X41466165Y-45958800D01*
X41466165Y-45958800D02*
X41751879Y-46101657D01*
X41751879Y-46101657D02*
X42323307Y-46101657D01*
X42323307Y-46101657D02*
X42609022Y-45958800D01*
X42609022Y-45958800D02*
X42751879Y-45815942D01*
X42751879Y-45815942D02*
X42894736Y-45530228D01*
X42894736Y-45530228D02*
X42894736Y-43101657D01*
X44323307Y-46101657D02*
X44323307Y-43101657D01*
X45751878Y-46101657D02*
X45751878Y-43101657D01*
X45751878Y-43101657D02*
X47466164Y-46101657D01*
X47466164Y-46101657D02*
X47466164Y-43101657D01*
X49466164Y-43101657D02*
X50037592Y-43101657D01*
X50037592Y-43101657D02*
X50323307Y-43244514D01*
X50323307Y-43244514D02*
X50609021Y-43530228D01*
X50609021Y-43530228D02*
X50751878Y-44101657D01*
X50751878Y-44101657D02*
X50751878Y-45101657D01*
X50751878Y-45101657D02*
X50609021Y-45673085D01*
X50609021Y-45673085D02*
X50323307Y-45958800D01*
X50323307Y-45958800D02*
X50037592Y-46101657D01*
X50037592Y-46101657D02*
X49466164Y-46101657D01*
X49466164Y-46101657D02*
X49180450Y-45958800D01*
X49180450Y-45958800D02*
X48894735Y-45673085D01*
X48894735Y-45673085D02*
X48751878Y-45101657D01*
X48751878Y-45101657D02*
X48751878Y-44101657D01*
X48751878Y-44101657D02*
X48894735Y-43530228D01*
X48894735Y-43530228D02*
X49180450Y-43244514D01*
X49180450Y-43244514D02*
X49466164Y-43101657D01*
X54323306Y-43101657D02*
X54323306Y-45530228D01*
X54323306Y-45530228D02*
X54466163Y-45815942D01*
X54466163Y-45815942D02*
X54609021Y-45958800D01*
X54609021Y-45958800D02*
X54894735Y-46101657D01*
X54894735Y-46101657D02*
X55466163Y-46101657D01*
X55466163Y-46101657D02*
X55751878Y-45958800D01*
X55751878Y-45958800D02*
X55894735Y-45815942D01*
X55894735Y-45815942D02*
X56037592Y-45530228D01*
X56037592Y-45530228D02*
X56037592Y-43101657D01*
X57466163Y-46101657D02*
X57466163Y-43101657D01*
X57466163Y-43101657D02*
X59180449Y-46101657D01*
X59180449Y-46101657D02*
X59180449Y-43101657D01*
X61180449Y-43101657D02*
X61751877Y-43101657D01*
X61751877Y-43101657D02*
X62037592Y-43244514D01*
X62037592Y-43244514D02*
X62323306Y-43530228D01*
X62323306Y-43530228D02*
X62466163Y-44101657D01*
X62466163Y-44101657D02*
X62466163Y-45101657D01*
X62466163Y-45101657D02*
X62323306Y-45673085D01*
X62323306Y-45673085D02*
X62037592Y-45958800D01*
X62037592Y-45958800D02*
X61751877Y-46101657D01*
X61751877Y-46101657D02*
X61180449Y-46101657D01*
X61180449Y-46101657D02*
X60894735Y-45958800D01*
X60894735Y-45958800D02*
X60609020Y-45673085D01*
X60609020Y-45673085D02*
X60466163Y-45101657D01*
X60466163Y-45101657D02*
X60466163Y-44101657D01*
X60466163Y-44101657D02*
X60609020Y-43530228D01*
X60609020Y-43530228D02*
X60894735Y-43244514D01*
X60894735Y-43244514D02*
X61180449Y-43101657D01*
X67751877Y-46101657D02*
X66751877Y-44673085D01*
X66037591Y-46101657D02*
X66037591Y-43101657D01*
X66037591Y-43101657D02*
X67180448Y-43101657D01*
X67180448Y-43101657D02*
X67466163Y-43244514D01*
X67466163Y-43244514D02*
X67609020Y-43387371D01*
X67609020Y-43387371D02*
X67751877Y-43673085D01*
X67751877Y-43673085D02*
X67751877Y-44101657D01*
X67751877Y-44101657D02*
X67609020Y-44387371D01*
X67609020Y-44387371D02*
X67466163Y-44530228D01*
X67466163Y-44530228D02*
X67180448Y-44673085D01*
X67180448Y-44673085D02*
X66037591Y-44673085D01*
X68751877Y-43101657D02*
X70609020Y-43101657D01*
X70609020Y-43101657D02*
X69609020Y-44244514D01*
X69609020Y-44244514D02*
X70037591Y-44244514D01*
X70037591Y-44244514D02*
X70323306Y-44387371D01*
X70323306Y-44387371D02*
X70466163Y-44530228D01*
X70466163Y-44530228D02*
X70609020Y-44815942D01*
X70609020Y-44815942D02*
X70609020Y-45530228D01*
X70609020Y-45530228D02*
X70466163Y-45815942D01*
X70466163Y-45815942D02*
X70323306Y-45958800D01*
X70323306Y-45958800D02*
X70037591Y-46101657D01*
X70037591Y-46101657D02*
X69180448Y-46101657D01*
X69180448Y-46101657D02*
X68894734Y-45958800D01*
X68894734Y-45958800D02*
X68751877Y-45815942D01*
D11*
X37929197Y-92244838D02*
X37929197Y-93673409D01*
X37929197Y-93673409D02*
X37833958Y-93959123D01*
X37833958Y-93959123D02*
X37643482Y-94149600D01*
X37643482Y-94149600D02*
X37357768Y-94244838D01*
X37357768Y-94244838D02*
X37167292Y-94244838D01*
X39262530Y-92244838D02*
X39643483Y-92244838D01*
X39643483Y-92244838D02*
X39833959Y-92340076D01*
X39833959Y-92340076D02*
X40024435Y-92530552D01*
X40024435Y-92530552D02*
X40119673Y-92911504D01*
X40119673Y-92911504D02*
X40119673Y-93578171D01*
X40119673Y-93578171D02*
X40024435Y-93959123D01*
X40024435Y-93959123D02*
X39833959Y-94149600D01*
X39833959Y-94149600D02*
X39643483Y-94244838D01*
X39643483Y-94244838D02*
X39262530Y-94244838D01*
X39262530Y-94244838D02*
X39072054Y-94149600D01*
X39072054Y-94149600D02*
X38881578Y-93959123D01*
X38881578Y-93959123D02*
X38786340Y-93578171D01*
X38786340Y-93578171D02*
X38786340Y-92911504D01*
X38786340Y-92911504D02*
X38881578Y-92530552D01*
X38881578Y-92530552D02*
X39072054Y-92340076D01*
X39072054Y-92340076D02*
X39262530Y-92244838D01*
X41357768Y-93292457D02*
X41357768Y-94244838D01*
X40691102Y-92244838D02*
X41357768Y-93292457D01*
X41357768Y-93292457D02*
X42024435Y-92244838D01*
X42595864Y-94149600D02*
X42881578Y-94244838D01*
X42881578Y-94244838D02*
X43357769Y-94244838D01*
X43357769Y-94244838D02*
X43548245Y-94149600D01*
X43548245Y-94149600D02*
X43643483Y-94054361D01*
X43643483Y-94054361D02*
X43738721Y-93863885D01*
X43738721Y-93863885D02*
X43738721Y-93673409D01*
X43738721Y-93673409D02*
X43643483Y-93482933D01*
X43643483Y-93482933D02*
X43548245Y-93387695D01*
X43548245Y-93387695D02*
X43357769Y-93292457D01*
X43357769Y-93292457D02*
X42976816Y-93197219D01*
X42976816Y-93197219D02*
X42786340Y-93101980D01*
X42786340Y-93101980D02*
X42691102Y-93006742D01*
X42691102Y-93006742D02*
X42595864Y-92816266D01*
X42595864Y-92816266D02*
X42595864Y-92625790D01*
X42595864Y-92625790D02*
X42691102Y-92435314D01*
X42691102Y-92435314D02*
X42786340Y-92340076D01*
X42786340Y-92340076D02*
X42976816Y-92244838D01*
X42976816Y-92244838D02*
X43453007Y-92244838D01*
X43453007Y-92244838D02*
X43738721Y-92340076D01*
X44310150Y-92244838D02*
X45453007Y-92244838D01*
X44881578Y-94244838D02*
X44881578Y-92244838D01*
X46119674Y-94244838D02*
X46119674Y-92244838D01*
X48214912Y-94054361D02*
X48119674Y-94149600D01*
X48119674Y-94149600D02*
X47833960Y-94244838D01*
X47833960Y-94244838D02*
X47643484Y-94244838D01*
X47643484Y-94244838D02*
X47357769Y-94149600D01*
X47357769Y-94149600D02*
X47167293Y-93959123D01*
X47167293Y-93959123D02*
X47072055Y-93768647D01*
X47072055Y-93768647D02*
X46976817Y-93387695D01*
X46976817Y-93387695D02*
X46976817Y-93101980D01*
X46976817Y-93101980D02*
X47072055Y-92721028D01*
X47072055Y-92721028D02*
X47167293Y-92530552D01*
X47167293Y-92530552D02*
X47357769Y-92340076D01*
X47357769Y-92340076D02*
X47643484Y-92244838D01*
X47643484Y-92244838D02*
X47833960Y-92244838D01*
X47833960Y-92244838D02*
X48119674Y-92340076D01*
X48119674Y-92340076D02*
X48214912Y-92435314D01*
X49072055Y-94244838D02*
X49072055Y-92244838D01*
X50214912Y-94244838D02*
X49357769Y-93101980D01*
X50214912Y-92244838D02*
X49072055Y-93387695D01*
X60762530Y-93899600D02*
X61048244Y-93994838D01*
X61048244Y-93994838D02*
X61524435Y-93994838D01*
X61524435Y-93994838D02*
X61714911Y-93899600D01*
X61714911Y-93899600D02*
X61810149Y-93804361D01*
X61810149Y-93804361D02*
X61905387Y-93613885D01*
X61905387Y-93613885D02*
X61905387Y-93423409D01*
X61905387Y-93423409D02*
X61810149Y-93232933D01*
X61810149Y-93232933D02*
X61714911Y-93137695D01*
X61714911Y-93137695D02*
X61524435Y-93042457D01*
X61524435Y-93042457D02*
X61143482Y-92947219D01*
X61143482Y-92947219D02*
X60953006Y-92851980D01*
X60953006Y-92851980D02*
X60857768Y-92756742D01*
X60857768Y-92756742D02*
X60762530Y-92566266D01*
X60762530Y-92566266D02*
X60762530Y-92375790D01*
X60762530Y-92375790D02*
X60857768Y-92185314D01*
X60857768Y-92185314D02*
X60953006Y-92090076D01*
X60953006Y-92090076D02*
X61143482Y-91994838D01*
X61143482Y-91994838D02*
X61619673Y-91994838D01*
X61619673Y-91994838D02*
X61905387Y-92090076D01*
X62762530Y-92947219D02*
X63429197Y-92947219D01*
X63714911Y-93994838D02*
X62762530Y-93994838D01*
X62762530Y-93994838D02*
X62762530Y-91994838D01*
X62762530Y-91994838D02*
X63714911Y-91994838D01*
X65714911Y-93994838D02*
X65048244Y-93042457D01*
X64572054Y-93994838D02*
X64572054Y-91994838D01*
X64572054Y-91994838D02*
X65333959Y-91994838D01*
X65333959Y-91994838D02*
X65524435Y-92090076D01*
X65524435Y-92090076D02*
X65619673Y-92185314D01*
X65619673Y-92185314D02*
X65714911Y-92375790D01*
X65714911Y-92375790D02*
X65714911Y-92661504D01*
X65714911Y-92661504D02*
X65619673Y-92851980D01*
X65619673Y-92851980D02*
X65524435Y-92947219D01*
X65524435Y-92947219D02*
X65333959Y-93042457D01*
X65333959Y-93042457D02*
X64572054Y-93042457D01*
X66286340Y-91994838D02*
X66953006Y-93994838D01*
X66953006Y-93994838D02*
X67619673Y-91994838D01*
X68667292Y-91994838D02*
X69048245Y-91994838D01*
X69048245Y-91994838D02*
X69238721Y-92090076D01*
X69238721Y-92090076D02*
X69429197Y-92280552D01*
X69429197Y-92280552D02*
X69524435Y-92661504D01*
X69524435Y-92661504D02*
X69524435Y-93328171D01*
X69524435Y-93328171D02*
X69429197Y-93709123D01*
X69429197Y-93709123D02*
X69238721Y-93899600D01*
X69238721Y-93899600D02*
X69048245Y-93994838D01*
X69048245Y-93994838D02*
X68667292Y-93994838D01*
X68667292Y-93994838D02*
X68476816Y-93899600D01*
X68476816Y-93899600D02*
X68286340Y-93709123D01*
X68286340Y-93709123D02*
X68191102Y-93328171D01*
X68191102Y-93328171D02*
X68191102Y-92661504D01*
X68191102Y-92661504D02*
X68286340Y-92280552D01*
X68286340Y-92280552D02*
X68476816Y-92090076D01*
X68476816Y-92090076D02*
X68667292Y-91994838D01*
X71905388Y-93994838D02*
X71905388Y-91994838D01*
X71905388Y-91994838D02*
X72572055Y-93423409D01*
X72572055Y-93423409D02*
X73238721Y-91994838D01*
X73238721Y-91994838D02*
X73238721Y-93994838D01*
X74572054Y-91994838D02*
X74953007Y-91994838D01*
X74953007Y-91994838D02*
X75143483Y-92090076D01*
X75143483Y-92090076D02*
X75333959Y-92280552D01*
X75333959Y-92280552D02*
X75429197Y-92661504D01*
X75429197Y-92661504D02*
X75429197Y-93328171D01*
X75429197Y-93328171D02*
X75333959Y-93709123D01*
X75333959Y-93709123D02*
X75143483Y-93899600D01*
X75143483Y-93899600D02*
X74953007Y-93994838D01*
X74953007Y-93994838D02*
X74572054Y-93994838D01*
X74572054Y-93994838D02*
X74381578Y-93899600D01*
X74381578Y-93899600D02*
X74191102Y-93709123D01*
X74191102Y-93709123D02*
X74095864Y-93328171D01*
X74095864Y-93328171D02*
X74095864Y-92661504D01*
X74095864Y-92661504D02*
X74191102Y-92280552D01*
X74191102Y-92280552D02*
X74381578Y-92090076D01*
X74381578Y-92090076D02*
X74572054Y-91994838D01*
X76000626Y-91994838D02*
X77143483Y-91994838D01*
X76572054Y-93994838D02*
X76572054Y-91994838D01*
X78191102Y-91994838D02*
X78572055Y-91994838D01*
X78572055Y-91994838D02*
X78762531Y-92090076D01*
X78762531Y-92090076D02*
X78953007Y-92280552D01*
X78953007Y-92280552D02*
X79048245Y-92661504D01*
X79048245Y-92661504D02*
X79048245Y-93328171D01*
X79048245Y-93328171D02*
X78953007Y-93709123D01*
X78953007Y-93709123D02*
X78762531Y-93899600D01*
X78762531Y-93899600D02*
X78572055Y-93994838D01*
X78572055Y-93994838D02*
X78191102Y-93994838D01*
X78191102Y-93994838D02*
X78000626Y-93899600D01*
X78000626Y-93899600D02*
X77810150Y-93709123D01*
X77810150Y-93709123D02*
X77714912Y-93328171D01*
X77714912Y-93328171D02*
X77714912Y-92661504D01*
X77714912Y-92661504D02*
X77810150Y-92280552D01*
X77810150Y-92280552D02*
X78000626Y-92090076D01*
X78000626Y-92090076D02*
X78191102Y-91994838D01*
X81048245Y-93994838D02*
X80381578Y-93042457D01*
X79905388Y-93994838D02*
X79905388Y-91994838D01*
X79905388Y-91994838D02*
X80667293Y-91994838D01*
X80667293Y-91994838D02*
X80857769Y-92090076D01*
X80857769Y-92090076D02*
X80953007Y-92185314D01*
X80953007Y-92185314D02*
X81048245Y-92375790D01*
X81048245Y-92375790D02*
X81048245Y-92661504D01*
X81048245Y-92661504D02*
X80953007Y-92851980D01*
X80953007Y-92851980D02*
X80857769Y-92947219D01*
X80857769Y-92947219D02*
X80667293Y-93042457D01*
X80667293Y-93042457D02*
X79905388Y-93042457D01*
D12*
X72122419Y-88946115D02*
X71122419Y-88946115D01*
X71122419Y-88946115D02*
X71122419Y-88565163D01*
X71122419Y-88565163D02*
X71170038Y-88469925D01*
X71170038Y-88469925D02*
X71217657Y-88422306D01*
X71217657Y-88422306D02*
X71312895Y-88374687D01*
X71312895Y-88374687D02*
X71455752Y-88374687D01*
X71455752Y-88374687D02*
X71550990Y-88422306D01*
X71550990Y-88422306D02*
X71598609Y-88469925D01*
X71598609Y-88469925D02*
X71646228Y-88565163D01*
X71646228Y-88565163D02*
X71646228Y-88946115D01*
X71122419Y-88041353D02*
X72122419Y-87803258D01*
X72122419Y-87803258D02*
X71408133Y-87612782D01*
X71408133Y-87612782D02*
X72122419Y-87422306D01*
X72122419Y-87422306D02*
X71122419Y-87184211D01*
X72122419Y-86803258D02*
X71122419Y-86803258D01*
X71122419Y-86803258D02*
X71836704Y-86469925D01*
X71836704Y-86469925D02*
X71122419Y-86136592D01*
X71122419Y-86136592D02*
X72122419Y-86136592D01*
X68622419Y-91088972D02*
X69622419Y-90755639D01*
X69622419Y-90755639D02*
X68622419Y-90422306D01*
X69527180Y-89517544D02*
X69574800Y-89565163D01*
X69574800Y-89565163D02*
X69622419Y-89708020D01*
X69622419Y-89708020D02*
X69622419Y-89803258D01*
X69622419Y-89803258D02*
X69574800Y-89946115D01*
X69574800Y-89946115D02*
X69479561Y-90041353D01*
X69479561Y-90041353D02*
X69384323Y-90088972D01*
X69384323Y-90088972D02*
X69193847Y-90136591D01*
X69193847Y-90136591D02*
X69050990Y-90136591D01*
X69050990Y-90136591D02*
X68860514Y-90088972D01*
X68860514Y-90088972D02*
X68765276Y-90041353D01*
X68765276Y-90041353D02*
X68670038Y-89946115D01*
X68670038Y-89946115D02*
X68622419Y-89803258D01*
X68622419Y-89803258D02*
X68622419Y-89708020D01*
X68622419Y-89708020D02*
X68670038Y-89565163D01*
X68670038Y-89565163D02*
X68717657Y-89517544D01*
X69527180Y-88517544D02*
X69574800Y-88565163D01*
X69574800Y-88565163D02*
X69622419Y-88708020D01*
X69622419Y-88708020D02*
X69622419Y-88803258D01*
X69622419Y-88803258D02*
X69574800Y-88946115D01*
X69574800Y-88946115D02*
X69479561Y-89041353D01*
X69479561Y-89041353D02*
X69384323Y-89088972D01*
X69384323Y-89088972D02*
X69193847Y-89136591D01*
X69193847Y-89136591D02*
X69050990Y-89136591D01*
X69050990Y-89136591D02*
X68860514Y-89088972D01*
X68860514Y-89088972D02*
X68765276Y-89041353D01*
X68765276Y-89041353D02*
X68670038Y-88946115D01*
X68670038Y-88946115D02*
X68622419Y-88803258D01*
X68622419Y-88803258D02*
X68622419Y-88708020D01*
X68622419Y-88708020D02*
X68670038Y-88565163D01*
X68670038Y-88565163D02*
X68717657Y-88517544D01*
X68622419Y-86850877D02*
X68622419Y-87327067D01*
X68622419Y-87327067D02*
X69098609Y-87374686D01*
X69098609Y-87374686D02*
X69050990Y-87327067D01*
X69050990Y-87327067D02*
X69003371Y-87231829D01*
X69003371Y-87231829D02*
X69003371Y-86993734D01*
X69003371Y-86993734D02*
X69050990Y-86898496D01*
X69050990Y-86898496D02*
X69098609Y-86850877D01*
X69098609Y-86850877D02*
X69193847Y-86803258D01*
X69193847Y-86803258D02*
X69431942Y-86803258D01*
X69431942Y-86803258D02*
X69527180Y-86850877D01*
X69527180Y-86850877D02*
X69574800Y-86898496D01*
X69574800Y-86898496D02*
X69622419Y-86993734D01*
X69622419Y-86993734D02*
X69622419Y-87231829D01*
X69622419Y-87231829D02*
X69574800Y-87327067D01*
X69574800Y-87327067D02*
X69527180Y-87374686D01*
X68622419Y-86517543D02*
X69622419Y-86184210D01*
X69622419Y-86184210D02*
X68622419Y-85850877D01*
X65920038Y-88172306D02*
X65872419Y-88267544D01*
X65872419Y-88267544D02*
X65872419Y-88410401D01*
X65872419Y-88410401D02*
X65920038Y-88553258D01*
X65920038Y-88553258D02*
X66015276Y-88648496D01*
X66015276Y-88648496D02*
X66110514Y-88696115D01*
X66110514Y-88696115D02*
X66300990Y-88743734D01*
X66300990Y-88743734D02*
X66443847Y-88743734D01*
X66443847Y-88743734D02*
X66634323Y-88696115D01*
X66634323Y-88696115D02*
X66729561Y-88648496D01*
X66729561Y-88648496D02*
X66824800Y-88553258D01*
X66824800Y-88553258D02*
X66872419Y-88410401D01*
X66872419Y-88410401D02*
X66872419Y-88315163D01*
X66872419Y-88315163D02*
X66824800Y-88172306D01*
X66824800Y-88172306D02*
X66777180Y-88124687D01*
X66777180Y-88124687D02*
X66443847Y-88124687D01*
X66443847Y-88124687D02*
X66443847Y-88315163D01*
X66872419Y-87696115D02*
X65872419Y-87696115D01*
X65872419Y-87696115D02*
X66872419Y-87124687D01*
X66872419Y-87124687D02*
X65872419Y-87124687D01*
X66872419Y-86648496D02*
X65872419Y-86648496D01*
X65872419Y-86648496D02*
X65872419Y-86410401D01*
X65872419Y-86410401D02*
X65920038Y-86267544D01*
X65920038Y-86267544D02*
X66015276Y-86172306D01*
X66015276Y-86172306D02*
X66110514Y-86124687D01*
X66110514Y-86124687D02*
X66300990Y-86077068D01*
X66300990Y-86077068D02*
X66443847Y-86077068D01*
X66443847Y-86077068D02*
X66634323Y-86124687D01*
X66634323Y-86124687D02*
X66729561Y-86172306D01*
X66729561Y-86172306D02*
X66824800Y-86267544D01*
X66824800Y-86267544D02*
X66872419Y-86410401D01*
X66872419Y-86410401D02*
X66872419Y-86648496D01*
X49372419Y-89196115D02*
X48372419Y-89196115D01*
X49372419Y-88624687D02*
X48800990Y-89053258D01*
X48372419Y-88624687D02*
X48943847Y-89196115D01*
X48848609Y-88196115D02*
X48848609Y-87862782D01*
X49372419Y-87719925D02*
X49372419Y-88196115D01*
X49372419Y-88196115D02*
X48372419Y-88196115D01*
X48372419Y-88196115D02*
X48372419Y-87719925D01*
X48896228Y-87100877D02*
X49372419Y-87100877D01*
X48372419Y-87434210D02*
X48896228Y-87100877D01*
X48896228Y-87100877D02*
X48372419Y-86767544D01*
X46244360Y-87646228D02*
X46244360Y-88122419D01*
X45911027Y-87122419D02*
X46244360Y-87646228D01*
X46244360Y-87646228D02*
X46577693Y-87122419D01*
X43458646Y-87122419D02*
X44125312Y-88122419D01*
X44125312Y-87122419D02*
X43458646Y-88122419D01*
X40622419Y-89588972D02*
X41622419Y-89255639D01*
X41622419Y-89255639D02*
X40622419Y-88922306D01*
X41527180Y-88017544D02*
X41574800Y-88065163D01*
X41574800Y-88065163D02*
X41622419Y-88208020D01*
X41622419Y-88208020D02*
X41622419Y-88303258D01*
X41622419Y-88303258D02*
X41574800Y-88446115D01*
X41574800Y-88446115D02*
X41479561Y-88541353D01*
X41479561Y-88541353D02*
X41384323Y-88588972D01*
X41384323Y-88588972D02*
X41193847Y-88636591D01*
X41193847Y-88636591D02*
X41050990Y-88636591D01*
X41050990Y-88636591D02*
X40860514Y-88588972D01*
X40860514Y-88588972D02*
X40765276Y-88541353D01*
X40765276Y-88541353D02*
X40670038Y-88446115D01*
X40670038Y-88446115D02*
X40622419Y-88303258D01*
X40622419Y-88303258D02*
X40622419Y-88208020D01*
X40622419Y-88208020D02*
X40670038Y-88065163D01*
X40670038Y-88065163D02*
X40717657Y-88017544D01*
X41527180Y-87017544D02*
X41574800Y-87065163D01*
X41574800Y-87065163D02*
X41622419Y-87208020D01*
X41622419Y-87208020D02*
X41622419Y-87303258D01*
X41622419Y-87303258D02*
X41574800Y-87446115D01*
X41574800Y-87446115D02*
X41479561Y-87541353D01*
X41479561Y-87541353D02*
X41384323Y-87588972D01*
X41384323Y-87588972D02*
X41193847Y-87636591D01*
X41193847Y-87636591D02*
X41050990Y-87636591D01*
X41050990Y-87636591D02*
X40860514Y-87588972D01*
X40860514Y-87588972D02*
X40765276Y-87541353D01*
X40765276Y-87541353D02*
X40670038Y-87446115D01*
X40670038Y-87446115D02*
X40622419Y-87303258D01*
X40622419Y-87303258D02*
X40622419Y-87208020D01*
X40622419Y-87208020D02*
X40670038Y-87065163D01*
X40670038Y-87065163D02*
X40717657Y-87017544D01*
X38170038Y-88922306D02*
X38122419Y-89017544D01*
X38122419Y-89017544D02*
X38122419Y-89160401D01*
X38122419Y-89160401D02*
X38170038Y-89303258D01*
X38170038Y-89303258D02*
X38265276Y-89398496D01*
X38265276Y-89398496D02*
X38360514Y-89446115D01*
X38360514Y-89446115D02*
X38550990Y-89493734D01*
X38550990Y-89493734D02*
X38693847Y-89493734D01*
X38693847Y-89493734D02*
X38884323Y-89446115D01*
X38884323Y-89446115D02*
X38979561Y-89398496D01*
X38979561Y-89398496D02*
X39074800Y-89303258D01*
X39074800Y-89303258D02*
X39122419Y-89160401D01*
X39122419Y-89160401D02*
X39122419Y-89065163D01*
X39122419Y-89065163D02*
X39074800Y-88922306D01*
X39074800Y-88922306D02*
X39027180Y-88874687D01*
X39027180Y-88874687D02*
X38693847Y-88874687D01*
X38693847Y-88874687D02*
X38693847Y-89065163D01*
X39122419Y-88446115D02*
X38122419Y-88446115D01*
X38122419Y-88446115D02*
X39122419Y-87874687D01*
X39122419Y-87874687D02*
X38122419Y-87874687D01*
X39122419Y-87398496D02*
X38122419Y-87398496D01*
X38122419Y-87398496D02*
X38122419Y-87160401D01*
X38122419Y-87160401D02*
X38170038Y-87017544D01*
X38170038Y-87017544D02*
X38265276Y-86922306D01*
X38265276Y-86922306D02*
X38360514Y-86874687D01*
X38360514Y-86874687D02*
X38550990Y-86827068D01*
X38550990Y-86827068D02*
X38693847Y-86827068D01*
X38693847Y-86827068D02*
X38884323Y-86874687D01*
X38884323Y-86874687D02*
X38979561Y-86922306D01*
X38979561Y-86922306D02*
X39074800Y-87017544D01*
X39074800Y-87017544D02*
X39122419Y-87160401D01*
X39122419Y-87160401D02*
X39122419Y-87398496D01*
X18530074Y-88622419D02*
X18053884Y-88622419D01*
X18053884Y-88622419D02*
X18006265Y-89098609D01*
X18006265Y-89098609D02*
X18053884Y-89050990D01*
X18053884Y-89050990D02*
X18149122Y-89003371D01*
X18149122Y-89003371D02*
X18387217Y-89003371D01*
X18387217Y-89003371D02*
X18482455Y-89050990D01*
X18482455Y-89050990D02*
X18530074Y-89098609D01*
X18530074Y-89098609D02*
X18577693Y-89193847D01*
X18577693Y-89193847D02*
X18577693Y-89431942D01*
X18577693Y-89431942D02*
X18530074Y-89527180D01*
X18530074Y-89527180D02*
X18482455Y-89574800D01*
X18482455Y-89574800D02*
X18387217Y-89622419D01*
X18387217Y-89622419D02*
X18149122Y-89622419D01*
X18149122Y-89622419D02*
X18053884Y-89574800D01*
X18053884Y-89574800D02*
X18006265Y-89527180D01*
X18863408Y-88622419D02*
X19196741Y-89622419D01*
X19196741Y-89622419D02*
X19530074Y-88622419D01*
X20625313Y-89622419D02*
X20625313Y-88622419D01*
X21101503Y-89622419D02*
X21101503Y-88622419D01*
X21101503Y-88622419D02*
X21672931Y-89622419D01*
X21672931Y-89622419D02*
X21672931Y-88622419D01*
X22149122Y-89622419D02*
X22149122Y-88622419D01*
X22149122Y-88622419D02*
X22530074Y-88622419D01*
X22530074Y-88622419D02*
X22625312Y-88670038D01*
X22625312Y-88670038D02*
X22672931Y-88717657D01*
X22672931Y-88717657D02*
X22720550Y-88812895D01*
X22720550Y-88812895D02*
X22720550Y-88955752D01*
X22720550Y-88955752D02*
X22672931Y-89050990D01*
X22672931Y-89050990D02*
X22625312Y-89098609D01*
X22625312Y-89098609D02*
X22530074Y-89146228D01*
X22530074Y-89146228D02*
X22149122Y-89146228D01*
X23149122Y-88622419D02*
X23149122Y-89431942D01*
X23149122Y-89431942D02*
X23196741Y-89527180D01*
X23196741Y-89527180D02*
X23244360Y-89574800D01*
X23244360Y-89574800D02*
X23339598Y-89622419D01*
X23339598Y-89622419D02*
X23530074Y-89622419D01*
X23530074Y-89622419D02*
X23625312Y-89574800D01*
X23625312Y-89574800D02*
X23672931Y-89527180D01*
X23672931Y-89527180D02*
X23720550Y-89431942D01*
X23720550Y-89431942D02*
X23720550Y-88622419D01*
X24053884Y-88622419D02*
X24625312Y-88622419D01*
X24339598Y-89622419D02*
X24339598Y-88622419D01*
D13*
X74284819Y-84809523D02*
X73284819Y-84809523D01*
X73284819Y-84809523D02*
X73999104Y-84476190D01*
X73999104Y-84476190D02*
X73284819Y-84142857D01*
X73284819Y-84142857D02*
X74284819Y-84142857D01*
X74284819Y-83142857D02*
X74284819Y-83714285D01*
X74284819Y-83428571D02*
X73284819Y-83428571D01*
X73284819Y-83428571D02*
X73427676Y-83523809D01*
X73427676Y-83523809D02*
X73522914Y-83619047D01*
X73522914Y-83619047D02*
X73570533Y-83714285D01*
X35754819Y-84583333D02*
X36469104Y-84583333D01*
X36469104Y-84583333D02*
X36611961Y-84630952D01*
X36611961Y-84630952D02*
X36707200Y-84726190D01*
X36707200Y-84726190D02*
X36754819Y-84869047D01*
X36754819Y-84869047D02*
X36754819Y-84964285D01*
X35850057Y-84154761D02*
X35802438Y-84107142D01*
X35802438Y-84107142D02*
X35754819Y-84011904D01*
X35754819Y-84011904D02*
X35754819Y-83773809D01*
X35754819Y-83773809D02*
X35802438Y-83678571D01*
X35802438Y-83678571D02*
X35850057Y-83630952D01*
X35850057Y-83630952D02*
X35945295Y-83583333D01*
X35945295Y-83583333D02*
X36040533Y-83583333D01*
X36040533Y-83583333D02*
X36183390Y-83630952D01*
X36183390Y-83630952D02*
X36754819Y-84202380D01*
X36754819Y-84202380D02*
X36754819Y-83583333D01*
X19496666Y-85629819D02*
X19496666Y-86344104D01*
X19496666Y-86344104D02*
X19449047Y-86486961D01*
X19449047Y-86486961D02*
X19353809Y-86582200D01*
X19353809Y-86582200D02*
X19210952Y-86629819D01*
X19210952Y-86629819D02*
X19115714Y-86629819D01*
X20496666Y-86629819D02*
X19925238Y-86629819D01*
X20210952Y-86629819D02*
X20210952Y-85629819D01*
X20210952Y-85629819D02*
X20115714Y-85772676D01*
X20115714Y-85772676D02*
X20020476Y-85867914D01*
X20020476Y-85867914D02*
X19925238Y-85915533D01*
X44130714Y-18479104D02*
X44606904Y-18479104D01*
X44035476Y-18764819D02*
X44368809Y-17764819D01*
X44368809Y-17764819D02*
X44702142Y-18764819D01*
X45559285Y-18764819D02*
X44987857Y-18764819D01*
X45273571Y-18764819D02*
X45273571Y-17764819D01*
X45273571Y-17764819D02*
X45178333Y-17907676D01*
X45178333Y-17907676D02*
X45083095Y-18002914D01*
X45083095Y-18002914D02*
X44987857Y-18050533D01*
D14*
%TO.C,M1*%
X72830000Y-82670000D02*
X72830000Y-84000000D01*
X71500000Y-82670000D02*
X72830000Y-82670000D01*
X70230000Y-82670000D02*
X65090000Y-82670000D01*
X70230000Y-82670000D02*
X70230000Y-85330000D01*
X65090000Y-82670000D02*
X65090000Y-85330000D01*
X70230000Y-85330000D02*
X65090000Y-85330000D01*
%TO.C,J2*%
X37300000Y-85580000D02*
X37300000Y-84250000D01*
X38630000Y-85580000D02*
X37300000Y-85580000D01*
X39900000Y-85580000D02*
X50120000Y-85580000D01*
X39900000Y-85580000D02*
X39900000Y-82920000D01*
X50120000Y-85580000D02*
X50120000Y-82920000D01*
X39900000Y-82920000D02*
X50120000Y-82920000D01*
%TO.C,J1*%
X14480000Y-75825000D02*
X29180000Y-75825000D01*
X14480000Y-85025000D02*
X14480000Y-75825000D01*
X23280000Y-85025000D02*
X14480000Y-85025000D01*
X28330000Y-75625000D02*
X29380000Y-75625000D01*
X29180000Y-75825000D02*
X29180000Y-78425000D01*
X29180000Y-82325000D02*
X29180000Y-85025000D01*
X29180000Y-85025000D02*
X27280000Y-85025000D01*
X29380000Y-76675000D02*
X29380000Y-75625000D01*
%TO.C,A1*%
X9155000Y-51840000D02*
X9155000Y-63520000D01*
X9155000Y-63520000D02*
X15505000Y-63520000D01*
X13605000Y-22630000D02*
X13605000Y-31770000D01*
X13605000Y-31770000D02*
X15505000Y-31770000D01*
X15505000Y-19450000D02*
X15505000Y-22630000D01*
X15505000Y-22630000D02*
X13605000Y-22630000D01*
X15505000Y-31770000D02*
X15505000Y-51840000D01*
X15505000Y-51840000D02*
X9155000Y-51840000D01*
X15505000Y-63520000D02*
X15505000Y-73050000D01*
X15505000Y-73050000D02*
X80155000Y-73050000D01*
X80155000Y-73050000D02*
X81805000Y-71400000D01*
X81805000Y-19450000D02*
X15505000Y-19450000D01*
X81805000Y-22120000D02*
X81805000Y-19450000D01*
X81805000Y-59970000D02*
X84345000Y-57430000D01*
X81805000Y-71400000D02*
X81805000Y-59970000D01*
X84345000Y-24660000D02*
X81805000Y-22120000D01*
X84345000Y-57430000D02*
X84345000Y-24660000D01*
%TD*%
M02*
