%TF.GenerationSoftware,KiCad,Pcbnew,8.0.6*%
%TF.CreationDate,2025-08-08T18:32:28+02:00*%
%TF.ProjectId,arduinojoystick controlling,61726475-696e-46f6-9a6f-79737469636b,rev?*%
%TF.SameCoordinates,Original*%
%TF.FileFunction,Drillmap*%
%TF.FilePolarity,Positive*%
%FSLAX45Y45*%
G04 Gerber Fmt 4.5, Leading zero omitted, Abs format (unit mm)*
G04 Created by KiCad (PCBNEW 8.0.6) date 2025-08-08 18:32:28*
%MOMM*%
%LPD*%
G01*
G04 APERTURE LIST*
%ADD10C,0.050000*%
%ADD11C,0.200000*%
%ADD12C,0.320000*%
G04 APERTURE END LIST*
D10*
X1050000Y-1650000D02*
X8850000Y-1650000D01*
X8850000Y-10750000D01*
X1050000Y-10750000D01*
X1050000Y-1650000D01*
D11*
D12*
X2800500Y-2052000D02*
X3120500Y-2372000D01*
X3120500Y-2052000D02*
X2800500Y-2372000D01*
X2927500Y-6878000D02*
X3247500Y-7198000D01*
X3247500Y-6878000D02*
X2927500Y-7198000D01*
X8007500Y-2560000D02*
X8327500Y-2880000D01*
X8327500Y-2560000D02*
X8007500Y-2880000D01*
X8007500Y-5354000D02*
X8327500Y-5674000D01*
X8327500Y-5354000D02*
X8007500Y-5674000D01*
D11*
X1308277Y-11063984D02*
X1308277Y-10863984D01*
X1308277Y-10863984D02*
X1355896Y-10863984D01*
X1355896Y-10863984D02*
X1384467Y-10873508D01*
X1384467Y-10873508D02*
X1403515Y-10892555D01*
X1403515Y-10892555D02*
X1413039Y-10911603D01*
X1413039Y-10911603D02*
X1422562Y-10949698D01*
X1422562Y-10949698D02*
X1422562Y-10978270D01*
X1422562Y-10978270D02*
X1413039Y-11016365D01*
X1413039Y-11016365D02*
X1403515Y-11035412D01*
X1403515Y-11035412D02*
X1384467Y-11054460D01*
X1384467Y-11054460D02*
X1355896Y-11063984D01*
X1355896Y-11063984D02*
X1308277Y-11063984D01*
X1508277Y-11063984D02*
X1508277Y-10930650D01*
X1508277Y-10968746D02*
X1517801Y-10949698D01*
X1517801Y-10949698D02*
X1527324Y-10940174D01*
X1527324Y-10940174D02*
X1546372Y-10930650D01*
X1546372Y-10930650D02*
X1565420Y-10930650D01*
X1632086Y-11063984D02*
X1632086Y-10930650D01*
X1632086Y-10863984D02*
X1622562Y-10873508D01*
X1622562Y-10873508D02*
X1632086Y-10883031D01*
X1632086Y-10883031D02*
X1641610Y-10873508D01*
X1641610Y-10873508D02*
X1632086Y-10863984D01*
X1632086Y-10863984D02*
X1632086Y-10883031D01*
X1755896Y-11063984D02*
X1736848Y-11054460D01*
X1736848Y-11054460D02*
X1727324Y-11035412D01*
X1727324Y-11035412D02*
X1727324Y-10863984D01*
X1860658Y-11063984D02*
X1841610Y-11054460D01*
X1841610Y-11054460D02*
X1832086Y-11035412D01*
X1832086Y-11035412D02*
X1832086Y-10863984D01*
X2089229Y-11063984D02*
X2089229Y-10863984D01*
X2089229Y-10863984D02*
X2155896Y-11006841D01*
X2155896Y-11006841D02*
X2222563Y-10863984D01*
X2222563Y-10863984D02*
X2222563Y-11063984D01*
X2403515Y-11063984D02*
X2403515Y-10959222D01*
X2403515Y-10959222D02*
X2393991Y-10940174D01*
X2393991Y-10940174D02*
X2374944Y-10930650D01*
X2374944Y-10930650D02*
X2336848Y-10930650D01*
X2336848Y-10930650D02*
X2317801Y-10940174D01*
X2403515Y-11054460D02*
X2384467Y-11063984D01*
X2384467Y-11063984D02*
X2336848Y-11063984D01*
X2336848Y-11063984D02*
X2317801Y-11054460D01*
X2317801Y-11054460D02*
X2308277Y-11035412D01*
X2308277Y-11035412D02*
X2308277Y-11016365D01*
X2308277Y-11016365D02*
X2317801Y-10997317D01*
X2317801Y-10997317D02*
X2336848Y-10987793D01*
X2336848Y-10987793D02*
X2384467Y-10987793D01*
X2384467Y-10987793D02*
X2403515Y-10978270D01*
X2498753Y-10930650D02*
X2498753Y-11130650D01*
X2498753Y-10940174D02*
X2517801Y-10930650D01*
X2517801Y-10930650D02*
X2555896Y-10930650D01*
X2555896Y-10930650D02*
X2574944Y-10940174D01*
X2574944Y-10940174D02*
X2584467Y-10949698D01*
X2584467Y-10949698D02*
X2593991Y-10968746D01*
X2593991Y-10968746D02*
X2593991Y-11025889D01*
X2593991Y-11025889D02*
X2584467Y-11044936D01*
X2584467Y-11044936D02*
X2574944Y-11054460D01*
X2574944Y-11054460D02*
X2555896Y-11063984D01*
X2555896Y-11063984D02*
X2517801Y-11063984D01*
X2517801Y-11063984D02*
X2498753Y-11054460D01*
X2679705Y-11044936D02*
X2689229Y-11054460D01*
X2689229Y-11054460D02*
X2679705Y-11063984D01*
X2679705Y-11063984D02*
X2670182Y-11054460D01*
X2670182Y-11054460D02*
X2679705Y-11044936D01*
X2679705Y-11044936D02*
X2679705Y-11063984D01*
X2679705Y-10940174D02*
X2689229Y-10949698D01*
X2689229Y-10949698D02*
X2679705Y-10959222D01*
X2679705Y-10959222D02*
X2670182Y-10949698D01*
X2670182Y-10949698D02*
X2679705Y-10940174D01*
X2679705Y-10940174D02*
X2679705Y-10959222D01*
X847500Y-11292500D02*
X1047500Y-11492500D01*
X1047500Y-11292500D02*
X847500Y-11492500D01*
X1289229Y-11283984D02*
X1413039Y-11283984D01*
X1413039Y-11283984D02*
X1346372Y-11360174D01*
X1346372Y-11360174D02*
X1374944Y-11360174D01*
X1374944Y-11360174D02*
X1393991Y-11369698D01*
X1393991Y-11369698D02*
X1403515Y-11379222D01*
X1403515Y-11379222D02*
X1413039Y-11398269D01*
X1413039Y-11398269D02*
X1413039Y-11445888D01*
X1413039Y-11445888D02*
X1403515Y-11464936D01*
X1403515Y-11464936D02*
X1393991Y-11474460D01*
X1393991Y-11474460D02*
X1374944Y-11483984D01*
X1374944Y-11483984D02*
X1317801Y-11483984D01*
X1317801Y-11483984D02*
X1298753Y-11474460D01*
X1298753Y-11474460D02*
X1289229Y-11464936D01*
X1498753Y-11464936D02*
X1508277Y-11474460D01*
X1508277Y-11474460D02*
X1498753Y-11483984D01*
X1498753Y-11483984D02*
X1489229Y-11474460D01*
X1489229Y-11474460D02*
X1498753Y-11464936D01*
X1498753Y-11464936D02*
X1498753Y-11483984D01*
X1584467Y-11303031D02*
X1593991Y-11293508D01*
X1593991Y-11293508D02*
X1613039Y-11283984D01*
X1613039Y-11283984D02*
X1660658Y-11283984D01*
X1660658Y-11283984D02*
X1679705Y-11293508D01*
X1679705Y-11293508D02*
X1689229Y-11303031D01*
X1689229Y-11303031D02*
X1698753Y-11322079D01*
X1698753Y-11322079D02*
X1698753Y-11341127D01*
X1698753Y-11341127D02*
X1689229Y-11369698D01*
X1689229Y-11369698D02*
X1574943Y-11483984D01*
X1574943Y-11483984D02*
X1698753Y-11483984D01*
X1822562Y-11283984D02*
X1841610Y-11283984D01*
X1841610Y-11283984D02*
X1860658Y-11293508D01*
X1860658Y-11293508D02*
X1870182Y-11303031D01*
X1870182Y-11303031D02*
X1879705Y-11322079D01*
X1879705Y-11322079D02*
X1889229Y-11360174D01*
X1889229Y-11360174D02*
X1889229Y-11407793D01*
X1889229Y-11407793D02*
X1879705Y-11445888D01*
X1879705Y-11445888D02*
X1870182Y-11464936D01*
X1870182Y-11464936D02*
X1860658Y-11474460D01*
X1860658Y-11474460D02*
X1841610Y-11483984D01*
X1841610Y-11483984D02*
X1822562Y-11483984D01*
X1822562Y-11483984D02*
X1803515Y-11474460D01*
X1803515Y-11474460D02*
X1793991Y-11464936D01*
X1793991Y-11464936D02*
X1784467Y-11445888D01*
X1784467Y-11445888D02*
X1774943Y-11407793D01*
X1774943Y-11407793D02*
X1774943Y-11360174D01*
X1774943Y-11360174D02*
X1784467Y-11322079D01*
X1784467Y-11322079D02*
X1793991Y-11303031D01*
X1793991Y-11303031D02*
X1803515Y-11293508D01*
X1803515Y-11293508D02*
X1822562Y-11283984D01*
X2013039Y-11283984D02*
X2032086Y-11283984D01*
X2032086Y-11283984D02*
X2051134Y-11293508D01*
X2051134Y-11293508D02*
X2060658Y-11303031D01*
X2060658Y-11303031D02*
X2070182Y-11322079D01*
X2070182Y-11322079D02*
X2079705Y-11360174D01*
X2079705Y-11360174D02*
X2079705Y-11407793D01*
X2079705Y-11407793D02*
X2070182Y-11445888D01*
X2070182Y-11445888D02*
X2060658Y-11464936D01*
X2060658Y-11464936D02*
X2051134Y-11474460D01*
X2051134Y-11474460D02*
X2032086Y-11483984D01*
X2032086Y-11483984D02*
X2013039Y-11483984D01*
X2013039Y-11483984D02*
X1993991Y-11474460D01*
X1993991Y-11474460D02*
X1984467Y-11464936D01*
X1984467Y-11464936D02*
X1974943Y-11445888D01*
X1974943Y-11445888D02*
X1965420Y-11407793D01*
X1965420Y-11407793D02*
X1965420Y-11360174D01*
X1965420Y-11360174D02*
X1974943Y-11322079D01*
X1974943Y-11322079D02*
X1984467Y-11303031D01*
X1984467Y-11303031D02*
X1993991Y-11293508D01*
X1993991Y-11293508D02*
X2013039Y-11283984D01*
X2165420Y-11483984D02*
X2165420Y-11350650D01*
X2165420Y-11369698D02*
X2174944Y-11360174D01*
X2174944Y-11360174D02*
X2193991Y-11350650D01*
X2193991Y-11350650D02*
X2222563Y-11350650D01*
X2222563Y-11350650D02*
X2241610Y-11360174D01*
X2241610Y-11360174D02*
X2251134Y-11379222D01*
X2251134Y-11379222D02*
X2251134Y-11483984D01*
X2251134Y-11379222D02*
X2260658Y-11360174D01*
X2260658Y-11360174D02*
X2279705Y-11350650D01*
X2279705Y-11350650D02*
X2308277Y-11350650D01*
X2308277Y-11350650D02*
X2327325Y-11360174D01*
X2327325Y-11360174D02*
X2336848Y-11379222D01*
X2336848Y-11379222D02*
X2336848Y-11483984D01*
X2432086Y-11483984D02*
X2432086Y-11350650D01*
X2432086Y-11369698D02*
X2441610Y-11360174D01*
X2441610Y-11360174D02*
X2460658Y-11350650D01*
X2460658Y-11350650D02*
X2489229Y-11350650D01*
X2489229Y-11350650D02*
X2508277Y-11360174D01*
X2508277Y-11360174D02*
X2517801Y-11379222D01*
X2517801Y-11379222D02*
X2517801Y-11483984D01*
X2517801Y-11379222D02*
X2527325Y-11360174D01*
X2527325Y-11360174D02*
X2546372Y-11350650D01*
X2546372Y-11350650D02*
X2574944Y-11350650D01*
X2574944Y-11350650D02*
X2593991Y-11360174D01*
X2593991Y-11360174D02*
X2603515Y-11379222D01*
X2603515Y-11379222D02*
X2603515Y-11483984D01*
X2993991Y-11274460D02*
X2822563Y-11531603D01*
X3251134Y-11283984D02*
X3270182Y-11283984D01*
X3270182Y-11283984D02*
X3289229Y-11293508D01*
X3289229Y-11293508D02*
X3298753Y-11303031D01*
X3298753Y-11303031D02*
X3308277Y-11322079D01*
X3308277Y-11322079D02*
X3317801Y-11360174D01*
X3317801Y-11360174D02*
X3317801Y-11407793D01*
X3317801Y-11407793D02*
X3308277Y-11445888D01*
X3308277Y-11445888D02*
X3298753Y-11464936D01*
X3298753Y-11464936D02*
X3289229Y-11474460D01*
X3289229Y-11474460D02*
X3270182Y-11483984D01*
X3270182Y-11483984D02*
X3251134Y-11483984D01*
X3251134Y-11483984D02*
X3232086Y-11474460D01*
X3232086Y-11474460D02*
X3222563Y-11464936D01*
X3222563Y-11464936D02*
X3213039Y-11445888D01*
X3213039Y-11445888D02*
X3203515Y-11407793D01*
X3203515Y-11407793D02*
X3203515Y-11360174D01*
X3203515Y-11360174D02*
X3213039Y-11322079D01*
X3213039Y-11322079D02*
X3222563Y-11303031D01*
X3222563Y-11303031D02*
X3232086Y-11293508D01*
X3232086Y-11293508D02*
X3251134Y-11283984D01*
X3403515Y-11464936D02*
X3413039Y-11474460D01*
X3413039Y-11474460D02*
X3403515Y-11483984D01*
X3403515Y-11483984D02*
X3393991Y-11474460D01*
X3393991Y-11474460D02*
X3403515Y-11464936D01*
X3403515Y-11464936D02*
X3403515Y-11483984D01*
X3603515Y-11483984D02*
X3489229Y-11483984D01*
X3546372Y-11483984D02*
X3546372Y-11283984D01*
X3546372Y-11283984D02*
X3527325Y-11312555D01*
X3527325Y-11312555D02*
X3508277Y-11331603D01*
X3508277Y-11331603D02*
X3489229Y-11341127D01*
X3679706Y-11303031D02*
X3689229Y-11293508D01*
X3689229Y-11293508D02*
X3708277Y-11283984D01*
X3708277Y-11283984D02*
X3755896Y-11283984D01*
X3755896Y-11283984D02*
X3774944Y-11293508D01*
X3774944Y-11293508D02*
X3784467Y-11303031D01*
X3784467Y-11303031D02*
X3793991Y-11322079D01*
X3793991Y-11322079D02*
X3793991Y-11341127D01*
X3793991Y-11341127D02*
X3784467Y-11369698D01*
X3784467Y-11369698D02*
X3670182Y-11483984D01*
X3670182Y-11483984D02*
X3793991Y-11483984D01*
X3965420Y-11283984D02*
X3927325Y-11283984D01*
X3927325Y-11283984D02*
X3908277Y-11293508D01*
X3908277Y-11293508D02*
X3898753Y-11303031D01*
X3898753Y-11303031D02*
X3879706Y-11331603D01*
X3879706Y-11331603D02*
X3870182Y-11369698D01*
X3870182Y-11369698D02*
X3870182Y-11445888D01*
X3870182Y-11445888D02*
X3879706Y-11464936D01*
X3879706Y-11464936D02*
X3889229Y-11474460D01*
X3889229Y-11474460D02*
X3908277Y-11483984D01*
X3908277Y-11483984D02*
X3946372Y-11483984D01*
X3946372Y-11483984D02*
X3965420Y-11474460D01*
X3965420Y-11474460D02*
X3974944Y-11464936D01*
X3974944Y-11464936D02*
X3984467Y-11445888D01*
X3984467Y-11445888D02*
X3984467Y-11398269D01*
X3984467Y-11398269D02*
X3974944Y-11379222D01*
X3974944Y-11379222D02*
X3965420Y-11369698D01*
X3965420Y-11369698D02*
X3946372Y-11360174D01*
X3946372Y-11360174D02*
X3908277Y-11360174D01*
X3908277Y-11360174D02*
X3889229Y-11369698D01*
X3889229Y-11369698D02*
X3879706Y-11379222D01*
X3879706Y-11379222D02*
X3870182Y-11398269D01*
X4108277Y-11283984D02*
X4127325Y-11283984D01*
X4127325Y-11283984D02*
X4146372Y-11293508D01*
X4146372Y-11293508D02*
X4155896Y-11303031D01*
X4155896Y-11303031D02*
X4165420Y-11322079D01*
X4165420Y-11322079D02*
X4174944Y-11360174D01*
X4174944Y-11360174D02*
X4174944Y-11407793D01*
X4174944Y-11407793D02*
X4165420Y-11445888D01*
X4165420Y-11445888D02*
X4155896Y-11464936D01*
X4155896Y-11464936D02*
X4146372Y-11474460D01*
X4146372Y-11474460D02*
X4127325Y-11483984D01*
X4127325Y-11483984D02*
X4108277Y-11483984D01*
X4108277Y-11483984D02*
X4089229Y-11474460D01*
X4089229Y-11474460D02*
X4079706Y-11464936D01*
X4079706Y-11464936D02*
X4070182Y-11445888D01*
X4070182Y-11445888D02*
X4060658Y-11407793D01*
X4060658Y-11407793D02*
X4060658Y-11360174D01*
X4060658Y-11360174D02*
X4070182Y-11322079D01*
X4070182Y-11322079D02*
X4079706Y-11303031D01*
X4079706Y-11303031D02*
X4089229Y-11293508D01*
X4089229Y-11293508D02*
X4108277Y-11283984D01*
X4251134Y-11283984D02*
X4251134Y-11322079D01*
X4327325Y-11283984D02*
X4327325Y-11322079D01*
X4622563Y-11560174D02*
X4613039Y-11550650D01*
X4613039Y-11550650D02*
X4593991Y-11522079D01*
X4593991Y-11522079D02*
X4584468Y-11503031D01*
X4584468Y-11503031D02*
X4574944Y-11474460D01*
X4574944Y-11474460D02*
X4565420Y-11426841D01*
X4565420Y-11426841D02*
X4565420Y-11388746D01*
X4565420Y-11388746D02*
X4574944Y-11341127D01*
X4574944Y-11341127D02*
X4584468Y-11312555D01*
X4584468Y-11312555D02*
X4593991Y-11293508D01*
X4593991Y-11293508D02*
X4613039Y-11264936D01*
X4613039Y-11264936D02*
X4622563Y-11255412D01*
X4784468Y-11350650D02*
X4784468Y-11483984D01*
X4736849Y-11274460D02*
X4689230Y-11417317D01*
X4689230Y-11417317D02*
X4813039Y-11417317D01*
X5041611Y-11483984D02*
X5041611Y-11283984D01*
X5127325Y-11483984D02*
X5127325Y-11379222D01*
X5127325Y-11379222D02*
X5117801Y-11360174D01*
X5117801Y-11360174D02*
X5098753Y-11350650D01*
X5098753Y-11350650D02*
X5070182Y-11350650D01*
X5070182Y-11350650D02*
X5051134Y-11360174D01*
X5051134Y-11360174D02*
X5041611Y-11369698D01*
X5251134Y-11483984D02*
X5232087Y-11474460D01*
X5232087Y-11474460D02*
X5222563Y-11464936D01*
X5222563Y-11464936D02*
X5213039Y-11445888D01*
X5213039Y-11445888D02*
X5213039Y-11388746D01*
X5213039Y-11388746D02*
X5222563Y-11369698D01*
X5222563Y-11369698D02*
X5232087Y-11360174D01*
X5232087Y-11360174D02*
X5251134Y-11350650D01*
X5251134Y-11350650D02*
X5279706Y-11350650D01*
X5279706Y-11350650D02*
X5298753Y-11360174D01*
X5298753Y-11360174D02*
X5308277Y-11369698D01*
X5308277Y-11369698D02*
X5317801Y-11388746D01*
X5317801Y-11388746D02*
X5317801Y-11445888D01*
X5317801Y-11445888D02*
X5308277Y-11464936D01*
X5308277Y-11464936D02*
X5298753Y-11474460D01*
X5298753Y-11474460D02*
X5279706Y-11483984D01*
X5279706Y-11483984D02*
X5251134Y-11483984D01*
X5432087Y-11483984D02*
X5413039Y-11474460D01*
X5413039Y-11474460D02*
X5403515Y-11455412D01*
X5403515Y-11455412D02*
X5403515Y-11283984D01*
X5584468Y-11474460D02*
X5565420Y-11483984D01*
X5565420Y-11483984D02*
X5527325Y-11483984D01*
X5527325Y-11483984D02*
X5508277Y-11474460D01*
X5508277Y-11474460D02*
X5498753Y-11455412D01*
X5498753Y-11455412D02*
X5498753Y-11379222D01*
X5498753Y-11379222D02*
X5508277Y-11360174D01*
X5508277Y-11360174D02*
X5527325Y-11350650D01*
X5527325Y-11350650D02*
X5565420Y-11350650D01*
X5565420Y-11350650D02*
X5584468Y-11360174D01*
X5584468Y-11360174D02*
X5593991Y-11379222D01*
X5593991Y-11379222D02*
X5593991Y-11398269D01*
X5593991Y-11398269D02*
X5498753Y-11417317D01*
X5670182Y-11474460D02*
X5689230Y-11483984D01*
X5689230Y-11483984D02*
X5727325Y-11483984D01*
X5727325Y-11483984D02*
X5746372Y-11474460D01*
X5746372Y-11474460D02*
X5755896Y-11455412D01*
X5755896Y-11455412D02*
X5755896Y-11445888D01*
X5755896Y-11445888D02*
X5746372Y-11426841D01*
X5746372Y-11426841D02*
X5727325Y-11417317D01*
X5727325Y-11417317D02*
X5698753Y-11417317D01*
X5698753Y-11417317D02*
X5679706Y-11407793D01*
X5679706Y-11407793D02*
X5670182Y-11388746D01*
X5670182Y-11388746D02*
X5670182Y-11379222D01*
X5670182Y-11379222D02*
X5679706Y-11360174D01*
X5679706Y-11360174D02*
X5698753Y-11350650D01*
X5698753Y-11350650D02*
X5727325Y-11350650D01*
X5727325Y-11350650D02*
X5746372Y-11360174D01*
X5822563Y-11560174D02*
X5832087Y-11550650D01*
X5832087Y-11550650D02*
X5851134Y-11522079D01*
X5851134Y-11522079D02*
X5860658Y-11503031D01*
X5860658Y-11503031D02*
X5870182Y-11474460D01*
X5870182Y-11474460D02*
X5879706Y-11426841D01*
X5879706Y-11426841D02*
X5879706Y-11388746D01*
X5879706Y-11388746D02*
X5870182Y-11341127D01*
X5870182Y-11341127D02*
X5860658Y-11312555D01*
X5860658Y-11312555D02*
X5851134Y-11293508D01*
X5851134Y-11293508D02*
X5832087Y-11264936D01*
X5832087Y-11264936D02*
X5822563Y-11255412D01*
X6184468Y-11560174D02*
X6174944Y-11550650D01*
X6174944Y-11550650D02*
X6155896Y-11522079D01*
X6155896Y-11522079D02*
X6146372Y-11503031D01*
X6146372Y-11503031D02*
X6136849Y-11474460D01*
X6136849Y-11474460D02*
X6127325Y-11426841D01*
X6127325Y-11426841D02*
X6127325Y-11388746D01*
X6127325Y-11388746D02*
X6136849Y-11341127D01*
X6136849Y-11341127D02*
X6146372Y-11312555D01*
X6146372Y-11312555D02*
X6155896Y-11293508D01*
X6155896Y-11293508D02*
X6174944Y-11264936D01*
X6174944Y-11264936D02*
X6184468Y-11255412D01*
X6260658Y-11350650D02*
X6260658Y-11483984D01*
X6260658Y-11369698D02*
X6270182Y-11360174D01*
X6270182Y-11360174D02*
X6289230Y-11350650D01*
X6289230Y-11350650D02*
X6317801Y-11350650D01*
X6317801Y-11350650D02*
X6336849Y-11360174D01*
X6336849Y-11360174D02*
X6346372Y-11379222D01*
X6346372Y-11379222D02*
X6346372Y-11483984D01*
X6470182Y-11483984D02*
X6451134Y-11474460D01*
X6451134Y-11474460D02*
X6441611Y-11464936D01*
X6441611Y-11464936D02*
X6432087Y-11445888D01*
X6432087Y-11445888D02*
X6432087Y-11388746D01*
X6432087Y-11388746D02*
X6441611Y-11369698D01*
X6441611Y-11369698D02*
X6451134Y-11360174D01*
X6451134Y-11360174D02*
X6470182Y-11350650D01*
X6470182Y-11350650D02*
X6498753Y-11350650D01*
X6498753Y-11350650D02*
X6517801Y-11360174D01*
X6517801Y-11360174D02*
X6527325Y-11369698D01*
X6527325Y-11369698D02*
X6536849Y-11388746D01*
X6536849Y-11388746D02*
X6536849Y-11445888D01*
X6536849Y-11445888D02*
X6527325Y-11464936D01*
X6527325Y-11464936D02*
X6517801Y-11474460D01*
X6517801Y-11474460D02*
X6498753Y-11483984D01*
X6498753Y-11483984D02*
X6470182Y-11483984D01*
X6593992Y-11350650D02*
X6670182Y-11350650D01*
X6622563Y-11283984D02*
X6622563Y-11455412D01*
X6622563Y-11455412D02*
X6632087Y-11474460D01*
X6632087Y-11474460D02*
X6651134Y-11483984D01*
X6651134Y-11483984D02*
X6670182Y-11483984D01*
X6889230Y-11350650D02*
X6889230Y-11550650D01*
X6889230Y-11360174D02*
X6908277Y-11350650D01*
X6908277Y-11350650D02*
X6946373Y-11350650D01*
X6946373Y-11350650D02*
X6965420Y-11360174D01*
X6965420Y-11360174D02*
X6974944Y-11369698D01*
X6974944Y-11369698D02*
X6984468Y-11388746D01*
X6984468Y-11388746D02*
X6984468Y-11445888D01*
X6984468Y-11445888D02*
X6974944Y-11464936D01*
X6974944Y-11464936D02*
X6965420Y-11474460D01*
X6965420Y-11474460D02*
X6946373Y-11483984D01*
X6946373Y-11483984D02*
X6908277Y-11483984D01*
X6908277Y-11483984D02*
X6889230Y-11474460D01*
X7098753Y-11483984D02*
X7079706Y-11474460D01*
X7079706Y-11474460D02*
X7070182Y-11455412D01*
X7070182Y-11455412D02*
X7070182Y-11283984D01*
X7260658Y-11483984D02*
X7260658Y-11379222D01*
X7260658Y-11379222D02*
X7251134Y-11360174D01*
X7251134Y-11360174D02*
X7232087Y-11350650D01*
X7232087Y-11350650D02*
X7193992Y-11350650D01*
X7193992Y-11350650D02*
X7174944Y-11360174D01*
X7260658Y-11474460D02*
X7241611Y-11483984D01*
X7241611Y-11483984D02*
X7193992Y-11483984D01*
X7193992Y-11483984D02*
X7174944Y-11474460D01*
X7174944Y-11474460D02*
X7165420Y-11455412D01*
X7165420Y-11455412D02*
X7165420Y-11436365D01*
X7165420Y-11436365D02*
X7174944Y-11417317D01*
X7174944Y-11417317D02*
X7193992Y-11407793D01*
X7193992Y-11407793D02*
X7241611Y-11407793D01*
X7241611Y-11407793D02*
X7260658Y-11398269D01*
X7327325Y-11350650D02*
X7403515Y-11350650D01*
X7355896Y-11283984D02*
X7355896Y-11455412D01*
X7355896Y-11455412D02*
X7365420Y-11474460D01*
X7365420Y-11474460D02*
X7384468Y-11483984D01*
X7384468Y-11483984D02*
X7403515Y-11483984D01*
X7546373Y-11474460D02*
X7527325Y-11483984D01*
X7527325Y-11483984D02*
X7489230Y-11483984D01*
X7489230Y-11483984D02*
X7470182Y-11474460D01*
X7470182Y-11474460D02*
X7460658Y-11455412D01*
X7460658Y-11455412D02*
X7460658Y-11379222D01*
X7460658Y-11379222D02*
X7470182Y-11360174D01*
X7470182Y-11360174D02*
X7489230Y-11350650D01*
X7489230Y-11350650D02*
X7527325Y-11350650D01*
X7527325Y-11350650D02*
X7546373Y-11360174D01*
X7546373Y-11360174D02*
X7555896Y-11379222D01*
X7555896Y-11379222D02*
X7555896Y-11398269D01*
X7555896Y-11398269D02*
X7460658Y-11417317D01*
X7727325Y-11483984D02*
X7727325Y-11283984D01*
X7727325Y-11474460D02*
X7708277Y-11483984D01*
X7708277Y-11483984D02*
X7670182Y-11483984D01*
X7670182Y-11483984D02*
X7651134Y-11474460D01*
X7651134Y-11474460D02*
X7641611Y-11464936D01*
X7641611Y-11464936D02*
X7632087Y-11445888D01*
X7632087Y-11445888D02*
X7632087Y-11388746D01*
X7632087Y-11388746D02*
X7641611Y-11369698D01*
X7641611Y-11369698D02*
X7651134Y-11360174D01*
X7651134Y-11360174D02*
X7670182Y-11350650D01*
X7670182Y-11350650D02*
X7708277Y-11350650D01*
X7708277Y-11350650D02*
X7727325Y-11360174D01*
X7803515Y-11560174D02*
X7813039Y-11550650D01*
X7813039Y-11550650D02*
X7832087Y-11522079D01*
X7832087Y-11522079D02*
X7841611Y-11503031D01*
X7841611Y-11503031D02*
X7851134Y-11474460D01*
X7851134Y-11474460D02*
X7860658Y-11426841D01*
X7860658Y-11426841D02*
X7860658Y-11388746D01*
X7860658Y-11388746D02*
X7851134Y-11341127D01*
X7851134Y-11341127D02*
X7841611Y-11312555D01*
X7841611Y-11312555D02*
X7832087Y-11293508D01*
X7832087Y-11293508D02*
X7813039Y-11264936D01*
X7813039Y-11264936D02*
X7803515Y-11255412D01*
M02*
