%TF.GenerationSoftware,KiCad,Pcbnew,8.0.6*%
%TF.CreationDate,2025-08-08T18:32:04+02:00*%
%TF.ProjectId,arduinojoystick controlling,61726475-696e-46f6-9a6f-79737469636b,rev?*%
%TF.SameCoordinates,Original*%
%TF.FileFunction,Copper,L1,Top*%
%TF.FilePolarity,Positive*%
%FSLAX46Y46*%
G04 Gerber Fmt 4.6, Leading zero omitted, Abs format (unit mm)*
G04 Created by KiCad (PCBNEW 8.0.6) date 2025-08-08 18:32:04*
%MOMM*%
%LPD*%
G01*
G04 APERTURE LIST*
G04 Aperture macros list*
%AMRoundRect*
0 Rectangle with rounded corners*
0 $1 Rounding radius*
0 $2 $3 $4 $5 $6 $7 $8 $9 X,Y pos of 4 corners*
0 Add a 4 corners polygon primitive as box body*
4,1,4,$2,$3,$4,$5,$6,$7,$8,$9,$2,$3,0*
0 Add four circle primitives for the rounded corners*
1,1,$1+$1,$2,$3*
1,1,$1+$1,$4,$5*
1,1,$1+$1,$6,$7*
1,1,$1+$1,$8,$9*
0 Add four rect primitives between the rounded corners*
20,1,$1+$1,$2,$3,$4,$5,0*
20,1,$1+$1,$4,$5,$6,$7,0*
20,1,$1+$1,$6,$7,$8,$9,0*
20,1,$1+$1,$8,$9,$2,$3,0*%
G04 Aperture macros list end*
%TA.AperFunction,ComponentPad*%
%ADD10R,1.700000X1.700000*%
%TD*%
%TA.AperFunction,ComponentPad*%
%ADD11O,1.700000X1.700000*%
%TD*%
%TA.AperFunction,ComponentPad*%
%ADD12R,3.500000X3.500000*%
%TD*%
%TA.AperFunction,ComponentPad*%
%ADD13RoundRect,0.750000X-0.750000X-1.000000X0.750000X-1.000000X0.750000X1.000000X-0.750000X1.000000X0*%
%TD*%
%TA.AperFunction,ComponentPad*%
%ADD14RoundRect,0.875000X-0.875000X-0.875000X0.875000X-0.875000X0.875000X0.875000X-0.875000X0.875000X0*%
%TD*%
%TA.AperFunction,ComponentPad*%
%ADD15R,1.600000X1.600000*%
%TD*%
%TA.AperFunction,ComponentPad*%
%ADD16O,1.600000X1.600000*%
%TD*%
%TA.AperFunction,Conductor*%
%ADD17C,0.500000*%
%TD*%
G04 APERTURE END LIST*
D10*
%TO.P,M1,1,PWM*%
%TO.N,D9*%
X71500000Y-84000000D03*
D11*
%TO.P,M1,2,+*%
%TO.N,vccarduino*%
X68960000Y-84000000D03*
%TO.P,M1,3,-*%
%TO.N,GND*%
X66420000Y-84000000D03*
%TD*%
D10*
%TO.P,J2,1,Pin_1*%
%TO.N,GND*%
X38630000Y-84250000D03*
D11*
%TO.P,J2,2,Pin_2*%
%TO.N,vccarduino*%
X41170000Y-84250000D03*
%TO.P,J2,3,Pin_3*%
%TO.N,A0*%
X43710000Y-84250000D03*
%TO.P,J2,4,Pin_4*%
%TO.N,unconnected-(J2-Pin_4-Pad4)*%
X46250000Y-84250000D03*
%TO.P,J2,5,Pin_5*%
%TO.N,unconnected-(J2-Pin_5-Pad5)*%
X48790000Y-84250000D03*
%TD*%
D12*
%TO.P,J1,1*%
%TO.N,VCC*%
X28280000Y-80425000D03*
D13*
%TO.P,J1,2*%
%TO.N,GND*%
X22280000Y-80425000D03*
D14*
%TO.P,J1,3*%
X25280000Y-85125000D03*
%TD*%
D15*
%TO.P,A1,1,NC*%
%TO.N,unconnected-(A1-NC-Pad1)*%
X43575000Y-22120000D03*
D16*
%TO.P,A1,2,IOREF*%
%TO.N,unconnected-(A1-IOREF-Pad2)*%
X46115000Y-22120000D03*
%TO.P,A1,3,~{RESET}*%
%TO.N,unconnected-(A1-~{RESET}-Pad3)*%
X48655000Y-22120000D03*
%TO.P,A1,4,3V3*%
%TO.N,unconnected-(A1-3V3-Pad4)*%
X51195000Y-22120000D03*
%TO.P,A1,5,+5V*%
%TO.N,vccarduino*%
X53735000Y-22120000D03*
%TO.P,A1,6,GND*%
%TO.N,GND*%
X56275000Y-22120000D03*
%TO.P,A1,7,GND*%
X58815000Y-22120000D03*
%TO.P,A1,8,VIN*%
%TO.N,VCC*%
X61355000Y-22120000D03*
%TO.P,A1,9,A0*%
%TO.N,A0*%
X66435000Y-22120000D03*
%TO.P,A1,10,A1*%
%TO.N,unconnected-(A1-A1-Pad10)*%
X68975000Y-22120000D03*
%TO.P,A1,11,A2*%
%TO.N,unconnected-(A1-A2-Pad11)*%
X71515000Y-22120000D03*
%TO.P,A1,12,A3*%
%TO.N,unconnected-(A1-A3-Pad12)*%
X74055000Y-22120000D03*
%TO.P,A1,13,SDA/A4*%
%TO.N,unconnected-(A1-SDA{slash}A4-Pad13)*%
X76595000Y-22120000D03*
%TO.P,A1,14,SCL/A5*%
%TO.N,unconnected-(A1-SCL{slash}A5-Pad14)*%
X79135000Y-22120000D03*
%TO.P,A1,15,D0/RX*%
%TO.N,unconnected-(A1-D0{slash}RX-Pad15)*%
X79135000Y-70380000D03*
%TO.P,A1,16,D1/TX*%
%TO.N,unconnected-(A1-D1{slash}TX-Pad16)*%
X76595000Y-70380000D03*
%TO.P,A1,17,D2*%
%TO.N,unconnected-(A1-D2-Pad17)*%
X74055000Y-70380000D03*
%TO.P,A1,18,D3*%
%TO.N,unconnected-(A1-D3-Pad18)*%
X71515000Y-70380000D03*
%TO.P,A1,19,D4*%
%TO.N,unconnected-(A1-D4-Pad19)*%
X68975000Y-70380000D03*
%TO.P,A1,20,D5*%
%TO.N,unconnected-(A1-D5-Pad20)*%
X66435000Y-70380000D03*
%TO.P,A1,21,D6*%
%TO.N,unconnected-(A1-D6-Pad21)*%
X63895000Y-70380000D03*
%TO.P,A1,22,D7*%
%TO.N,unconnected-(A1-D7-Pad22)*%
X61355000Y-70380000D03*
%TO.P,A1,23,D8*%
%TO.N,unconnected-(A1-D8-Pad23)*%
X57295000Y-70380000D03*
%TO.P,A1,24,D9*%
%TO.N,D9*%
X54755000Y-70380000D03*
%TO.P,A1,25,D10*%
%TO.N,unconnected-(A1-D10-Pad25)*%
X52215000Y-70380000D03*
%TO.P,A1,26,D11*%
%TO.N,unconnected-(A1-D11-Pad26)*%
X49675000Y-70380000D03*
%TO.P,A1,27,D12*%
%TO.N,unconnected-(A1-D12-Pad27)*%
X47135000Y-70380000D03*
%TO.P,A1,28,D13*%
%TO.N,unconnected-(A1-D13-Pad28)*%
X44595000Y-70380000D03*
%TO.P,A1,29,GND*%
%TO.N,GND*%
X42055000Y-70380000D03*
%TO.P,A1,30,AREF*%
%TO.N,unconnected-(A1-AREF-Pad30)*%
X39515000Y-70380000D03*
%TO.P,A1,31,SDA/A4*%
%TO.N,unconnected-(A1-SDA{slash}A4-Pad31)*%
X36975000Y-70380000D03*
%TO.P,A1,32,SCL/A5*%
%TO.N,unconnected-(A1-SCL{slash}A5-Pad32)*%
X34435000Y-70380000D03*
%TD*%
D17*
%TO.N,D9*%
X67075000Y-82700000D02*
X54755000Y-70380000D01*
X71500000Y-84000000D02*
X70200000Y-82700000D01*
X70200000Y-82700000D02*
X67075000Y-82700000D01*
%TO.N,vccarduino*%
X40805000Y-35050000D02*
X53735000Y-22120000D01*
X40805000Y-83885000D02*
X40805000Y-35050000D01*
X41170000Y-84250000D02*
X40805000Y-83885000D01*
%TD*%
M02*
