M48
; DRILL file {KiCad 8.0.6} date 2025-08-08T18:32:25+0200
; FORMAT={-:-/ absolute / inch / decimal}
; #@! TF.CreationDate,2025-08-08T18:32:25+02:00
; #@! TF.GenerationSoftware,Kicad,Pcbnew,8.0.6
; #@! TF.FileFunction,Plated,1,2,PTH
FMAT,2
INCH
; #@! TA.AperFunction,Plated,PTH,ComponentDrill
T1C0.0394
%
G90
G05
T1
X1.3557Y-2.7709
X1.4557Y-2.7709
X1.5209Y-3.3169
X1.5557Y-2.7709
X1.6209Y-3.3169
X1.6557Y-2.7709
X1.7156Y-0.8709
X1.7209Y-3.3169
X1.7557Y-2.7709
X1.8156Y-0.8709
X1.8209Y-3.3169
X1.8557Y-2.7709
X1.9156Y-0.8709
X1.9209Y-3.3169
X1.9557Y-2.7709
X2.0156Y-0.8709
X2.0557Y-2.7709
X2.1156Y-0.8709
X2.1557Y-2.7709
X2.2156Y-0.8709
X2.2557Y-2.7709
X2.3156Y-0.8709
X2.4156Y-0.8709
X2.4156Y-2.7709
X2.5156Y-2.7709
X2.615Y-3.3071
X2.6156Y-0.8709
X2.6156Y-2.7709
X2.715Y-3.3071
X2.7156Y-0.8709
X2.7156Y-2.7709
X2.815Y-3.3071
X2.8156Y-0.8709
X2.8156Y-2.7709
X2.9156Y-0.8709
X2.9156Y-2.7709
X3.0156Y-0.8709
X3.0156Y-2.7709
X3.1156Y-0.8709
X3.1156Y-2.7709
T1
G00X0.8772Y-3.127
M15
G01X0.8772Y-3.2057
M16
G05
G00X0.9559Y-3.3514
M15
G01X1.0346Y-3.3514
M16
G05
G00X1.1134Y-3.127
M15
G01X1.1134Y-3.2057
M16
G05
M30
