%TF.GenerationSoftware,KiCad,Pcbnew,8.0.6*%
%TF.CreationDate,2025-08-08T18:32:28+02:00*%
%TF.ProjectId,arduinojoystick controlling,61726475-696e-46f6-9a6f-79737469636b,rev?*%
%TF.SameCoordinates,Original*%
%TF.FileFunction,Drillmap*%
%TF.FilePolarity,Positive*%
%FSLAX45Y45*%
G04 Gerber Fmt 4.5, Leading zero omitted, Abs format (unit mm)*
G04 Created by KiCad (PCBNEW 8.0.6) date 2025-08-08 18:32:28*
%MOMM*%
%LPD*%
G01*
G04 APERTURE LIST*
%ADD10C,0.050000*%
%ADD11C,0.200000*%
%ADD12C,0.100000*%
G04 APERTURE END LIST*
D10*
X1050000Y-1650000D02*
X8850000Y-1650000D01*
X8850000Y-10750000D01*
X1050000Y-10750000D01*
X1050000Y-1650000D01*
D11*
D12*
X2178000Y-7992500D02*
X2278000Y-8092500D01*
X2278000Y-7992500D02*
X2178000Y-8092500D01*
X2178000Y-7942500D02*
X2178000Y-8142500D01*
X2278000Y-8142500D02*
G75*
G02*
X2178000Y-8142500I-50000J0D01*
G01*
X2278000Y-8142500D02*
X2278000Y-7942500D01*
X2278000Y-7942500D02*
G75*
G03*
X2178000Y-7942500I-50000J0D01*
G01*
X2478000Y-8462500D02*
X2578000Y-8562500D01*
X2578000Y-8462500D02*
X2478000Y-8562500D01*
X2428000Y-8562500D02*
X2628000Y-8562500D01*
X2628000Y-8462500D02*
G75*
G02*
X2628000Y-8562500I0J-50000D01*
G01*
X2628000Y-8462500D02*
X2428000Y-8462500D01*
X2428000Y-8462500D02*
G75*
G03*
X2428000Y-8562500I0J-50000D01*
G01*
X2778000Y-7992500D02*
X2878000Y-8092500D01*
X2878000Y-7992500D02*
X2778000Y-8092500D01*
X2778000Y-7942500D02*
X2778000Y-8142500D01*
X2878000Y-8142500D02*
G75*
G02*
X2778000Y-8142500I-50000J0D01*
G01*
X2878000Y-8142500D02*
X2878000Y-7942500D01*
X2878000Y-7942500D02*
G75*
G03*
X2778000Y-7942500I-50000J0D01*
G01*
X3393500Y-6988000D02*
X3493500Y-7088000D01*
X3493500Y-6988000D02*
X3393500Y-7088000D01*
X3647500Y-6988000D02*
X3747500Y-7088000D01*
X3747500Y-6988000D02*
X3647500Y-7088000D01*
X3813000Y-8375000D02*
X3913000Y-8475000D01*
X3913000Y-8375000D02*
X3813000Y-8475000D01*
X3901500Y-6988000D02*
X4001500Y-7088000D01*
X4001500Y-6988000D02*
X3901500Y-7088000D01*
X4067000Y-8375000D02*
X4167000Y-8475000D01*
X4167000Y-8375000D02*
X4067000Y-8475000D01*
X4155500Y-6988000D02*
X4255500Y-7088000D01*
X4255500Y-6988000D02*
X4155500Y-7088000D01*
X4307500Y-2162000D02*
X4407500Y-2262000D01*
X4407500Y-2162000D02*
X4307500Y-2262000D01*
X4321000Y-8375000D02*
X4421000Y-8475000D01*
X4421000Y-8375000D02*
X4321000Y-8475000D01*
X4409500Y-6988000D02*
X4509500Y-7088000D01*
X4509500Y-6988000D02*
X4409500Y-7088000D01*
X4561500Y-2162000D02*
X4661500Y-2262000D01*
X4661500Y-2162000D02*
X4561500Y-2262000D01*
X4575000Y-8375000D02*
X4675000Y-8475000D01*
X4675000Y-8375000D02*
X4575000Y-8475000D01*
X4663500Y-6988000D02*
X4763500Y-7088000D01*
X4763500Y-6988000D02*
X4663500Y-7088000D01*
X4815500Y-2162000D02*
X4915500Y-2262000D01*
X4915500Y-2162000D02*
X4815500Y-2262000D01*
X4829000Y-8375000D02*
X4929000Y-8475000D01*
X4929000Y-8375000D02*
X4829000Y-8475000D01*
X4917500Y-6988000D02*
X5017500Y-7088000D01*
X5017500Y-6988000D02*
X4917500Y-7088000D01*
X5069500Y-2162000D02*
X5169500Y-2262000D01*
X5169500Y-2162000D02*
X5069500Y-2262000D01*
X5171500Y-6988000D02*
X5271500Y-7088000D01*
X5271500Y-6988000D02*
X5171500Y-7088000D01*
X5323500Y-2162000D02*
X5423500Y-2262000D01*
X5423500Y-2162000D02*
X5323500Y-2262000D01*
X5425500Y-6988000D02*
X5525500Y-7088000D01*
X5525500Y-6988000D02*
X5425500Y-7088000D01*
X5577500Y-2162000D02*
X5677500Y-2262000D01*
X5677500Y-2162000D02*
X5577500Y-2262000D01*
X5679500Y-6988000D02*
X5779500Y-7088000D01*
X5779500Y-6988000D02*
X5679500Y-7088000D01*
X5831500Y-2162000D02*
X5931500Y-2262000D01*
X5931500Y-2162000D02*
X5831500Y-2262000D01*
X6085500Y-2162000D02*
X6185500Y-2262000D01*
X6185500Y-2162000D02*
X6085500Y-2262000D01*
X6085500Y-6988000D02*
X6185500Y-7088000D01*
X6185500Y-6988000D02*
X6085500Y-7088000D01*
X6339500Y-6988000D02*
X6439500Y-7088000D01*
X6439500Y-6988000D02*
X6339500Y-7088000D01*
X6592000Y-8350000D02*
X6692000Y-8450000D01*
X6692000Y-8350000D02*
X6592000Y-8450000D01*
X6593500Y-2162000D02*
X6693500Y-2262000D01*
X6693500Y-2162000D02*
X6593500Y-2262000D01*
X6593500Y-6988000D02*
X6693500Y-7088000D01*
X6693500Y-6988000D02*
X6593500Y-7088000D01*
X6846000Y-8350000D02*
X6946000Y-8450000D01*
X6946000Y-8350000D02*
X6846000Y-8450000D01*
X6847500Y-2162000D02*
X6947500Y-2262000D01*
X6947500Y-2162000D02*
X6847500Y-2262000D01*
X6847500Y-6988000D02*
X6947500Y-7088000D01*
X6947500Y-6988000D02*
X6847500Y-7088000D01*
X7100000Y-8350000D02*
X7200000Y-8450000D01*
X7200000Y-8350000D02*
X7100000Y-8450000D01*
X7101500Y-2162000D02*
X7201500Y-2262000D01*
X7201500Y-2162000D02*
X7101500Y-2262000D01*
X7101500Y-6988000D02*
X7201500Y-7088000D01*
X7201500Y-6988000D02*
X7101500Y-7088000D01*
X7355500Y-2162000D02*
X7455500Y-2262000D01*
X7455500Y-2162000D02*
X7355500Y-2262000D01*
X7355500Y-6988000D02*
X7455500Y-7088000D01*
X7455500Y-6988000D02*
X7355500Y-7088000D01*
X7609500Y-2162000D02*
X7709500Y-2262000D01*
X7709500Y-2162000D02*
X7609500Y-2262000D01*
X7609500Y-6988000D02*
X7709500Y-7088000D01*
X7709500Y-6988000D02*
X7609500Y-7088000D01*
X7863500Y-2162000D02*
X7963500Y-2262000D01*
X7963500Y-2162000D02*
X7863500Y-2262000D01*
X7863500Y-6988000D02*
X7963500Y-7088000D01*
X7963500Y-6988000D02*
X7863500Y-7088000D01*
D11*
X1308277Y-11063984D02*
X1308277Y-10863984D01*
X1308277Y-10863984D02*
X1355896Y-10863984D01*
X1355896Y-10863984D02*
X1384467Y-10873508D01*
X1384467Y-10873508D02*
X1403515Y-10892555D01*
X1403515Y-10892555D02*
X1413039Y-10911603D01*
X1413039Y-10911603D02*
X1422562Y-10949698D01*
X1422562Y-10949698D02*
X1422562Y-10978270D01*
X1422562Y-10978270D02*
X1413039Y-11016365D01*
X1413039Y-11016365D02*
X1403515Y-11035412D01*
X1403515Y-11035412D02*
X1384467Y-11054460D01*
X1384467Y-11054460D02*
X1355896Y-11063984D01*
X1355896Y-11063984D02*
X1308277Y-11063984D01*
X1508277Y-11063984D02*
X1508277Y-10930650D01*
X1508277Y-10968746D02*
X1517801Y-10949698D01*
X1517801Y-10949698D02*
X1527324Y-10940174D01*
X1527324Y-10940174D02*
X1546372Y-10930650D01*
X1546372Y-10930650D02*
X1565420Y-10930650D01*
X1632086Y-11063984D02*
X1632086Y-10930650D01*
X1632086Y-10863984D02*
X1622562Y-10873508D01*
X1622562Y-10873508D02*
X1632086Y-10883031D01*
X1632086Y-10883031D02*
X1641610Y-10873508D01*
X1641610Y-10873508D02*
X1632086Y-10863984D01*
X1632086Y-10863984D02*
X1632086Y-10883031D01*
X1755896Y-11063984D02*
X1736848Y-11054460D01*
X1736848Y-11054460D02*
X1727324Y-11035412D01*
X1727324Y-11035412D02*
X1727324Y-10863984D01*
X1860658Y-11063984D02*
X1841610Y-11054460D01*
X1841610Y-11054460D02*
X1832086Y-11035412D01*
X1832086Y-11035412D02*
X1832086Y-10863984D01*
X2089229Y-11063984D02*
X2089229Y-10863984D01*
X2089229Y-10863984D02*
X2155896Y-11006841D01*
X2155896Y-11006841D02*
X2222563Y-10863984D01*
X2222563Y-10863984D02*
X2222563Y-11063984D01*
X2403515Y-11063984D02*
X2403515Y-10959222D01*
X2403515Y-10959222D02*
X2393991Y-10940174D01*
X2393991Y-10940174D02*
X2374944Y-10930650D01*
X2374944Y-10930650D02*
X2336848Y-10930650D01*
X2336848Y-10930650D02*
X2317801Y-10940174D01*
X2403515Y-11054460D02*
X2384467Y-11063984D01*
X2384467Y-11063984D02*
X2336848Y-11063984D01*
X2336848Y-11063984D02*
X2317801Y-11054460D01*
X2317801Y-11054460D02*
X2308277Y-11035412D01*
X2308277Y-11035412D02*
X2308277Y-11016365D01*
X2308277Y-11016365D02*
X2317801Y-10997317D01*
X2317801Y-10997317D02*
X2336848Y-10987793D01*
X2336848Y-10987793D02*
X2384467Y-10987793D01*
X2384467Y-10987793D02*
X2403515Y-10978270D01*
X2498753Y-10930650D02*
X2498753Y-11130650D01*
X2498753Y-10940174D02*
X2517801Y-10930650D01*
X2517801Y-10930650D02*
X2555896Y-10930650D01*
X2555896Y-10930650D02*
X2574944Y-10940174D01*
X2574944Y-10940174D02*
X2584467Y-10949698D01*
X2584467Y-10949698D02*
X2593991Y-10968746D01*
X2593991Y-10968746D02*
X2593991Y-11025889D01*
X2593991Y-11025889D02*
X2584467Y-11044936D01*
X2584467Y-11044936D02*
X2574944Y-11054460D01*
X2574944Y-11054460D02*
X2555896Y-11063984D01*
X2555896Y-11063984D02*
X2517801Y-11063984D01*
X2517801Y-11063984D02*
X2498753Y-11054460D01*
X2679705Y-11044936D02*
X2689229Y-11054460D01*
X2689229Y-11054460D02*
X2679705Y-11063984D01*
X2679705Y-11063984D02*
X2670182Y-11054460D01*
X2670182Y-11054460D02*
X2679705Y-11044936D01*
X2679705Y-11044936D02*
X2679705Y-11063984D01*
X2679705Y-10940174D02*
X2689229Y-10949698D01*
X2689229Y-10949698D02*
X2679705Y-10959222D01*
X2679705Y-10959222D02*
X2670182Y-10949698D01*
X2670182Y-10949698D02*
X2679705Y-10940174D01*
X2679705Y-10940174D02*
X2679705Y-10959222D01*
D12*
X947500Y-11342500D02*
X1047500Y-11442500D01*
X1047500Y-11342500D02*
X947500Y-11442500D01*
D11*
X1413039Y-11483984D02*
X1298753Y-11483984D01*
X1355896Y-11483984D02*
X1355896Y-11283984D01*
X1355896Y-11283984D02*
X1336848Y-11312555D01*
X1336848Y-11312555D02*
X1317801Y-11331603D01*
X1317801Y-11331603D02*
X1298753Y-11341127D01*
X1498753Y-11464936D02*
X1508277Y-11474460D01*
X1508277Y-11474460D02*
X1498753Y-11483984D01*
X1498753Y-11483984D02*
X1489229Y-11474460D01*
X1489229Y-11474460D02*
X1498753Y-11464936D01*
X1498753Y-11464936D02*
X1498753Y-11483984D01*
X1632086Y-11283984D02*
X1651134Y-11283984D01*
X1651134Y-11283984D02*
X1670182Y-11293508D01*
X1670182Y-11293508D02*
X1679705Y-11303031D01*
X1679705Y-11303031D02*
X1689229Y-11322079D01*
X1689229Y-11322079D02*
X1698753Y-11360174D01*
X1698753Y-11360174D02*
X1698753Y-11407793D01*
X1698753Y-11407793D02*
X1689229Y-11445888D01*
X1689229Y-11445888D02*
X1679705Y-11464936D01*
X1679705Y-11464936D02*
X1670182Y-11474460D01*
X1670182Y-11474460D02*
X1651134Y-11483984D01*
X1651134Y-11483984D02*
X1632086Y-11483984D01*
X1632086Y-11483984D02*
X1613039Y-11474460D01*
X1613039Y-11474460D02*
X1603515Y-11464936D01*
X1603515Y-11464936D02*
X1593991Y-11445888D01*
X1593991Y-11445888D02*
X1584467Y-11407793D01*
X1584467Y-11407793D02*
X1584467Y-11360174D01*
X1584467Y-11360174D02*
X1593991Y-11322079D01*
X1593991Y-11322079D02*
X1603515Y-11303031D01*
X1603515Y-11303031D02*
X1613039Y-11293508D01*
X1613039Y-11293508D02*
X1632086Y-11283984D01*
X1822562Y-11283984D02*
X1841610Y-11283984D01*
X1841610Y-11283984D02*
X1860658Y-11293508D01*
X1860658Y-11293508D02*
X1870182Y-11303031D01*
X1870182Y-11303031D02*
X1879705Y-11322079D01*
X1879705Y-11322079D02*
X1889229Y-11360174D01*
X1889229Y-11360174D02*
X1889229Y-11407793D01*
X1889229Y-11407793D02*
X1879705Y-11445888D01*
X1879705Y-11445888D02*
X1870182Y-11464936D01*
X1870182Y-11464936D02*
X1860658Y-11474460D01*
X1860658Y-11474460D02*
X1841610Y-11483984D01*
X1841610Y-11483984D02*
X1822562Y-11483984D01*
X1822562Y-11483984D02*
X1803515Y-11474460D01*
X1803515Y-11474460D02*
X1793991Y-11464936D01*
X1793991Y-11464936D02*
X1784467Y-11445888D01*
X1784467Y-11445888D02*
X1774943Y-11407793D01*
X1774943Y-11407793D02*
X1774943Y-11360174D01*
X1774943Y-11360174D02*
X1784467Y-11322079D01*
X1784467Y-11322079D02*
X1793991Y-11303031D01*
X1793991Y-11303031D02*
X1803515Y-11293508D01*
X1803515Y-11293508D02*
X1822562Y-11283984D01*
X2013039Y-11283984D02*
X2032086Y-11283984D01*
X2032086Y-11283984D02*
X2051134Y-11293508D01*
X2051134Y-11293508D02*
X2060658Y-11303031D01*
X2060658Y-11303031D02*
X2070182Y-11322079D01*
X2070182Y-11322079D02*
X2079705Y-11360174D01*
X2079705Y-11360174D02*
X2079705Y-11407793D01*
X2079705Y-11407793D02*
X2070182Y-11445888D01*
X2070182Y-11445888D02*
X2060658Y-11464936D01*
X2060658Y-11464936D02*
X2051134Y-11474460D01*
X2051134Y-11474460D02*
X2032086Y-11483984D01*
X2032086Y-11483984D02*
X2013039Y-11483984D01*
X2013039Y-11483984D02*
X1993991Y-11474460D01*
X1993991Y-11474460D02*
X1984467Y-11464936D01*
X1984467Y-11464936D02*
X1974943Y-11445888D01*
X1974943Y-11445888D02*
X1965420Y-11407793D01*
X1965420Y-11407793D02*
X1965420Y-11360174D01*
X1965420Y-11360174D02*
X1974943Y-11322079D01*
X1974943Y-11322079D02*
X1984467Y-11303031D01*
X1984467Y-11303031D02*
X1993991Y-11293508D01*
X1993991Y-11293508D02*
X2013039Y-11283984D01*
X2165420Y-11483984D02*
X2165420Y-11350650D01*
X2165420Y-11369698D02*
X2174944Y-11360174D01*
X2174944Y-11360174D02*
X2193991Y-11350650D01*
X2193991Y-11350650D02*
X2222563Y-11350650D01*
X2222563Y-11350650D02*
X2241610Y-11360174D01*
X2241610Y-11360174D02*
X2251134Y-11379222D01*
X2251134Y-11379222D02*
X2251134Y-11483984D01*
X2251134Y-11379222D02*
X2260658Y-11360174D01*
X2260658Y-11360174D02*
X2279705Y-11350650D01*
X2279705Y-11350650D02*
X2308277Y-11350650D01*
X2308277Y-11350650D02*
X2327325Y-11360174D01*
X2327325Y-11360174D02*
X2336848Y-11379222D01*
X2336848Y-11379222D02*
X2336848Y-11483984D01*
X2432086Y-11483984D02*
X2432086Y-11350650D01*
X2432086Y-11369698D02*
X2441610Y-11360174D01*
X2441610Y-11360174D02*
X2460658Y-11350650D01*
X2460658Y-11350650D02*
X2489229Y-11350650D01*
X2489229Y-11350650D02*
X2508277Y-11360174D01*
X2508277Y-11360174D02*
X2517801Y-11379222D01*
X2517801Y-11379222D02*
X2517801Y-11483984D01*
X2517801Y-11379222D02*
X2527325Y-11360174D01*
X2527325Y-11360174D02*
X2546372Y-11350650D01*
X2546372Y-11350650D02*
X2574944Y-11350650D01*
X2574944Y-11350650D02*
X2593991Y-11360174D01*
X2593991Y-11360174D02*
X2603515Y-11379222D01*
X2603515Y-11379222D02*
X2603515Y-11483984D01*
X2993991Y-11274460D02*
X2822563Y-11531603D01*
X3251134Y-11283984D02*
X3270182Y-11283984D01*
X3270182Y-11283984D02*
X3289229Y-11293508D01*
X3289229Y-11293508D02*
X3298753Y-11303031D01*
X3298753Y-11303031D02*
X3308277Y-11322079D01*
X3308277Y-11322079D02*
X3317801Y-11360174D01*
X3317801Y-11360174D02*
X3317801Y-11407793D01*
X3317801Y-11407793D02*
X3308277Y-11445888D01*
X3308277Y-11445888D02*
X3298753Y-11464936D01*
X3298753Y-11464936D02*
X3289229Y-11474460D01*
X3289229Y-11474460D02*
X3270182Y-11483984D01*
X3270182Y-11483984D02*
X3251134Y-11483984D01*
X3251134Y-11483984D02*
X3232086Y-11474460D01*
X3232086Y-11474460D02*
X3222563Y-11464936D01*
X3222563Y-11464936D02*
X3213039Y-11445888D01*
X3213039Y-11445888D02*
X3203515Y-11407793D01*
X3203515Y-11407793D02*
X3203515Y-11360174D01*
X3203515Y-11360174D02*
X3213039Y-11322079D01*
X3213039Y-11322079D02*
X3222563Y-11303031D01*
X3222563Y-11303031D02*
X3232086Y-11293508D01*
X3232086Y-11293508D02*
X3251134Y-11283984D01*
X3403515Y-11464936D02*
X3413039Y-11474460D01*
X3413039Y-11474460D02*
X3403515Y-11483984D01*
X3403515Y-11483984D02*
X3393991Y-11474460D01*
X3393991Y-11474460D02*
X3403515Y-11464936D01*
X3403515Y-11464936D02*
X3403515Y-11483984D01*
X3536848Y-11283984D02*
X3555896Y-11283984D01*
X3555896Y-11283984D02*
X3574944Y-11293508D01*
X3574944Y-11293508D02*
X3584467Y-11303031D01*
X3584467Y-11303031D02*
X3593991Y-11322079D01*
X3593991Y-11322079D02*
X3603515Y-11360174D01*
X3603515Y-11360174D02*
X3603515Y-11407793D01*
X3603515Y-11407793D02*
X3593991Y-11445888D01*
X3593991Y-11445888D02*
X3584467Y-11464936D01*
X3584467Y-11464936D02*
X3574944Y-11474460D01*
X3574944Y-11474460D02*
X3555896Y-11483984D01*
X3555896Y-11483984D02*
X3536848Y-11483984D01*
X3536848Y-11483984D02*
X3517801Y-11474460D01*
X3517801Y-11474460D02*
X3508277Y-11464936D01*
X3508277Y-11464936D02*
X3498753Y-11445888D01*
X3498753Y-11445888D02*
X3489229Y-11407793D01*
X3489229Y-11407793D02*
X3489229Y-11360174D01*
X3489229Y-11360174D02*
X3498753Y-11322079D01*
X3498753Y-11322079D02*
X3508277Y-11303031D01*
X3508277Y-11303031D02*
X3517801Y-11293508D01*
X3517801Y-11293508D02*
X3536848Y-11283984D01*
X3670182Y-11283984D02*
X3793991Y-11283984D01*
X3793991Y-11283984D02*
X3727325Y-11360174D01*
X3727325Y-11360174D02*
X3755896Y-11360174D01*
X3755896Y-11360174D02*
X3774944Y-11369698D01*
X3774944Y-11369698D02*
X3784467Y-11379222D01*
X3784467Y-11379222D02*
X3793991Y-11398269D01*
X3793991Y-11398269D02*
X3793991Y-11445888D01*
X3793991Y-11445888D02*
X3784467Y-11464936D01*
X3784467Y-11464936D02*
X3774944Y-11474460D01*
X3774944Y-11474460D02*
X3755896Y-11483984D01*
X3755896Y-11483984D02*
X3698753Y-11483984D01*
X3698753Y-11483984D02*
X3679706Y-11474460D01*
X3679706Y-11474460D02*
X3670182Y-11464936D01*
X3889229Y-11483984D02*
X3927325Y-11483984D01*
X3927325Y-11483984D02*
X3946372Y-11474460D01*
X3946372Y-11474460D02*
X3955896Y-11464936D01*
X3955896Y-11464936D02*
X3974944Y-11436365D01*
X3974944Y-11436365D02*
X3984467Y-11398269D01*
X3984467Y-11398269D02*
X3984467Y-11322079D01*
X3984467Y-11322079D02*
X3974944Y-11303031D01*
X3974944Y-11303031D02*
X3965420Y-11293508D01*
X3965420Y-11293508D02*
X3946372Y-11283984D01*
X3946372Y-11283984D02*
X3908277Y-11283984D01*
X3908277Y-11283984D02*
X3889229Y-11293508D01*
X3889229Y-11293508D02*
X3879706Y-11303031D01*
X3879706Y-11303031D02*
X3870182Y-11322079D01*
X3870182Y-11322079D02*
X3870182Y-11369698D01*
X3870182Y-11369698D02*
X3879706Y-11388746D01*
X3879706Y-11388746D02*
X3889229Y-11398269D01*
X3889229Y-11398269D02*
X3908277Y-11407793D01*
X3908277Y-11407793D02*
X3946372Y-11407793D01*
X3946372Y-11407793D02*
X3965420Y-11398269D01*
X3965420Y-11398269D02*
X3974944Y-11388746D01*
X3974944Y-11388746D02*
X3984467Y-11369698D01*
X4155896Y-11350650D02*
X4155896Y-11483984D01*
X4108277Y-11274460D02*
X4060658Y-11417317D01*
X4060658Y-11417317D02*
X4184467Y-11417317D01*
X4251134Y-11283984D02*
X4251134Y-11322079D01*
X4327325Y-11283984D02*
X4327325Y-11322079D01*
X4622563Y-11560174D02*
X4613039Y-11550650D01*
X4613039Y-11550650D02*
X4593991Y-11522079D01*
X4593991Y-11522079D02*
X4584468Y-11503031D01*
X4584468Y-11503031D02*
X4574944Y-11474460D01*
X4574944Y-11474460D02*
X4565420Y-11426841D01*
X4565420Y-11426841D02*
X4565420Y-11388746D01*
X4565420Y-11388746D02*
X4574944Y-11341127D01*
X4574944Y-11341127D02*
X4584468Y-11312555D01*
X4584468Y-11312555D02*
X4593991Y-11293508D01*
X4593991Y-11293508D02*
X4613039Y-11264936D01*
X4613039Y-11264936D02*
X4622563Y-11255412D01*
X4784468Y-11350650D02*
X4784468Y-11483984D01*
X4736849Y-11274460D02*
X4689230Y-11417317D01*
X4689230Y-11417317D02*
X4813039Y-11417317D01*
X4927325Y-11283984D02*
X4946372Y-11283984D01*
X4946372Y-11283984D02*
X4965420Y-11293508D01*
X4965420Y-11293508D02*
X4974944Y-11303031D01*
X4974944Y-11303031D02*
X4984468Y-11322079D01*
X4984468Y-11322079D02*
X4993991Y-11360174D01*
X4993991Y-11360174D02*
X4993991Y-11407793D01*
X4993991Y-11407793D02*
X4984468Y-11445888D01*
X4984468Y-11445888D02*
X4974944Y-11464936D01*
X4974944Y-11464936D02*
X4965420Y-11474460D01*
X4965420Y-11474460D02*
X4946372Y-11483984D01*
X4946372Y-11483984D02*
X4927325Y-11483984D01*
X4927325Y-11483984D02*
X4908277Y-11474460D01*
X4908277Y-11474460D02*
X4898753Y-11464936D01*
X4898753Y-11464936D02*
X4889230Y-11445888D01*
X4889230Y-11445888D02*
X4879706Y-11407793D01*
X4879706Y-11407793D02*
X4879706Y-11360174D01*
X4879706Y-11360174D02*
X4889230Y-11322079D01*
X4889230Y-11322079D02*
X4898753Y-11303031D01*
X4898753Y-11303031D02*
X4908277Y-11293508D01*
X4908277Y-11293508D02*
X4927325Y-11283984D01*
X5232087Y-11483984D02*
X5232087Y-11283984D01*
X5317801Y-11483984D02*
X5317801Y-11379222D01*
X5317801Y-11379222D02*
X5308277Y-11360174D01*
X5308277Y-11360174D02*
X5289230Y-11350650D01*
X5289230Y-11350650D02*
X5260658Y-11350650D01*
X5260658Y-11350650D02*
X5241611Y-11360174D01*
X5241611Y-11360174D02*
X5232087Y-11369698D01*
X5441611Y-11483984D02*
X5422563Y-11474460D01*
X5422563Y-11474460D02*
X5413039Y-11464936D01*
X5413039Y-11464936D02*
X5403515Y-11445888D01*
X5403515Y-11445888D02*
X5403515Y-11388746D01*
X5403515Y-11388746D02*
X5413039Y-11369698D01*
X5413039Y-11369698D02*
X5422563Y-11360174D01*
X5422563Y-11360174D02*
X5441611Y-11350650D01*
X5441611Y-11350650D02*
X5470182Y-11350650D01*
X5470182Y-11350650D02*
X5489230Y-11360174D01*
X5489230Y-11360174D02*
X5498753Y-11369698D01*
X5498753Y-11369698D02*
X5508277Y-11388746D01*
X5508277Y-11388746D02*
X5508277Y-11445888D01*
X5508277Y-11445888D02*
X5498753Y-11464936D01*
X5498753Y-11464936D02*
X5489230Y-11474460D01*
X5489230Y-11474460D02*
X5470182Y-11483984D01*
X5470182Y-11483984D02*
X5441611Y-11483984D01*
X5622563Y-11483984D02*
X5603515Y-11474460D01*
X5603515Y-11474460D02*
X5593991Y-11455412D01*
X5593991Y-11455412D02*
X5593991Y-11283984D01*
X5774944Y-11474460D02*
X5755896Y-11483984D01*
X5755896Y-11483984D02*
X5717801Y-11483984D01*
X5717801Y-11483984D02*
X5698753Y-11474460D01*
X5698753Y-11474460D02*
X5689230Y-11455412D01*
X5689230Y-11455412D02*
X5689230Y-11379222D01*
X5689230Y-11379222D02*
X5698753Y-11360174D01*
X5698753Y-11360174D02*
X5717801Y-11350650D01*
X5717801Y-11350650D02*
X5755896Y-11350650D01*
X5755896Y-11350650D02*
X5774944Y-11360174D01*
X5774944Y-11360174D02*
X5784468Y-11379222D01*
X5784468Y-11379222D02*
X5784468Y-11398269D01*
X5784468Y-11398269D02*
X5689230Y-11417317D01*
X5860658Y-11474460D02*
X5879706Y-11483984D01*
X5879706Y-11483984D02*
X5917801Y-11483984D01*
X5917801Y-11483984D02*
X5936849Y-11474460D01*
X5936849Y-11474460D02*
X5946372Y-11455412D01*
X5946372Y-11455412D02*
X5946372Y-11445888D01*
X5946372Y-11445888D02*
X5936849Y-11426841D01*
X5936849Y-11426841D02*
X5917801Y-11417317D01*
X5917801Y-11417317D02*
X5889230Y-11417317D01*
X5889230Y-11417317D02*
X5870182Y-11407793D01*
X5870182Y-11407793D02*
X5860658Y-11388746D01*
X5860658Y-11388746D02*
X5860658Y-11379222D01*
X5860658Y-11379222D02*
X5870182Y-11360174D01*
X5870182Y-11360174D02*
X5889230Y-11350650D01*
X5889230Y-11350650D02*
X5917801Y-11350650D01*
X5917801Y-11350650D02*
X5936849Y-11360174D01*
X6184468Y-11407793D02*
X6336849Y-11407793D01*
X6260658Y-11483984D02*
X6260658Y-11331603D01*
X6565420Y-11283984D02*
X6689230Y-11283984D01*
X6689230Y-11283984D02*
X6622563Y-11360174D01*
X6622563Y-11360174D02*
X6651134Y-11360174D01*
X6651134Y-11360174D02*
X6670182Y-11369698D01*
X6670182Y-11369698D02*
X6679706Y-11379222D01*
X6679706Y-11379222D02*
X6689230Y-11398269D01*
X6689230Y-11398269D02*
X6689230Y-11445888D01*
X6689230Y-11445888D02*
X6679706Y-11464936D01*
X6679706Y-11464936D02*
X6670182Y-11474460D01*
X6670182Y-11474460D02*
X6651134Y-11483984D01*
X6651134Y-11483984D02*
X6593992Y-11483984D01*
X6593992Y-11483984D02*
X6574944Y-11474460D01*
X6574944Y-11474460D02*
X6565420Y-11464936D01*
X6917801Y-11474460D02*
X6936849Y-11483984D01*
X6936849Y-11483984D02*
X6974944Y-11483984D01*
X6974944Y-11483984D02*
X6993992Y-11474460D01*
X6993992Y-11474460D02*
X7003515Y-11455412D01*
X7003515Y-11455412D02*
X7003515Y-11445888D01*
X7003515Y-11445888D02*
X6993992Y-11426841D01*
X6993992Y-11426841D02*
X6974944Y-11417317D01*
X6974944Y-11417317D02*
X6946373Y-11417317D01*
X6946373Y-11417317D02*
X6927325Y-11407793D01*
X6927325Y-11407793D02*
X6917801Y-11388746D01*
X6917801Y-11388746D02*
X6917801Y-11379222D01*
X6917801Y-11379222D02*
X6927325Y-11360174D01*
X6927325Y-11360174D02*
X6946373Y-11350650D01*
X6946373Y-11350650D02*
X6974944Y-11350650D01*
X6974944Y-11350650D02*
X6993992Y-11360174D01*
X7117801Y-11483984D02*
X7098754Y-11474460D01*
X7098754Y-11474460D02*
X7089230Y-11455412D01*
X7089230Y-11455412D02*
X7089230Y-11283984D01*
X7222563Y-11483984D02*
X7203515Y-11474460D01*
X7203515Y-11474460D02*
X7193992Y-11464936D01*
X7193992Y-11464936D02*
X7184468Y-11445888D01*
X7184468Y-11445888D02*
X7184468Y-11388746D01*
X7184468Y-11388746D02*
X7193992Y-11369698D01*
X7193992Y-11369698D02*
X7203515Y-11360174D01*
X7203515Y-11360174D02*
X7222563Y-11350650D01*
X7222563Y-11350650D02*
X7251135Y-11350650D01*
X7251135Y-11350650D02*
X7270182Y-11360174D01*
X7270182Y-11360174D02*
X7279706Y-11369698D01*
X7279706Y-11369698D02*
X7289230Y-11388746D01*
X7289230Y-11388746D02*
X7289230Y-11445888D01*
X7289230Y-11445888D02*
X7279706Y-11464936D01*
X7279706Y-11464936D02*
X7270182Y-11474460D01*
X7270182Y-11474460D02*
X7251135Y-11483984D01*
X7251135Y-11483984D02*
X7222563Y-11483984D01*
X7346373Y-11350650D02*
X7422563Y-11350650D01*
X7374944Y-11283984D02*
X7374944Y-11455412D01*
X7374944Y-11455412D02*
X7384468Y-11474460D01*
X7384468Y-11474460D02*
X7403515Y-11483984D01*
X7403515Y-11483984D02*
X7422563Y-11483984D01*
X7479706Y-11474460D02*
X7498754Y-11483984D01*
X7498754Y-11483984D02*
X7536849Y-11483984D01*
X7536849Y-11483984D02*
X7555896Y-11474460D01*
X7555896Y-11474460D02*
X7565420Y-11455412D01*
X7565420Y-11455412D02*
X7565420Y-11445888D01*
X7565420Y-11445888D02*
X7555896Y-11426841D01*
X7555896Y-11426841D02*
X7536849Y-11417317D01*
X7536849Y-11417317D02*
X7508277Y-11417317D01*
X7508277Y-11417317D02*
X7489230Y-11407793D01*
X7489230Y-11407793D02*
X7479706Y-11388746D01*
X7479706Y-11388746D02*
X7479706Y-11379222D01*
X7479706Y-11379222D02*
X7489230Y-11360174D01*
X7489230Y-11360174D02*
X7508277Y-11350650D01*
X7508277Y-11350650D02*
X7536849Y-11350650D01*
X7536849Y-11350650D02*
X7555896Y-11360174D01*
X7632087Y-11560174D02*
X7641611Y-11550650D01*
X7641611Y-11550650D02*
X7660658Y-11522079D01*
X7660658Y-11522079D02*
X7670182Y-11503031D01*
X7670182Y-11503031D02*
X7679706Y-11474460D01*
X7679706Y-11474460D02*
X7689230Y-11426841D01*
X7689230Y-11426841D02*
X7689230Y-11388746D01*
X7689230Y-11388746D02*
X7679706Y-11341127D01*
X7679706Y-11341127D02*
X7670182Y-11312555D01*
X7670182Y-11312555D02*
X7660658Y-11293508D01*
X7660658Y-11293508D02*
X7641611Y-11264936D01*
X7641611Y-11264936D02*
X7632087Y-11255412D01*
M02*
