%TF.GenerationSoftware,KiCad,Pcbnew,8.0.6*%
%TF.CreationDate,2025-08-08T18:32:04+02:00*%
%TF.ProjectId,arduinojoystick controlling,61726475-696e-46f6-9a6f-79737469636b,rev?*%
%TF.SameCoordinates,Original*%
%TF.FileFunction,Copper,L2,Bot*%
%TF.FilePolarity,Positive*%
%FSLAX46Y46*%
G04 Gerber Fmt 4.6, Leading zero omitted, Abs format (unit mm)*
G04 Created by KiCad (PCBNEW 8.0.6) date 2025-08-08 18:32:04*
%MOMM*%
%LPD*%
G01*
G04 APERTURE LIST*
G04 Aperture macros list*
%AMRoundRect*
0 Rectangle with rounded corners*
0 $1 Rounding radius*
0 $2 $3 $4 $5 $6 $7 $8 $9 X,Y pos of 4 corners*
0 Add a 4 corners polygon primitive as box body*
4,1,4,$2,$3,$4,$5,$6,$7,$8,$9,$2,$3,0*
0 Add four circle primitives for the rounded corners*
1,1,$1+$1,$2,$3*
1,1,$1+$1,$4,$5*
1,1,$1+$1,$6,$7*
1,1,$1+$1,$8,$9*
0 Add four rect primitives between the rounded corners*
20,1,$1+$1,$2,$3,$4,$5,0*
20,1,$1+$1,$4,$5,$6,$7,0*
20,1,$1+$1,$6,$7,$8,$9,0*
20,1,$1+$1,$8,$9,$2,$3,0*%
G04 Aperture macros list end*
%TA.AperFunction,NonConductor*%
%ADD10C,0.200000*%
%TD*%
%TA.AperFunction,ComponentPad*%
%ADD11R,1.700000X1.700000*%
%TD*%
%TA.AperFunction,ComponentPad*%
%ADD12O,1.700000X1.700000*%
%TD*%
%TA.AperFunction,ComponentPad*%
%ADD13R,3.500000X3.500000*%
%TD*%
%TA.AperFunction,ComponentPad*%
%ADD14RoundRect,0.750000X-0.750000X-1.000000X0.750000X-1.000000X0.750000X1.000000X-0.750000X1.000000X0*%
%TD*%
%TA.AperFunction,ComponentPad*%
%ADD15RoundRect,0.875000X-0.875000X-0.875000X0.875000X-0.875000X0.875000X0.875000X-0.875000X0.875000X0*%
%TD*%
%TA.AperFunction,ComponentPad*%
%ADD16R,1.600000X1.600000*%
%TD*%
%TA.AperFunction,ComponentPad*%
%ADD17O,1.600000X1.600000*%
%TD*%
%TA.AperFunction,Conductor*%
%ADD18C,0.500000*%
%TD*%
%TA.AperFunction,Conductor*%
%ADD19C,1.000000*%
%TD*%
G04 APERTURE END LIST*
D10*
X13250000Y-17750000D02*
X87250000Y-17750000D01*
X87250000Y-105000000D01*
X13250000Y-105000000D01*
X13250000Y-17750000D01*
D11*
%TO.P,M1,1,PWM*%
%TO.N,D9*%
X71500000Y-84000000D03*
D12*
%TO.P,M1,2,+*%
%TO.N,vccarduino*%
X68960000Y-84000000D03*
%TO.P,M1,3,-*%
%TO.N,GND*%
X66420000Y-84000000D03*
%TD*%
D11*
%TO.P,J2,1,Pin_1*%
%TO.N,GND*%
X38630000Y-84250000D03*
D12*
%TO.P,J2,2,Pin_2*%
%TO.N,vccarduino*%
X41170000Y-84250000D03*
%TO.P,J2,3,Pin_3*%
%TO.N,A0*%
X43710000Y-84250000D03*
%TO.P,J2,4,Pin_4*%
%TO.N,unconnected-(J2-Pin_4-Pad4)*%
X46250000Y-84250000D03*
%TO.P,J2,5,Pin_5*%
%TO.N,unconnected-(J2-Pin_5-Pad5)*%
X48790000Y-84250000D03*
%TD*%
D13*
%TO.P,J1,1*%
%TO.N,VCC*%
X28280000Y-80425000D03*
D14*
%TO.P,J1,2*%
%TO.N,GND*%
X22280000Y-80425000D03*
D15*
%TO.P,J1,3*%
X25280000Y-85125000D03*
%TD*%
D16*
%TO.P,A1,1,NC*%
%TO.N,unconnected-(A1-NC-Pad1)*%
X43575000Y-22120000D03*
D17*
%TO.P,A1,2,IOREF*%
%TO.N,unconnected-(A1-IOREF-Pad2)*%
X46115000Y-22120000D03*
%TO.P,A1,3,~{RESET}*%
%TO.N,unconnected-(A1-~{RESET}-Pad3)*%
X48655000Y-22120000D03*
%TO.P,A1,4,3V3*%
%TO.N,unconnected-(A1-3V3-Pad4)*%
X51195000Y-22120000D03*
%TO.P,A1,5,+5V*%
%TO.N,vccarduino*%
X53735000Y-22120000D03*
%TO.P,A1,6,GND*%
%TO.N,GND*%
X56275000Y-22120000D03*
%TO.P,A1,7,GND*%
X58815000Y-22120000D03*
%TO.P,A1,8,VIN*%
%TO.N,VCC*%
X61355000Y-22120000D03*
%TO.P,A1,9,A0*%
%TO.N,A0*%
X66435000Y-22120000D03*
%TO.P,A1,10,A1*%
%TO.N,unconnected-(A1-A1-Pad10)*%
X68975000Y-22120000D03*
%TO.P,A1,11,A2*%
%TO.N,unconnected-(A1-A2-Pad11)*%
X71515000Y-22120000D03*
%TO.P,A1,12,A3*%
%TO.N,unconnected-(A1-A3-Pad12)*%
X74055000Y-22120000D03*
%TO.P,A1,13,SDA/A4*%
%TO.N,unconnected-(A1-SDA{slash}A4-Pad13)*%
X76595000Y-22120000D03*
%TO.P,A1,14,SCL/A5*%
%TO.N,unconnected-(A1-SCL{slash}A5-Pad14)*%
X79135000Y-22120000D03*
%TO.P,A1,15,D0/RX*%
%TO.N,unconnected-(A1-D0{slash}RX-Pad15)*%
X79135000Y-70380000D03*
%TO.P,A1,16,D1/TX*%
%TO.N,unconnected-(A1-D1{slash}TX-Pad16)*%
X76595000Y-70380000D03*
%TO.P,A1,17,D2*%
%TO.N,unconnected-(A1-D2-Pad17)*%
X74055000Y-70380000D03*
%TO.P,A1,18,D3*%
%TO.N,unconnected-(A1-D3-Pad18)*%
X71515000Y-70380000D03*
%TO.P,A1,19,D4*%
%TO.N,unconnected-(A1-D4-Pad19)*%
X68975000Y-70380000D03*
%TO.P,A1,20,D5*%
%TO.N,unconnected-(A1-D5-Pad20)*%
X66435000Y-70380000D03*
%TO.P,A1,21,D6*%
%TO.N,unconnected-(A1-D6-Pad21)*%
X63895000Y-70380000D03*
%TO.P,A1,22,D7*%
%TO.N,unconnected-(A1-D7-Pad22)*%
X61355000Y-70380000D03*
%TO.P,A1,23,D8*%
%TO.N,unconnected-(A1-D8-Pad23)*%
X57295000Y-70380000D03*
%TO.P,A1,24,D9*%
%TO.N,D9*%
X54755000Y-70380000D03*
%TO.P,A1,25,D10*%
%TO.N,unconnected-(A1-D10-Pad25)*%
X52215000Y-70380000D03*
%TO.P,A1,26,D11*%
%TO.N,unconnected-(A1-D11-Pad26)*%
X49675000Y-70380000D03*
%TO.P,A1,27,D12*%
%TO.N,unconnected-(A1-D12-Pad27)*%
X47135000Y-70380000D03*
%TO.P,A1,28,D13*%
%TO.N,unconnected-(A1-D13-Pad28)*%
X44595000Y-70380000D03*
%TO.P,A1,29,GND*%
%TO.N,GND*%
X42055000Y-70380000D03*
%TO.P,A1,30,AREF*%
%TO.N,unconnected-(A1-AREF-Pad30)*%
X39515000Y-70380000D03*
%TO.P,A1,31,SDA/A4*%
%TO.N,unconnected-(A1-SDA{slash}A4-Pad31)*%
X36975000Y-70380000D03*
%TO.P,A1,32,SCL/A5*%
%TO.N,unconnected-(A1-SCL{slash}A5-Pad32)*%
X34435000Y-70380000D03*
%TD*%
D18*
%TO.N,A0*%
X50925000Y-37630000D02*
X66435000Y-22120000D01*
X50925000Y-77035000D02*
X50925000Y-37630000D01*
X43710000Y-84250000D02*
X50925000Y-77035000D01*
%TO.N,vccarduino*%
X67410000Y-85550000D02*
X68960000Y-84000000D01*
X42470000Y-85550000D02*
X67410000Y-85550000D01*
X41170000Y-84250000D02*
X42470000Y-85550000D01*
D19*
%TO.N,VCC*%
X28280000Y-55195000D02*
X61355000Y-22120000D01*
X28280000Y-80425000D02*
X28280000Y-55195000D01*
%TD*%
%TA.AperFunction,Conductor*%
%TO.N,GND*%
G36*
X58349075Y-21927007D02*
G01*
X58315000Y-22054174D01*
X58315000Y-22185826D01*
X58349075Y-22312993D01*
X58381988Y-22370000D01*
X56708012Y-22370000D01*
X56740925Y-22312993D01*
X56775000Y-22185826D01*
X56775000Y-22054174D01*
X56740925Y-21927007D01*
X56708012Y-21870000D01*
X58381988Y-21870000D01*
X58349075Y-21927007D01*
G37*
%TD.AperFunction*%
%TA.AperFunction,Conductor*%
G36*
X86592539Y-18370185D02*
G01*
X86638294Y-18422989D01*
X86649500Y-18474500D01*
X86649500Y-104275500D01*
X86629815Y-104342539D01*
X86577011Y-104388294D01*
X86525500Y-104399500D01*
X13974500Y-104399500D01*
X13907461Y-104379815D01*
X13861706Y-104327011D01*
X13850500Y-104275500D01*
X13850500Y-84156421D01*
X23030000Y-84156421D01*
X23030000Y-84875000D01*
X23846988Y-84875000D01*
X23814075Y-84932007D01*
X23780000Y-85059174D01*
X23780000Y-85190826D01*
X23814075Y-85317993D01*
X23846988Y-85375000D01*
X23030001Y-85375000D01*
X23030001Y-86093588D01*
X23032794Y-86146191D01*
X23077237Y-86375987D01*
X23159879Y-86594975D01*
X23278339Y-86796841D01*
X23278344Y-86796848D01*
X23429211Y-86975786D01*
X23429213Y-86975788D01*
X23608151Y-87126655D01*
X23608158Y-87126660D01*
X23810024Y-87245120D01*
X24029012Y-87327762D01*
X24258809Y-87372205D01*
X24311382Y-87374998D01*
X24311421Y-87374999D01*
X25029999Y-87374999D01*
X25030000Y-87374998D01*
X25030000Y-85625000D01*
X25530000Y-85625000D01*
X25530000Y-87374999D01*
X26248576Y-87374999D01*
X26248588Y-87374998D01*
X26301191Y-87372205D01*
X26530987Y-87327762D01*
X26749975Y-87245120D01*
X26951841Y-87126660D01*
X26951848Y-87126655D01*
X27130786Y-86975788D01*
X27130788Y-86975786D01*
X27281655Y-86796848D01*
X27281660Y-86796841D01*
X27400120Y-86594975D01*
X27482762Y-86375987D01*
X27527205Y-86146191D01*
X27527205Y-86146190D01*
X27529998Y-86093617D01*
X27530000Y-86093578D01*
X27530000Y-85375000D01*
X26713012Y-85375000D01*
X26745925Y-85317993D01*
X26780000Y-85190826D01*
X26780000Y-85059174D01*
X26745925Y-84932007D01*
X26713012Y-84875000D01*
X27529999Y-84875000D01*
X27529999Y-84156423D01*
X27529998Y-84156411D01*
X27527205Y-84103808D01*
X27482762Y-83874012D01*
X27400120Y-83655024D01*
X27281660Y-83453158D01*
X27281655Y-83453151D01*
X27130788Y-83274213D01*
X27130786Y-83274211D01*
X26951848Y-83123344D01*
X26951841Y-83123339D01*
X26749975Y-83004879D01*
X26530984Y-82922236D01*
X26525840Y-82921241D01*
X26463760Y-82889180D01*
X26428869Y-82828646D01*
X26432244Y-82758858D01*
X26472814Y-82701973D01*
X26537697Y-82676052D01*
X26549374Y-82675499D01*
X30077872Y-82675499D01*
X30137483Y-82669091D01*
X30272331Y-82618796D01*
X30387546Y-82532546D01*
X30473796Y-82417331D01*
X30524091Y-82282483D01*
X30530500Y-82222873D01*
X30530499Y-78627128D01*
X30524091Y-78567517D01*
X30484571Y-78461559D01*
X30473797Y-78432671D01*
X30473793Y-78432664D01*
X30387547Y-78317455D01*
X30387544Y-78317452D01*
X30272335Y-78231206D01*
X30272328Y-78231202D01*
X30137482Y-78180908D01*
X30137483Y-78180908D01*
X30077883Y-78174501D01*
X30077881Y-78174500D01*
X30077873Y-78174500D01*
X30077865Y-78174500D01*
X29404500Y-78174500D01*
X29337461Y-78154815D01*
X29291706Y-78102011D01*
X29280500Y-78050500D01*
X29280500Y-71701866D01*
X29300185Y-71634827D01*
X29352989Y-71589072D01*
X29422147Y-71579128D01*
X29485703Y-71608153D01*
X29492181Y-71614185D01*
X29652256Y-71774260D01*
X29652262Y-71774265D01*
X29844711Y-71921936D01*
X30054788Y-72043224D01*
X30278900Y-72136054D01*
X30513211Y-72198838D01*
X30693586Y-72222584D01*
X30753711Y-72230500D01*
X30753712Y-72230500D01*
X30996289Y-72230500D01*
X31044388Y-72224167D01*
X31236789Y-72198838D01*
X31471100Y-72136054D01*
X31695212Y-72043224D01*
X31905289Y-71921936D01*
X32097738Y-71774265D01*
X32269265Y-71602738D01*
X32416936Y-71410289D01*
X32538224Y-71200212D01*
X32631054Y-70976100D01*
X32693838Y-70741789D01*
X32725500Y-70501288D01*
X32725500Y-70379998D01*
X33129532Y-70379998D01*
X33129532Y-70380001D01*
X33149364Y-70606686D01*
X33149366Y-70606697D01*
X33208258Y-70826488D01*
X33208261Y-70826497D01*
X33304431Y-71032732D01*
X33304432Y-71032734D01*
X33434954Y-71219141D01*
X33595858Y-71380045D01*
X33595861Y-71380047D01*
X33782266Y-71510568D01*
X33988504Y-71606739D01*
X34208308Y-71665635D01*
X34370230Y-71679801D01*
X34434998Y-71685468D01*
X34435000Y-71685468D01*
X34435002Y-71685468D01*
X34491673Y-71680509D01*
X34661692Y-71665635D01*
X34881496Y-71606739D01*
X35087734Y-71510568D01*
X35274139Y-71380047D01*
X35435047Y-71219139D01*
X35565568Y-71032734D01*
X35592618Y-70974724D01*
X35638790Y-70922285D01*
X35705983Y-70903133D01*
X35772865Y-70923348D01*
X35817382Y-70974725D01*
X35844429Y-71032728D01*
X35844432Y-71032734D01*
X35974954Y-71219141D01*
X36135858Y-71380045D01*
X36135861Y-71380047D01*
X36322266Y-71510568D01*
X36528504Y-71606739D01*
X36748308Y-71665635D01*
X36910230Y-71679801D01*
X36974998Y-71685468D01*
X36975000Y-71685468D01*
X36975002Y-71685468D01*
X37031673Y-71680509D01*
X37201692Y-71665635D01*
X37421496Y-71606739D01*
X37627734Y-71510568D01*
X37814139Y-71380047D01*
X37975047Y-71219139D01*
X38105568Y-71032734D01*
X38132618Y-70974724D01*
X38178790Y-70922285D01*
X38245983Y-70903133D01*
X38312865Y-70923348D01*
X38357382Y-70974725D01*
X38384429Y-71032728D01*
X38384432Y-71032734D01*
X38514954Y-71219141D01*
X38675858Y-71380045D01*
X38675861Y-71380047D01*
X38862266Y-71510568D01*
X39068504Y-71606739D01*
X39288308Y-71665635D01*
X39450230Y-71679801D01*
X39514998Y-71685468D01*
X39515000Y-71685468D01*
X39515002Y-71685468D01*
X39571673Y-71680509D01*
X39741692Y-71665635D01*
X39961496Y-71606739D01*
X40167734Y-71510568D01*
X40354139Y-71380047D01*
X40515047Y-71219139D01*
X40645568Y-71032734D01*
X40672895Y-70974129D01*
X40719064Y-70921695D01*
X40786257Y-70902542D01*
X40853139Y-70922757D01*
X40897657Y-70974133D01*
X40924865Y-71032482D01*
X41055342Y-71218820D01*
X41216179Y-71379657D01*
X41402517Y-71510134D01*
X41608673Y-71606265D01*
X41608682Y-71606269D01*
X41804999Y-71658872D01*
X41805000Y-71658871D01*
X41805000Y-70813012D01*
X41862007Y-70845925D01*
X41989174Y-70880000D01*
X42120826Y-70880000D01*
X42247993Y-70845925D01*
X42305000Y-70813012D01*
X42305000Y-71658872D01*
X42501317Y-71606269D01*
X42501326Y-71606265D01*
X42707482Y-71510134D01*
X42893820Y-71379657D01*
X43054657Y-71218820D01*
X43185132Y-71032484D01*
X43212341Y-70974134D01*
X43258513Y-70921695D01*
X43325707Y-70902542D01*
X43392588Y-70922757D01*
X43437106Y-70974133D01*
X43464431Y-71032732D01*
X43464432Y-71032734D01*
X43594954Y-71219141D01*
X43755858Y-71380045D01*
X43755861Y-71380047D01*
X43942266Y-71510568D01*
X44148504Y-71606739D01*
X44368308Y-71665635D01*
X44530230Y-71679801D01*
X44594998Y-71685468D01*
X44595000Y-71685468D01*
X44595002Y-71685468D01*
X44651673Y-71680509D01*
X44821692Y-71665635D01*
X45041496Y-71606739D01*
X45247734Y-71510568D01*
X45434139Y-71380047D01*
X45595047Y-71219139D01*
X45725568Y-71032734D01*
X45752618Y-70974724D01*
X45798790Y-70922285D01*
X45865983Y-70903133D01*
X45932865Y-70923348D01*
X45977382Y-70974725D01*
X46004429Y-71032728D01*
X46004432Y-71032734D01*
X46134954Y-71219141D01*
X46295858Y-71380045D01*
X46295861Y-71380047D01*
X46482266Y-71510568D01*
X46688504Y-71606739D01*
X46908308Y-71665635D01*
X47070230Y-71679801D01*
X47134998Y-71685468D01*
X47135000Y-71685468D01*
X47135002Y-71685468D01*
X47191673Y-71680509D01*
X47361692Y-71665635D01*
X47581496Y-71606739D01*
X47787734Y-71510568D01*
X47974139Y-71380047D01*
X48135047Y-71219139D01*
X48265568Y-71032734D01*
X48292618Y-70974724D01*
X48338790Y-70922285D01*
X48405983Y-70903133D01*
X48472865Y-70923348D01*
X48517382Y-70974725D01*
X48544429Y-71032728D01*
X48544432Y-71032734D01*
X48674954Y-71219141D01*
X48835858Y-71380045D01*
X48835861Y-71380047D01*
X49022266Y-71510568D01*
X49228504Y-71606739D01*
X49448308Y-71665635D01*
X49610230Y-71679801D01*
X49674998Y-71685468D01*
X49675000Y-71685468D01*
X49675002Y-71685468D01*
X49731673Y-71680509D01*
X49901692Y-71665635D01*
X50018408Y-71634361D01*
X50088256Y-71636024D01*
X50146119Y-71675186D01*
X50173623Y-71739415D01*
X50174500Y-71754136D01*
X50174500Y-76672769D01*
X50154815Y-76739808D01*
X50138181Y-76760450D01*
X44021500Y-82877130D01*
X43960177Y-82910615D01*
X43923012Y-82912977D01*
X43710002Y-82894341D01*
X43709999Y-82894341D01*
X43474596Y-82914936D01*
X43474586Y-82914938D01*
X43246344Y-82976094D01*
X43246335Y-82976098D01*
X43032171Y-83075964D01*
X43032169Y-83075965D01*
X42838597Y-83211505D01*
X42671505Y-83378597D01*
X42541575Y-83564158D01*
X42486998Y-83607783D01*
X42417500Y-83614977D01*
X42355145Y-83583454D01*
X42338425Y-83564158D01*
X42208494Y-83378597D01*
X42041402Y-83211506D01*
X42041395Y-83211501D01*
X41847834Y-83075967D01*
X41847830Y-83075965D01*
X41776727Y-83042809D01*
X41633663Y-82976097D01*
X41633659Y-82976096D01*
X41633655Y-82976094D01*
X41405413Y-82914938D01*
X41405403Y-82914936D01*
X41170001Y-82894341D01*
X41169999Y-82894341D01*
X40934596Y-82914936D01*
X40934586Y-82914938D01*
X40706344Y-82976094D01*
X40706335Y-82976098D01*
X40492171Y-83075964D01*
X40492169Y-83075965D01*
X40298600Y-83211503D01*
X40176284Y-83333819D01*
X40114961Y-83367303D01*
X40045269Y-83362319D01*
X39989336Y-83320447D01*
X39972421Y-83289470D01*
X39923354Y-83157913D01*
X39923350Y-83157906D01*
X39837190Y-83042812D01*
X39837187Y-83042809D01*
X39722093Y-82956649D01*
X39722086Y-82956645D01*
X39587379Y-82906403D01*
X39587372Y-82906401D01*
X39527844Y-82900000D01*
X38880000Y-82900000D01*
X38880000Y-83816988D01*
X38822993Y-83784075D01*
X38695826Y-83750000D01*
X38564174Y-83750000D01*
X38437007Y-83784075D01*
X38380000Y-83816988D01*
X38380000Y-82900000D01*
X37732155Y-82900000D01*
X37672627Y-82906401D01*
X37672620Y-82906403D01*
X37537913Y-82956645D01*
X37537906Y-82956649D01*
X37422812Y-83042809D01*
X37422809Y-83042812D01*
X37336649Y-83157906D01*
X37336645Y-83157913D01*
X37286403Y-83292620D01*
X37286401Y-83292627D01*
X37280000Y-83352155D01*
X37280000Y-84000000D01*
X38196988Y-84000000D01*
X38164075Y-84057007D01*
X38130000Y-84184174D01*
X38130000Y-84315826D01*
X38164075Y-84442993D01*
X38196988Y-84500000D01*
X37280000Y-84500000D01*
X37280000Y-85147844D01*
X37286401Y-85207372D01*
X37286403Y-85207379D01*
X37336645Y-85342086D01*
X37336649Y-85342093D01*
X37422809Y-85457187D01*
X37422812Y-85457190D01*
X37537906Y-85543350D01*
X37537913Y-85543354D01*
X37672620Y-85593596D01*
X37672627Y-85593598D01*
X37732155Y-85599999D01*
X37732172Y-85600000D01*
X38380000Y-85600000D01*
X38380000Y-84683012D01*
X38437007Y-84715925D01*
X38564174Y-84750000D01*
X38695826Y-84750000D01*
X38822993Y-84715925D01*
X38880000Y-84683012D01*
X38880000Y-85600000D01*
X39527828Y-85600000D01*
X39527844Y-85599999D01*
X39587372Y-85593598D01*
X39587379Y-85593596D01*
X39722086Y-85543354D01*
X39722093Y-85543350D01*
X39837187Y-85457190D01*
X39837190Y-85457187D01*
X39923350Y-85342093D01*
X39923354Y-85342086D01*
X39972422Y-85210529D01*
X40014293Y-85154595D01*
X40079757Y-85130178D01*
X40148030Y-85145030D01*
X40176285Y-85166181D01*
X40298599Y-85288495D01*
X40353550Y-85326972D01*
X40492165Y-85424032D01*
X40492167Y-85424033D01*
X40492170Y-85424035D01*
X40706337Y-85523903D01*
X40706343Y-85523904D01*
X40706344Y-85523905D01*
X40761285Y-85538626D01*
X40934592Y-85585063D01*
X41122918Y-85601539D01*
X41169999Y-85605659D01*
X41170000Y-85605659D01*
X41170001Y-85605659D01*
X41212289Y-85601959D01*
X41383014Y-85587022D01*
X41451513Y-85600788D01*
X41481502Y-85622869D01*
X41887049Y-86028416D01*
X41991584Y-86132951D01*
X41991587Y-86132953D01*
X41991588Y-86132954D01*
X42114503Y-86215083D01*
X42114506Y-86215085D01*
X42171079Y-86238518D01*
X42171080Y-86238518D01*
X42251088Y-86271659D01*
X42367241Y-86294763D01*
X42386468Y-86298587D01*
X42396081Y-86300500D01*
X42396082Y-86300500D01*
X67483920Y-86300500D01*
X67581462Y-86281096D01*
X67628913Y-86271658D01*
X67765495Y-86215084D01*
X67814729Y-86182186D01*
X67888416Y-86132952D01*
X68648499Y-85372867D01*
X68709820Y-85339384D01*
X68746984Y-85337022D01*
X68901011Y-85350498D01*
X68959999Y-85355659D01*
X68960000Y-85355659D01*
X68960001Y-85355659D01*
X69018966Y-85350500D01*
X69195408Y-85335063D01*
X69423663Y-85273903D01*
X69637830Y-85174035D01*
X69831401Y-85038495D01*
X69953329Y-84916566D01*
X70014648Y-84883084D01*
X70084340Y-84888068D01*
X70140274Y-84929939D01*
X70157189Y-84960917D01*
X70206202Y-85092328D01*
X70206206Y-85092335D01*
X70292452Y-85207544D01*
X70292455Y-85207547D01*
X70407664Y-85293793D01*
X70407671Y-85293797D01*
X70542517Y-85344091D01*
X70542516Y-85344091D01*
X70549444Y-85344835D01*
X70602127Y-85350500D01*
X72397872Y-85350499D01*
X72457483Y-85344091D01*
X72592331Y-85293796D01*
X72707546Y-85207546D01*
X72793796Y-85092331D01*
X72844091Y-84957483D01*
X72850500Y-84897873D01*
X72850499Y-83102128D01*
X72844091Y-83042517D01*
X72842810Y-83039083D01*
X72793797Y-82907671D01*
X72793793Y-82907664D01*
X72707547Y-82792455D01*
X72707544Y-82792452D01*
X72592335Y-82706206D01*
X72592328Y-82706202D01*
X72457482Y-82655908D01*
X72457483Y-82655908D01*
X72397883Y-82649501D01*
X72397881Y-82649500D01*
X72397873Y-82649500D01*
X72397864Y-82649500D01*
X70602129Y-82649500D01*
X70602123Y-82649501D01*
X70542516Y-82655908D01*
X70407671Y-82706202D01*
X70407664Y-82706206D01*
X70292455Y-82792452D01*
X70292452Y-82792455D01*
X70206206Y-82907664D01*
X70206203Y-82907669D01*
X70157189Y-83039083D01*
X70115317Y-83095016D01*
X70049853Y-83119433D01*
X69981580Y-83104581D01*
X69953326Y-83083430D01*
X69831402Y-82961506D01*
X69831395Y-82961501D01*
X69637834Y-82825967D01*
X69637830Y-82825965D01*
X69609207Y-82812618D01*
X69423663Y-82726097D01*
X69423659Y-82726096D01*
X69423655Y-82726094D01*
X69195413Y-82664938D01*
X69195403Y-82664936D01*
X68960001Y-82644341D01*
X68959999Y-82644341D01*
X68724596Y-82664936D01*
X68724586Y-82664938D01*
X68496344Y-82726094D01*
X68496335Y-82726098D01*
X68282171Y-82825964D01*
X68282169Y-82825965D01*
X68088597Y-82961505D01*
X67921508Y-83128594D01*
X67791269Y-83314595D01*
X67736692Y-83358219D01*
X67667193Y-83365412D01*
X67604839Y-83333890D01*
X67588119Y-83314594D01*
X67458113Y-83128926D01*
X67458108Y-83128920D01*
X67291082Y-82961894D01*
X67097578Y-82826399D01*
X66883492Y-82726570D01*
X66883486Y-82726567D01*
X66670000Y-82669364D01*
X66670000Y-83566988D01*
X66612993Y-83534075D01*
X66485826Y-83500000D01*
X66354174Y-83500000D01*
X66227007Y-83534075D01*
X66170000Y-83566988D01*
X66170000Y-82669364D01*
X66169999Y-82669364D01*
X65956513Y-82726567D01*
X65956507Y-82726570D01*
X65742422Y-82826399D01*
X65742420Y-82826400D01*
X65548926Y-82961886D01*
X65548920Y-82961891D01*
X65381891Y-83128920D01*
X65381886Y-83128926D01*
X65246400Y-83322420D01*
X65246399Y-83322422D01*
X65146570Y-83536507D01*
X65146567Y-83536513D01*
X65089364Y-83749999D01*
X65089364Y-83750000D01*
X65986988Y-83750000D01*
X65954075Y-83807007D01*
X65920000Y-83934174D01*
X65920000Y-84065826D01*
X65954075Y-84192993D01*
X65986988Y-84250000D01*
X65089364Y-84250000D01*
X65146567Y-84463486D01*
X65146570Y-84463492D01*
X65220994Y-84623095D01*
X65231486Y-84692173D01*
X65202966Y-84755957D01*
X65144490Y-84794196D01*
X65108612Y-84799500D01*
X50202503Y-84799500D01*
X50135464Y-84779815D01*
X50089709Y-84727011D01*
X50079765Y-84657853D01*
X50082728Y-84643407D01*
X50121153Y-84500000D01*
X50125063Y-84485408D01*
X50145659Y-84250000D01*
X50125063Y-84014592D01*
X50078626Y-83841285D01*
X50063905Y-83786344D01*
X50063904Y-83786343D01*
X50063903Y-83786337D01*
X49964035Y-83572171D01*
X49958425Y-83564158D01*
X49828494Y-83378597D01*
X49661402Y-83211506D01*
X49661395Y-83211501D01*
X49467834Y-83075967D01*
X49467830Y-83075965D01*
X49396727Y-83042809D01*
X49253663Y-82976097D01*
X49253659Y-82976096D01*
X49253655Y-82976094D01*
X49025413Y-82914938D01*
X49025403Y-82914936D01*
X48790001Y-82894341D01*
X48789999Y-82894341D01*
X48554596Y-82914936D01*
X48554586Y-82914938D01*
X48326344Y-82976094D01*
X48326335Y-82976098D01*
X48112171Y-83075964D01*
X48112169Y-83075965D01*
X47918597Y-83211505D01*
X47751505Y-83378597D01*
X47621575Y-83564158D01*
X47566998Y-83607783D01*
X47497500Y-83614977D01*
X47435145Y-83583454D01*
X47418425Y-83564158D01*
X47288494Y-83378597D01*
X47121402Y-83211506D01*
X47121395Y-83211501D01*
X46927834Y-83075967D01*
X46927830Y-83075965D01*
X46856727Y-83042809D01*
X46713663Y-82976097D01*
X46713659Y-82976096D01*
X46713655Y-82976094D01*
X46485413Y-82914938D01*
X46485403Y-82914936D01*
X46401824Y-82907624D01*
X46336755Y-82882171D01*
X46295777Y-82825580D01*
X46291899Y-82755818D01*
X46324949Y-82696417D01*
X51507952Y-77513416D01*
X51557186Y-77439729D01*
X51590084Y-77390495D01*
X51646658Y-77253913D01*
X51675500Y-77108918D01*
X51675500Y-71743418D01*
X51695185Y-71676379D01*
X51747989Y-71630624D01*
X51817147Y-71620680D01*
X51831580Y-71623640D01*
X51988308Y-71665635D01*
X52150230Y-71679801D01*
X52214998Y-71685468D01*
X52215000Y-71685468D01*
X52215002Y-71685468D01*
X52271673Y-71680509D01*
X52441692Y-71665635D01*
X52661496Y-71606739D01*
X52867734Y-71510568D01*
X53054139Y-71380047D01*
X53215047Y-71219139D01*
X53345568Y-71032734D01*
X53372618Y-70974724D01*
X53418790Y-70922285D01*
X53485983Y-70903133D01*
X53552865Y-70923348D01*
X53597382Y-70974725D01*
X53624429Y-71032728D01*
X53624432Y-71032734D01*
X53754954Y-71219141D01*
X53915858Y-71380045D01*
X53915861Y-71380047D01*
X54102266Y-71510568D01*
X54308504Y-71606739D01*
X54528308Y-71665635D01*
X54690230Y-71679801D01*
X54754998Y-71685468D01*
X54755000Y-71685468D01*
X54755002Y-71685468D01*
X54811673Y-71680509D01*
X54981692Y-71665635D01*
X55201496Y-71606739D01*
X55407734Y-71510568D01*
X55594139Y-71380047D01*
X55755047Y-71219139D01*
X55885568Y-71032734D01*
X55912618Y-70974724D01*
X55958790Y-70922285D01*
X56025983Y-70903133D01*
X56092865Y-70923348D01*
X56137382Y-70974725D01*
X56164429Y-71032728D01*
X56164432Y-71032734D01*
X56294954Y-71219141D01*
X56455858Y-71380045D01*
X56455861Y-71380047D01*
X56642266Y-71510568D01*
X56848504Y-71606739D01*
X57068308Y-71665635D01*
X57230230Y-71679801D01*
X57294998Y-71685468D01*
X57295000Y-71685468D01*
X57295002Y-71685468D01*
X57351673Y-71680509D01*
X57521692Y-71665635D01*
X57741496Y-71606739D01*
X57947734Y-71510568D01*
X58134139Y-71380047D01*
X58295047Y-71219139D01*
X58425568Y-71032734D01*
X58521739Y-70826496D01*
X58580635Y-70606692D01*
X58600468Y-70380000D01*
X58600468Y-70379998D01*
X60049532Y-70379998D01*
X60049532Y-70380001D01*
X60069364Y-70606686D01*
X60069366Y-70606697D01*
X60128258Y-70826488D01*
X60128261Y-70826497D01*
X60224431Y-71032732D01*
X60224432Y-71032734D01*
X60354954Y-71219141D01*
X60515858Y-71380045D01*
X60515861Y-71380047D01*
X60702266Y-71510568D01*
X60908504Y-71606739D01*
X61128308Y-71665635D01*
X61290230Y-71679801D01*
X61354998Y-71685468D01*
X61355000Y-71685468D01*
X61355002Y-71685468D01*
X61411673Y-71680509D01*
X61581692Y-71665635D01*
X61801496Y-71606739D01*
X62007734Y-71510568D01*
X62194139Y-71380047D01*
X62355047Y-71219139D01*
X62485568Y-71032734D01*
X62512618Y-70974724D01*
X62558790Y-70922285D01*
X62625983Y-70903133D01*
X62692865Y-70923348D01*
X62737382Y-70974725D01*
X62764429Y-71032728D01*
X62764432Y-71032734D01*
X62894954Y-71219141D01*
X63055858Y-71380045D01*
X63055861Y-71380047D01*
X63242266Y-71510568D01*
X63448504Y-71606739D01*
X63668308Y-71665635D01*
X63830230Y-71679801D01*
X63894998Y-71685468D01*
X63895000Y-71685468D01*
X63895002Y-71685468D01*
X63951673Y-71680509D01*
X64121692Y-71665635D01*
X64341496Y-71606739D01*
X64547734Y-71510568D01*
X64734139Y-71380047D01*
X64895047Y-71219139D01*
X65025568Y-71032734D01*
X65052618Y-70974724D01*
X65098790Y-70922285D01*
X65165983Y-70903133D01*
X65232865Y-70923348D01*
X65277382Y-70974725D01*
X65304429Y-71032728D01*
X65304432Y-71032734D01*
X65434954Y-71219141D01*
X65595858Y-71380045D01*
X65595861Y-71380047D01*
X65782266Y-71510568D01*
X65988504Y-71606739D01*
X66208308Y-71665635D01*
X66370230Y-71679801D01*
X66434998Y-71685468D01*
X66435000Y-71685468D01*
X66435002Y-71685468D01*
X66491673Y-71680509D01*
X66661692Y-71665635D01*
X66881496Y-71606739D01*
X67087734Y-71510568D01*
X67274139Y-71380047D01*
X67435047Y-71219139D01*
X67565568Y-71032734D01*
X67592618Y-70974724D01*
X67638790Y-70922285D01*
X67705983Y-70903133D01*
X67772865Y-70923348D01*
X67817382Y-70974725D01*
X67844429Y-71032728D01*
X67844432Y-71032734D01*
X67974954Y-71219141D01*
X68135858Y-71380045D01*
X68135861Y-71380047D01*
X68322266Y-71510568D01*
X68528504Y-71606739D01*
X68748308Y-71665635D01*
X68910230Y-71679801D01*
X68974998Y-71685468D01*
X68975000Y-71685468D01*
X68975002Y-71685468D01*
X69031673Y-71680509D01*
X69201692Y-71665635D01*
X69421496Y-71606739D01*
X69627734Y-71510568D01*
X69814139Y-71380047D01*
X69975047Y-71219139D01*
X70105568Y-71032734D01*
X70132618Y-70974724D01*
X70178790Y-70922285D01*
X70245983Y-70903133D01*
X70312865Y-70923348D01*
X70357382Y-70974725D01*
X70384429Y-71032728D01*
X70384432Y-71032734D01*
X70514954Y-71219141D01*
X70675858Y-71380045D01*
X70675861Y-71380047D01*
X70862266Y-71510568D01*
X71068504Y-71606739D01*
X71288308Y-71665635D01*
X71450230Y-71679801D01*
X71514998Y-71685468D01*
X71515000Y-71685468D01*
X71515002Y-71685468D01*
X71571673Y-71680509D01*
X71741692Y-71665635D01*
X71961496Y-71606739D01*
X72167734Y-71510568D01*
X72354139Y-71380047D01*
X72515047Y-71219139D01*
X72645568Y-71032734D01*
X72672618Y-70974724D01*
X72718790Y-70922285D01*
X72785983Y-70903133D01*
X72852865Y-70923348D01*
X72897382Y-70974725D01*
X72924429Y-71032728D01*
X72924432Y-71032734D01*
X73054954Y-71219141D01*
X73215858Y-71380045D01*
X73215861Y-71380047D01*
X73402266Y-71510568D01*
X73608504Y-71606739D01*
X73828308Y-71665635D01*
X73990230Y-71679801D01*
X74054998Y-71685468D01*
X74055000Y-71685468D01*
X74055002Y-71685468D01*
X74111673Y-71680509D01*
X74281692Y-71665635D01*
X74501496Y-71606739D01*
X74707734Y-71510568D01*
X74894139Y-71380047D01*
X75055047Y-71219139D01*
X75185568Y-71032734D01*
X75212618Y-70974724D01*
X75258790Y-70922285D01*
X75325983Y-70903133D01*
X75392865Y-70923348D01*
X75437382Y-70974725D01*
X75464429Y-71032728D01*
X75464432Y-71032734D01*
X75594954Y-71219141D01*
X75755858Y-71380045D01*
X75755861Y-71380047D01*
X75942266Y-71510568D01*
X76148504Y-71606739D01*
X76368308Y-71665635D01*
X76530230Y-71679801D01*
X76594998Y-71685468D01*
X76595000Y-71685468D01*
X76595002Y-71685468D01*
X76651673Y-71680509D01*
X76821692Y-71665635D01*
X77041496Y-71606739D01*
X77247734Y-71510568D01*
X77434139Y-71380047D01*
X77595047Y-71219139D01*
X77725568Y-71032734D01*
X77752618Y-70974724D01*
X77798790Y-70922285D01*
X77865983Y-70903133D01*
X77932865Y-70923348D01*
X77977382Y-70974725D01*
X78004429Y-71032728D01*
X78004432Y-71032734D01*
X78134954Y-71219141D01*
X78295858Y-71380045D01*
X78295861Y-71380047D01*
X78482266Y-71510568D01*
X78688504Y-71606739D01*
X78908308Y-71665635D01*
X79070230Y-71679801D01*
X79134998Y-71685468D01*
X79135000Y-71685468D01*
X79135002Y-71685468D01*
X79191673Y-71680509D01*
X79361692Y-71665635D01*
X79581496Y-71606739D01*
X79787734Y-71510568D01*
X79974139Y-71380047D01*
X80135047Y-71219139D01*
X80265568Y-71032734D01*
X80361739Y-70826496D01*
X80420635Y-70606692D01*
X80440468Y-70380000D01*
X80420635Y-70153308D01*
X80361739Y-69933504D01*
X80265568Y-69727266D01*
X80135047Y-69540861D01*
X80135045Y-69540858D01*
X79974141Y-69379954D01*
X79787734Y-69249432D01*
X79787732Y-69249431D01*
X79581497Y-69153261D01*
X79581488Y-69153258D01*
X79361697Y-69094366D01*
X79361693Y-69094365D01*
X79361692Y-69094365D01*
X79361691Y-69094364D01*
X79361686Y-69094364D01*
X79135002Y-69074532D01*
X79134998Y-69074532D01*
X78908313Y-69094364D01*
X78908302Y-69094366D01*
X78688511Y-69153258D01*
X78688502Y-69153261D01*
X78482267Y-69249431D01*
X78482265Y-69249432D01*
X78295858Y-69379954D01*
X78134954Y-69540858D01*
X78004432Y-69727265D01*
X78004431Y-69727267D01*
X77977382Y-69785275D01*
X77931209Y-69837714D01*
X77864016Y-69856866D01*
X77797135Y-69836650D01*
X77752618Y-69785275D01*
X77751977Y-69783900D01*
X77725568Y-69727266D01*
X77595047Y-69540861D01*
X77595045Y-69540858D01*
X77434141Y-69379954D01*
X77247734Y-69249432D01*
X77247732Y-69249431D01*
X77041497Y-69153261D01*
X77041488Y-69153258D01*
X76821697Y-69094366D01*
X76821693Y-69094365D01*
X76821692Y-69094365D01*
X76821691Y-69094364D01*
X76821686Y-69094364D01*
X76595002Y-69074532D01*
X76594998Y-69074532D01*
X76368313Y-69094364D01*
X76368302Y-69094366D01*
X76148511Y-69153258D01*
X76148502Y-69153261D01*
X75942267Y-69249431D01*
X75942265Y-69249432D01*
X75755858Y-69379954D01*
X75594954Y-69540858D01*
X75464432Y-69727265D01*
X75464431Y-69727267D01*
X75437382Y-69785275D01*
X75391209Y-69837714D01*
X75324016Y-69856866D01*
X75257135Y-69836650D01*
X75212618Y-69785275D01*
X75211977Y-69783900D01*
X75185568Y-69727266D01*
X75055047Y-69540861D01*
X75055045Y-69540858D01*
X74894141Y-69379954D01*
X74707734Y-69249432D01*
X74707732Y-69249431D01*
X74501497Y-69153261D01*
X74501488Y-69153258D01*
X74281697Y-69094366D01*
X74281693Y-69094365D01*
X74281692Y-69094365D01*
X74281691Y-69094364D01*
X74281686Y-69094364D01*
X74055002Y-69074532D01*
X74054998Y-69074532D01*
X73828313Y-69094364D01*
X73828302Y-69094366D01*
X73608511Y-69153258D01*
X73608502Y-69153261D01*
X73402267Y-69249431D01*
X73402265Y-69249432D01*
X73215858Y-69379954D01*
X73054954Y-69540858D01*
X72924432Y-69727265D01*
X72924431Y-69727267D01*
X72897382Y-69785275D01*
X72851209Y-69837714D01*
X72784016Y-69856866D01*
X72717135Y-69836650D01*
X72672618Y-69785275D01*
X72671977Y-69783900D01*
X72645568Y-69727266D01*
X72515047Y-69540861D01*
X72515045Y-69540858D01*
X72354141Y-69379954D01*
X72167734Y-69249432D01*
X72167732Y-69249431D01*
X71961497Y-69153261D01*
X71961488Y-69153258D01*
X71741697Y-69094366D01*
X71741693Y-69094365D01*
X71741692Y-69094365D01*
X71741691Y-69094364D01*
X71741686Y-69094364D01*
X71515002Y-69074532D01*
X71514998Y-69074532D01*
X71288313Y-69094364D01*
X71288302Y-69094366D01*
X71068511Y-69153258D01*
X71068502Y-69153261D01*
X70862267Y-69249431D01*
X70862265Y-69249432D01*
X70675858Y-69379954D01*
X70514954Y-69540858D01*
X70384432Y-69727265D01*
X70384431Y-69727267D01*
X70357382Y-69785275D01*
X70311209Y-69837714D01*
X70244016Y-69856866D01*
X70177135Y-69836650D01*
X70132618Y-69785275D01*
X70131977Y-69783900D01*
X70105568Y-69727266D01*
X69975047Y-69540861D01*
X69975045Y-69540858D01*
X69814141Y-69379954D01*
X69627734Y-69249432D01*
X69627732Y-69249431D01*
X69421497Y-69153261D01*
X69421488Y-69153258D01*
X69201697Y-69094366D01*
X69201693Y-69094365D01*
X69201692Y-69094365D01*
X69201691Y-69094364D01*
X69201686Y-69094364D01*
X68975002Y-69074532D01*
X68974998Y-69074532D01*
X68748313Y-69094364D01*
X68748302Y-69094366D01*
X68528511Y-69153258D01*
X68528502Y-69153261D01*
X68322267Y-69249431D01*
X68322265Y-69249432D01*
X68135858Y-69379954D01*
X67974954Y-69540858D01*
X67844432Y-69727265D01*
X67844431Y-69727267D01*
X67817382Y-69785275D01*
X67771209Y-69837714D01*
X67704016Y-69856866D01*
X67637135Y-69836650D01*
X67592618Y-69785275D01*
X67591977Y-69783900D01*
X67565568Y-69727266D01*
X67435047Y-69540861D01*
X67435045Y-69540858D01*
X67274141Y-69379954D01*
X67087734Y-69249432D01*
X67087732Y-69249431D01*
X66881497Y-69153261D01*
X66881488Y-69153258D01*
X66661697Y-69094366D01*
X66661693Y-69094365D01*
X66661692Y-69094365D01*
X66661691Y-69094364D01*
X66661686Y-69094364D01*
X66435002Y-69074532D01*
X66434998Y-69074532D01*
X66208313Y-69094364D01*
X66208302Y-69094366D01*
X65988511Y-69153258D01*
X65988502Y-69153261D01*
X65782267Y-69249431D01*
X65782265Y-69249432D01*
X65595858Y-69379954D01*
X65434954Y-69540858D01*
X65304432Y-69727265D01*
X65304431Y-69727267D01*
X65277382Y-69785275D01*
X65231209Y-69837714D01*
X65164016Y-69856866D01*
X65097135Y-69836650D01*
X65052618Y-69785275D01*
X65051977Y-69783900D01*
X65025568Y-69727266D01*
X64895047Y-69540861D01*
X64895045Y-69540858D01*
X64734141Y-69379954D01*
X64547734Y-69249432D01*
X64547732Y-69249431D01*
X64341497Y-69153261D01*
X64341488Y-69153258D01*
X64121697Y-69094366D01*
X64121693Y-69094365D01*
X64121692Y-69094365D01*
X64121691Y-69094364D01*
X64121686Y-69094364D01*
X63895002Y-69074532D01*
X63894998Y-69074532D01*
X63668313Y-69094364D01*
X63668302Y-69094366D01*
X63448511Y-69153258D01*
X63448502Y-69153261D01*
X63242267Y-69249431D01*
X63242265Y-69249432D01*
X63055858Y-69379954D01*
X62894954Y-69540858D01*
X62764432Y-69727265D01*
X62764431Y-69727267D01*
X62737382Y-69785275D01*
X62691209Y-69837714D01*
X62624016Y-69856866D01*
X62557135Y-69836650D01*
X62512618Y-69785275D01*
X62511977Y-69783900D01*
X62485568Y-69727266D01*
X62355047Y-69540861D01*
X62355045Y-69540858D01*
X62194141Y-69379954D01*
X62007734Y-69249432D01*
X62007732Y-69249431D01*
X61801497Y-69153261D01*
X61801488Y-69153258D01*
X61581697Y-69094366D01*
X61581693Y-69094365D01*
X61581692Y-69094365D01*
X61581691Y-69094364D01*
X61581686Y-69094364D01*
X61355002Y-69074532D01*
X61354998Y-69074532D01*
X61128313Y-69094364D01*
X61128302Y-69094366D01*
X60908511Y-69153258D01*
X60908502Y-69153261D01*
X60702267Y-69249431D01*
X60702265Y-69249432D01*
X60515858Y-69379954D01*
X60354954Y-69540858D01*
X60224432Y-69727265D01*
X60224431Y-69727267D01*
X60128261Y-69933502D01*
X60128258Y-69933511D01*
X60069366Y-70153302D01*
X60069364Y-70153313D01*
X60049532Y-70379998D01*
X58600468Y-70379998D01*
X58580635Y-70153308D01*
X58521739Y-69933504D01*
X58425568Y-69727266D01*
X58295047Y-69540861D01*
X58295045Y-69540858D01*
X58134141Y-69379954D01*
X57947734Y-69249432D01*
X57947732Y-69249431D01*
X57741497Y-69153261D01*
X57741488Y-69153258D01*
X57521697Y-69094366D01*
X57521693Y-69094365D01*
X57521692Y-69094365D01*
X57521691Y-69094364D01*
X57521686Y-69094364D01*
X57295002Y-69074532D01*
X57294998Y-69074532D01*
X57068313Y-69094364D01*
X57068302Y-69094366D01*
X56848511Y-69153258D01*
X56848502Y-69153261D01*
X56642267Y-69249431D01*
X56642265Y-69249432D01*
X56455858Y-69379954D01*
X56294954Y-69540858D01*
X56164432Y-69727265D01*
X56164431Y-69727267D01*
X56137382Y-69785275D01*
X56091209Y-69837714D01*
X56024016Y-69856866D01*
X55957135Y-69836650D01*
X55912618Y-69785275D01*
X55911977Y-69783900D01*
X55885568Y-69727266D01*
X55755047Y-69540861D01*
X55755045Y-69540858D01*
X55594141Y-69379954D01*
X55407734Y-69249432D01*
X55407732Y-69249431D01*
X55201497Y-69153261D01*
X55201488Y-69153258D01*
X54981697Y-69094366D01*
X54981693Y-69094365D01*
X54981692Y-69094365D01*
X54981691Y-69094364D01*
X54981686Y-69094364D01*
X54755002Y-69074532D01*
X54754998Y-69074532D01*
X54528313Y-69094364D01*
X54528302Y-69094366D01*
X54308511Y-69153258D01*
X54308502Y-69153261D01*
X54102267Y-69249431D01*
X54102265Y-69249432D01*
X53915858Y-69379954D01*
X53754954Y-69540858D01*
X53624432Y-69727265D01*
X53624431Y-69727267D01*
X53597382Y-69785275D01*
X53551209Y-69837714D01*
X53484016Y-69856866D01*
X53417135Y-69836650D01*
X53372618Y-69785275D01*
X53371977Y-69783900D01*
X53345568Y-69727266D01*
X53215047Y-69540861D01*
X53215045Y-69540858D01*
X53054141Y-69379954D01*
X52867734Y-69249432D01*
X52867732Y-69249431D01*
X52661497Y-69153261D01*
X52661488Y-69153258D01*
X52441697Y-69094366D01*
X52441693Y-69094365D01*
X52441692Y-69094365D01*
X52441691Y-69094364D01*
X52441686Y-69094364D01*
X52215002Y-69074532D01*
X52214998Y-69074532D01*
X51988313Y-69094364D01*
X51988302Y-69094366D01*
X51831593Y-69136356D01*
X51761743Y-69134693D01*
X51703881Y-69095530D01*
X51676377Y-69031302D01*
X51675500Y-69016581D01*
X51675500Y-55018711D01*
X79824500Y-55018711D01*
X79824500Y-55261288D01*
X79856161Y-55501785D01*
X79918947Y-55736104D01*
X80011773Y-55960205D01*
X80011776Y-55960212D01*
X80133064Y-56170289D01*
X80133066Y-56170292D01*
X80133067Y-56170293D01*
X80280733Y-56362736D01*
X80280739Y-56362743D01*
X80452256Y-56534260D01*
X80452262Y-56534265D01*
X80644711Y-56681936D01*
X80854788Y-56803224D01*
X81078900Y-56896054D01*
X81313211Y-56958838D01*
X81493586Y-56982584D01*
X81553711Y-56990500D01*
X81553712Y-56990500D01*
X81796289Y-56990500D01*
X81844388Y-56984167D01*
X82036789Y-56958838D01*
X82271100Y-56896054D01*
X82495212Y-56803224D01*
X82705289Y-56681936D01*
X82897738Y-56534265D01*
X83069265Y-56362738D01*
X83216936Y-56170289D01*
X83338224Y-55960212D01*
X83431054Y-55736100D01*
X83493838Y-55501789D01*
X83525500Y-55261288D01*
X83525500Y-55018712D01*
X83493838Y-54778211D01*
X83431054Y-54543900D01*
X83338224Y-54319788D01*
X83216936Y-54109711D01*
X83069265Y-53917262D01*
X83069260Y-53917256D01*
X82897743Y-53745739D01*
X82897736Y-53745733D01*
X82705293Y-53598067D01*
X82705292Y-53598066D01*
X82705289Y-53598064D01*
X82495212Y-53476776D01*
X82495205Y-53476773D01*
X82271104Y-53383947D01*
X82036785Y-53321161D01*
X81796289Y-53289500D01*
X81796288Y-53289500D01*
X81553712Y-53289500D01*
X81553711Y-53289500D01*
X81313214Y-53321161D01*
X81078895Y-53383947D01*
X80854794Y-53476773D01*
X80854785Y-53476777D01*
X80644706Y-53598067D01*
X80452263Y-53745733D01*
X80452256Y-53745739D01*
X80280739Y-53917256D01*
X80280733Y-53917263D01*
X80133067Y-54109706D01*
X80011777Y-54319785D01*
X80011773Y-54319794D01*
X79918947Y-54543895D01*
X79856161Y-54778214D01*
X79824500Y-55018711D01*
X51675500Y-55018711D01*
X51675500Y-37992229D01*
X51695185Y-37925190D01*
X51711819Y-37904548D01*
X52464787Y-37151580D01*
X62537655Y-27078711D01*
X79824500Y-27078711D01*
X79824500Y-27321288D01*
X79856161Y-27561785D01*
X79918947Y-27796104D01*
X80011773Y-28020205D01*
X80011776Y-28020212D01*
X80133064Y-28230289D01*
X80133066Y-28230292D01*
X80133067Y-28230293D01*
X80280733Y-28422736D01*
X80280739Y-28422743D01*
X80452256Y-28594260D01*
X80452262Y-28594265D01*
X80644711Y-28741936D01*
X80854788Y-28863224D01*
X81078900Y-28956054D01*
X81313211Y-29018838D01*
X81493586Y-29042584D01*
X81553711Y-29050500D01*
X81553712Y-29050500D01*
X81796289Y-29050500D01*
X81844388Y-29044167D01*
X82036789Y-29018838D01*
X82271100Y-28956054D01*
X82495212Y-28863224D01*
X82705289Y-28741936D01*
X82897738Y-28594265D01*
X83069265Y-28422738D01*
X83216936Y-28230289D01*
X83338224Y-28020212D01*
X83431054Y-27796100D01*
X83493838Y-27561789D01*
X83525500Y-27321288D01*
X83525500Y-27078712D01*
X83493838Y-26838211D01*
X83431054Y-26603900D01*
X83338224Y-26379788D01*
X83216936Y-26169711D01*
X83069265Y-25977262D01*
X83069260Y-25977256D01*
X82897743Y-25805739D01*
X82897736Y-25805733D01*
X82705293Y-25658067D01*
X82705292Y-25658066D01*
X82705289Y-25658064D01*
X82495212Y-25536776D01*
X82495205Y-25536773D01*
X82271104Y-25443947D01*
X82036785Y-25381161D01*
X81796289Y-25349500D01*
X81796288Y-25349500D01*
X81553712Y-25349500D01*
X81553711Y-25349500D01*
X81313214Y-25381161D01*
X81078895Y-25443947D01*
X80854794Y-25536773D01*
X80854785Y-25536777D01*
X80644706Y-25658067D01*
X80452263Y-25805733D01*
X80452256Y-25805739D01*
X80280739Y-25977256D01*
X80280733Y-25977263D01*
X80133067Y-26169706D01*
X80011777Y-26379785D01*
X80011773Y-26379794D01*
X79918947Y-26603895D01*
X79856161Y-26838214D01*
X79824500Y-27078711D01*
X62537655Y-27078711D01*
X66169652Y-23446714D01*
X66230973Y-23413231D01*
X66268135Y-23410869D01*
X66411366Y-23423400D01*
X66434999Y-23425468D01*
X66435000Y-23425468D01*
X66435002Y-23425468D01*
X66491807Y-23420498D01*
X66661692Y-23405635D01*
X66881496Y-23346739D01*
X67087734Y-23250568D01*
X67274139Y-23120047D01*
X67435047Y-22959139D01*
X67565568Y-22772734D01*
X67592618Y-22714724D01*
X67638790Y-22662285D01*
X67705983Y-22643133D01*
X67772865Y-22663348D01*
X67817382Y-22714725D01*
X67844429Y-22772728D01*
X67844432Y-22772734D01*
X67974954Y-22959141D01*
X68135858Y-23120045D01*
X68135861Y-23120047D01*
X68322266Y-23250568D01*
X68528504Y-23346739D01*
X68748308Y-23405635D01*
X68910230Y-23419801D01*
X68974998Y-23425468D01*
X68975000Y-23425468D01*
X68975002Y-23425468D01*
X69031807Y-23420498D01*
X69201692Y-23405635D01*
X69421496Y-23346739D01*
X69627734Y-23250568D01*
X69814139Y-23120047D01*
X69975047Y-22959139D01*
X70105568Y-22772734D01*
X70132618Y-22714724D01*
X70178790Y-22662285D01*
X70245983Y-22643133D01*
X70312865Y-22663348D01*
X70357382Y-22714725D01*
X70384429Y-22772728D01*
X70384432Y-22772734D01*
X70514954Y-22959141D01*
X70675858Y-23120045D01*
X70675861Y-23120047D01*
X70862266Y-23250568D01*
X71068504Y-23346739D01*
X71288308Y-23405635D01*
X71450230Y-23419801D01*
X71514998Y-23425468D01*
X71515000Y-23425468D01*
X71515002Y-23425468D01*
X71571807Y-23420498D01*
X71741692Y-23405635D01*
X71961496Y-23346739D01*
X72167734Y-23250568D01*
X72354139Y-23120047D01*
X72515047Y-22959139D01*
X72645568Y-22772734D01*
X72672618Y-22714724D01*
X72718790Y-22662285D01*
X72785983Y-22643133D01*
X72852865Y-22663348D01*
X72897382Y-22714725D01*
X72924429Y-22772728D01*
X72924432Y-22772734D01*
X73054954Y-22959141D01*
X73215858Y-23120045D01*
X73215861Y-23120047D01*
X73402266Y-23250568D01*
X73608504Y-23346739D01*
X73828308Y-23405635D01*
X73990230Y-23419801D01*
X74054998Y-23425468D01*
X74055000Y-23425468D01*
X74055002Y-23425468D01*
X74111807Y-23420498D01*
X74281692Y-23405635D01*
X74501496Y-23346739D01*
X74707734Y-23250568D01*
X74894139Y-23120047D01*
X75055047Y-22959139D01*
X75185568Y-22772734D01*
X75212618Y-22714724D01*
X75258790Y-22662285D01*
X75325983Y-22643133D01*
X75392865Y-22663348D01*
X75437382Y-22714725D01*
X75464429Y-22772728D01*
X75464432Y-22772734D01*
X75594954Y-22959141D01*
X75755858Y-23120045D01*
X75755861Y-23120047D01*
X75942266Y-23250568D01*
X76148504Y-23346739D01*
X76368308Y-23405635D01*
X76530230Y-23419801D01*
X76594998Y-23425468D01*
X76595000Y-23425468D01*
X76595002Y-23425468D01*
X76651807Y-23420498D01*
X76821692Y-23405635D01*
X77041496Y-23346739D01*
X77247734Y-23250568D01*
X77434139Y-23120047D01*
X77595047Y-22959139D01*
X77725568Y-22772734D01*
X77752618Y-22714724D01*
X77798790Y-22662285D01*
X77865983Y-22643133D01*
X77932865Y-22663348D01*
X77977382Y-22714725D01*
X78004429Y-22772728D01*
X78004432Y-22772734D01*
X78134954Y-22959141D01*
X78295858Y-23120045D01*
X78295861Y-23120047D01*
X78482266Y-23250568D01*
X78688504Y-23346739D01*
X78908308Y-23405635D01*
X79070230Y-23419801D01*
X79134998Y-23425468D01*
X79135000Y-23425468D01*
X79135002Y-23425468D01*
X79191807Y-23420498D01*
X79361692Y-23405635D01*
X79581496Y-23346739D01*
X79787734Y-23250568D01*
X79974139Y-23120047D01*
X80135047Y-22959139D01*
X80265568Y-22772734D01*
X80361739Y-22566496D01*
X80420635Y-22346692D01*
X80440468Y-22120000D01*
X80420635Y-21893308D01*
X80361739Y-21673504D01*
X80265568Y-21467266D01*
X80135047Y-21280861D01*
X80135045Y-21280858D01*
X79974141Y-21119954D01*
X79787734Y-20989432D01*
X79787732Y-20989431D01*
X79581497Y-20893261D01*
X79581488Y-20893258D01*
X79361697Y-20834366D01*
X79361693Y-20834365D01*
X79361692Y-20834365D01*
X79361691Y-20834364D01*
X79361686Y-20834364D01*
X79135002Y-20814532D01*
X79134998Y-20814532D01*
X78908313Y-20834364D01*
X78908302Y-20834366D01*
X78688511Y-20893258D01*
X78688502Y-20893261D01*
X78482267Y-20989431D01*
X78482265Y-20989432D01*
X78295858Y-21119954D01*
X78134954Y-21280858D01*
X78004432Y-21467265D01*
X78004431Y-21467267D01*
X77977382Y-21525275D01*
X77931209Y-21577714D01*
X77864016Y-21596866D01*
X77797135Y-21576650D01*
X77752618Y-21525275D01*
X77751977Y-21523900D01*
X77725568Y-21467266D01*
X77595047Y-21280861D01*
X77595045Y-21280858D01*
X77434141Y-21119954D01*
X77247734Y-20989432D01*
X77247732Y-20989431D01*
X77041497Y-20893261D01*
X77041488Y-20893258D01*
X76821697Y-20834366D01*
X76821693Y-20834365D01*
X76821692Y-20834365D01*
X76821691Y-20834364D01*
X76821686Y-20834364D01*
X76595002Y-20814532D01*
X76594998Y-20814532D01*
X76368313Y-20834364D01*
X76368302Y-20834366D01*
X76148511Y-20893258D01*
X76148502Y-20893261D01*
X75942267Y-20989431D01*
X75942265Y-20989432D01*
X75755858Y-21119954D01*
X75594954Y-21280858D01*
X75464432Y-21467265D01*
X75464431Y-21467267D01*
X75437382Y-21525275D01*
X75391209Y-21577714D01*
X75324016Y-21596866D01*
X75257135Y-21576650D01*
X75212618Y-21525275D01*
X75211977Y-21523900D01*
X75185568Y-21467266D01*
X75055047Y-21280861D01*
X75055045Y-21280858D01*
X74894141Y-21119954D01*
X74707734Y-20989432D01*
X74707732Y-20989431D01*
X74501497Y-20893261D01*
X74501488Y-20893258D01*
X74281697Y-20834366D01*
X74281693Y-20834365D01*
X74281692Y-20834365D01*
X74281691Y-20834364D01*
X74281686Y-20834364D01*
X74055002Y-20814532D01*
X74054998Y-20814532D01*
X73828313Y-20834364D01*
X73828302Y-20834366D01*
X73608511Y-20893258D01*
X73608502Y-20893261D01*
X73402267Y-20989431D01*
X73402265Y-20989432D01*
X73215858Y-21119954D01*
X73054954Y-21280858D01*
X72924432Y-21467265D01*
X72924431Y-21467267D01*
X72897382Y-21525275D01*
X72851209Y-21577714D01*
X72784016Y-21596866D01*
X72717135Y-21576650D01*
X72672618Y-21525275D01*
X72671977Y-21523900D01*
X72645568Y-21467266D01*
X72515047Y-21280861D01*
X72515045Y-21280858D01*
X72354141Y-21119954D01*
X72167734Y-20989432D01*
X72167732Y-20989431D01*
X71961497Y-20893261D01*
X71961488Y-20893258D01*
X71741697Y-20834366D01*
X71741693Y-20834365D01*
X71741692Y-20834365D01*
X71741691Y-20834364D01*
X71741686Y-20834364D01*
X71515002Y-20814532D01*
X71514998Y-20814532D01*
X71288313Y-20834364D01*
X71288302Y-20834366D01*
X71068511Y-20893258D01*
X71068502Y-20893261D01*
X70862267Y-20989431D01*
X70862265Y-20989432D01*
X70675858Y-21119954D01*
X70514954Y-21280858D01*
X70384432Y-21467265D01*
X70384431Y-21467267D01*
X70357382Y-21525275D01*
X70311209Y-21577714D01*
X70244016Y-21596866D01*
X70177135Y-21576650D01*
X70132618Y-21525275D01*
X70131977Y-21523900D01*
X70105568Y-21467266D01*
X69975047Y-21280861D01*
X69975045Y-21280858D01*
X69814141Y-21119954D01*
X69627734Y-20989432D01*
X69627732Y-20989431D01*
X69421497Y-20893261D01*
X69421488Y-20893258D01*
X69201697Y-20834366D01*
X69201693Y-20834365D01*
X69201692Y-20834365D01*
X69201691Y-20834364D01*
X69201686Y-20834364D01*
X68975002Y-20814532D01*
X68974998Y-20814532D01*
X68748313Y-20834364D01*
X68748302Y-20834366D01*
X68528511Y-20893258D01*
X68528502Y-20893261D01*
X68322267Y-20989431D01*
X68322265Y-20989432D01*
X68135858Y-21119954D01*
X67974954Y-21280858D01*
X67844432Y-21467265D01*
X67844431Y-21467267D01*
X67817382Y-21525275D01*
X67771209Y-21577714D01*
X67704016Y-21596866D01*
X67637135Y-21576650D01*
X67592618Y-21525275D01*
X67591977Y-21523900D01*
X67565568Y-21467266D01*
X67435047Y-21280861D01*
X67435045Y-21280858D01*
X67274141Y-21119954D01*
X67087734Y-20989432D01*
X67087732Y-20989431D01*
X66881497Y-20893261D01*
X66881488Y-20893258D01*
X66661697Y-20834366D01*
X66661693Y-20834365D01*
X66661692Y-20834365D01*
X66661691Y-20834364D01*
X66661686Y-20834364D01*
X66435002Y-20814532D01*
X66434998Y-20814532D01*
X66208313Y-20834364D01*
X66208302Y-20834366D01*
X65988511Y-20893258D01*
X65988502Y-20893261D01*
X65782267Y-20989431D01*
X65782265Y-20989432D01*
X65595858Y-21119954D01*
X65434954Y-21280858D01*
X65304432Y-21467265D01*
X65304431Y-21467267D01*
X65208261Y-21673502D01*
X65208258Y-21673511D01*
X65149366Y-21893302D01*
X65149364Y-21893313D01*
X65129532Y-22119998D01*
X65129532Y-22120003D01*
X65144129Y-22286861D01*
X65130362Y-22355360D01*
X65108282Y-22385348D01*
X50342050Y-37151580D01*
X50342044Y-37151588D01*
X50292812Y-37225268D01*
X50292813Y-37225269D01*
X50259921Y-37274496D01*
X50259914Y-37274508D01*
X50203342Y-37411086D01*
X50203340Y-37411092D01*
X50174500Y-37556079D01*
X50174500Y-69005863D01*
X50154815Y-69072902D01*
X50102011Y-69118657D01*
X50032853Y-69128601D01*
X50018407Y-69125638D01*
X49901697Y-69094366D01*
X49901693Y-69094365D01*
X49901692Y-69094365D01*
X49901691Y-69094364D01*
X49901686Y-69094364D01*
X49675002Y-69074532D01*
X49674998Y-69074532D01*
X49448313Y-69094364D01*
X49448302Y-69094366D01*
X49228511Y-69153258D01*
X49228502Y-69153261D01*
X49022267Y-69249431D01*
X49022265Y-69249432D01*
X48835858Y-69379954D01*
X48674954Y-69540858D01*
X48544432Y-69727265D01*
X48544431Y-69727267D01*
X48517382Y-69785275D01*
X48471209Y-69837714D01*
X48404016Y-69856866D01*
X48337135Y-69836650D01*
X48292618Y-69785275D01*
X48291977Y-69783900D01*
X48265568Y-69727266D01*
X48135047Y-69540861D01*
X48135045Y-69540858D01*
X47974141Y-69379954D01*
X47787734Y-69249432D01*
X47787732Y-69249431D01*
X47581497Y-69153261D01*
X47581488Y-69153258D01*
X47361697Y-69094366D01*
X47361693Y-69094365D01*
X47361692Y-69094365D01*
X47361691Y-69094364D01*
X47361686Y-69094364D01*
X47135002Y-69074532D01*
X47134998Y-69074532D01*
X46908313Y-69094364D01*
X46908302Y-69094366D01*
X46688511Y-69153258D01*
X46688502Y-69153261D01*
X46482267Y-69249431D01*
X46482265Y-69249432D01*
X46295858Y-69379954D01*
X46134954Y-69540858D01*
X46004432Y-69727265D01*
X46004431Y-69727267D01*
X45977382Y-69785275D01*
X45931209Y-69837714D01*
X45864016Y-69856866D01*
X45797135Y-69836650D01*
X45752618Y-69785275D01*
X45751977Y-69783900D01*
X45725568Y-69727266D01*
X45595047Y-69540861D01*
X45595045Y-69540858D01*
X45434141Y-69379954D01*
X45247734Y-69249432D01*
X45247732Y-69249431D01*
X45041497Y-69153261D01*
X45041488Y-69153258D01*
X44821697Y-69094366D01*
X44821693Y-69094365D01*
X44821692Y-69094365D01*
X44821691Y-69094364D01*
X44821686Y-69094364D01*
X44595002Y-69074532D01*
X44594998Y-69074532D01*
X44368313Y-69094364D01*
X44368302Y-69094366D01*
X44148511Y-69153258D01*
X44148502Y-69153261D01*
X43942267Y-69249431D01*
X43942265Y-69249432D01*
X43755858Y-69379954D01*
X43594954Y-69540858D01*
X43464433Y-69727264D01*
X43464432Y-69727266D01*
X43438026Y-69783895D01*
X43437106Y-69785867D01*
X43390933Y-69838306D01*
X43323739Y-69857457D01*
X43256858Y-69837241D01*
X43212342Y-69785865D01*
X43185135Y-69727520D01*
X43185134Y-69727518D01*
X43054657Y-69541179D01*
X42893820Y-69380342D01*
X42707482Y-69249865D01*
X42501328Y-69153734D01*
X42305000Y-69101127D01*
X42305000Y-69946988D01*
X42247993Y-69914075D01*
X42120826Y-69880000D01*
X41989174Y-69880000D01*
X41862007Y-69914075D01*
X41805000Y-69946988D01*
X41805000Y-69101127D01*
X41608671Y-69153734D01*
X41402517Y-69249865D01*
X41216179Y-69380342D01*
X41055342Y-69541179D01*
X40924867Y-69727515D01*
X40897657Y-69785867D01*
X40851484Y-69838306D01*
X40784290Y-69857457D01*
X40717409Y-69837241D01*
X40672893Y-69785865D01*
X40671974Y-69783895D01*
X40645568Y-69727266D01*
X40515047Y-69540861D01*
X40515045Y-69540858D01*
X40354141Y-69379954D01*
X40167734Y-69249432D01*
X40167732Y-69249431D01*
X39961497Y-69153261D01*
X39961488Y-69153258D01*
X39741697Y-69094366D01*
X39741693Y-69094365D01*
X39741692Y-69094365D01*
X39741691Y-69094364D01*
X39741686Y-69094364D01*
X39515002Y-69074532D01*
X39514998Y-69074532D01*
X39288313Y-69094364D01*
X39288302Y-69094366D01*
X39068511Y-69153258D01*
X39068502Y-69153261D01*
X38862267Y-69249431D01*
X38862265Y-69249432D01*
X38675858Y-69379954D01*
X38514954Y-69540858D01*
X38384432Y-69727265D01*
X38384431Y-69727267D01*
X38357382Y-69785275D01*
X38311209Y-69837714D01*
X38244016Y-69856866D01*
X38177135Y-69836650D01*
X38132618Y-69785275D01*
X38131977Y-69783900D01*
X38105568Y-69727266D01*
X37975047Y-69540861D01*
X37975045Y-69540858D01*
X37814141Y-69379954D01*
X37627734Y-69249432D01*
X37627732Y-69249431D01*
X37421497Y-69153261D01*
X37421488Y-69153258D01*
X37201697Y-69094366D01*
X37201693Y-69094365D01*
X37201692Y-69094365D01*
X37201691Y-69094364D01*
X37201686Y-69094364D01*
X36975002Y-69074532D01*
X36974998Y-69074532D01*
X36748313Y-69094364D01*
X36748302Y-69094366D01*
X36528511Y-69153258D01*
X36528502Y-69153261D01*
X36322267Y-69249431D01*
X36322265Y-69249432D01*
X36135858Y-69379954D01*
X35974954Y-69540858D01*
X35844432Y-69727265D01*
X35844431Y-69727267D01*
X35817382Y-69785275D01*
X35771209Y-69837714D01*
X35704016Y-69856866D01*
X35637135Y-69836650D01*
X35592618Y-69785275D01*
X35591977Y-69783900D01*
X35565568Y-69727266D01*
X35435047Y-69540861D01*
X35435045Y-69540858D01*
X35274141Y-69379954D01*
X35087734Y-69249432D01*
X35087732Y-69249431D01*
X34881497Y-69153261D01*
X34881488Y-69153258D01*
X34661697Y-69094366D01*
X34661693Y-69094365D01*
X34661692Y-69094365D01*
X34661691Y-69094364D01*
X34661686Y-69094364D01*
X34435002Y-69074532D01*
X34434998Y-69074532D01*
X34208313Y-69094364D01*
X34208302Y-69094366D01*
X33988511Y-69153258D01*
X33988502Y-69153261D01*
X33782267Y-69249431D01*
X33782265Y-69249432D01*
X33595858Y-69379954D01*
X33434954Y-69540858D01*
X33304432Y-69727265D01*
X33304431Y-69727267D01*
X33208261Y-69933502D01*
X33208258Y-69933511D01*
X33149366Y-70153302D01*
X33149364Y-70153313D01*
X33129532Y-70379998D01*
X32725500Y-70379998D01*
X32725500Y-70258712D01*
X32693838Y-70018211D01*
X32631054Y-69783900D01*
X32538224Y-69559788D01*
X32416936Y-69349711D01*
X32299472Y-69196629D01*
X32269266Y-69157263D01*
X32269260Y-69157256D01*
X32097743Y-68985739D01*
X32097736Y-68985733D01*
X31905293Y-68838067D01*
X31905292Y-68838066D01*
X31905289Y-68838064D01*
X31695212Y-68716776D01*
X31695205Y-68716773D01*
X31471104Y-68623947D01*
X31236785Y-68561161D01*
X30996289Y-68529500D01*
X30996288Y-68529500D01*
X30753712Y-68529500D01*
X30753711Y-68529500D01*
X30513214Y-68561161D01*
X30278895Y-68623947D01*
X30054794Y-68716773D01*
X30054785Y-68716777D01*
X29844706Y-68838067D01*
X29652263Y-68985733D01*
X29652256Y-68985739D01*
X29492181Y-69145815D01*
X29430858Y-69179300D01*
X29361166Y-69174316D01*
X29305233Y-69132444D01*
X29280816Y-69066980D01*
X29280500Y-69058134D01*
X29280500Y-55660781D01*
X29300185Y-55593742D01*
X29316814Y-55573105D01*
X61443034Y-23446884D01*
X61504355Y-23413401D01*
X61519895Y-23411040D01*
X61581692Y-23405635D01*
X61801496Y-23346739D01*
X62007734Y-23250568D01*
X62194139Y-23120047D01*
X62355047Y-22959139D01*
X62485568Y-22772734D01*
X62581739Y-22566496D01*
X62640635Y-22346692D01*
X62660468Y-22120000D01*
X62640635Y-21893308D01*
X62581739Y-21673504D01*
X62485568Y-21467266D01*
X62355047Y-21280861D01*
X62355045Y-21280858D01*
X62194141Y-21119954D01*
X62007734Y-20989432D01*
X62007732Y-20989431D01*
X61801497Y-20893261D01*
X61801488Y-20893258D01*
X61581697Y-20834366D01*
X61581693Y-20834365D01*
X61581692Y-20834365D01*
X61581691Y-20834364D01*
X61581686Y-20834364D01*
X61355002Y-20814532D01*
X61354998Y-20814532D01*
X61128313Y-20834364D01*
X61128302Y-20834366D01*
X60908511Y-20893258D01*
X60908502Y-20893261D01*
X60702267Y-20989431D01*
X60702265Y-20989432D01*
X60515858Y-21119954D01*
X60354954Y-21280858D01*
X60224433Y-21467264D01*
X60224432Y-21467266D01*
X60198026Y-21523895D01*
X60197106Y-21525867D01*
X60150933Y-21578306D01*
X60083739Y-21597457D01*
X60016858Y-21577241D01*
X59972342Y-21525865D01*
X59945135Y-21467520D01*
X59945134Y-21467518D01*
X59814657Y-21281179D01*
X59653820Y-21120342D01*
X59467482Y-20989865D01*
X59261328Y-20893734D01*
X59065000Y-20841127D01*
X59065000Y-21686988D01*
X59007993Y-21654075D01*
X58880826Y-21620000D01*
X58749174Y-21620000D01*
X58622007Y-21654075D01*
X58565000Y-21686988D01*
X58565000Y-20841127D01*
X58368671Y-20893734D01*
X58162517Y-20989865D01*
X57976179Y-21120342D01*
X57815342Y-21281179D01*
X57684865Y-21467517D01*
X57657382Y-21526457D01*
X57611210Y-21578896D01*
X57544016Y-21598048D01*
X57477135Y-21577832D01*
X57432618Y-21526457D01*
X57405134Y-21467517D01*
X57274657Y-21281179D01*
X57113820Y-21120342D01*
X56927482Y-20989865D01*
X56721328Y-20893734D01*
X56525000Y-20841127D01*
X56525000Y-21686988D01*
X56467993Y-21654075D01*
X56340826Y-21620000D01*
X56209174Y-21620000D01*
X56082007Y-21654075D01*
X56025000Y-21686988D01*
X56025000Y-20841127D01*
X55828671Y-20893734D01*
X55622517Y-20989865D01*
X55436179Y-21120342D01*
X55275342Y-21281179D01*
X55144867Y-21467515D01*
X55117657Y-21525867D01*
X55071484Y-21578306D01*
X55004290Y-21597457D01*
X54937409Y-21577241D01*
X54892893Y-21525865D01*
X54891974Y-21523895D01*
X54865568Y-21467266D01*
X54735047Y-21280861D01*
X54735045Y-21280858D01*
X54574141Y-21119954D01*
X54387734Y-20989432D01*
X54387732Y-20989431D01*
X54181497Y-20893261D01*
X54181488Y-20893258D01*
X53961697Y-20834366D01*
X53961693Y-20834365D01*
X53961692Y-20834365D01*
X53961691Y-20834364D01*
X53961686Y-20834364D01*
X53735002Y-20814532D01*
X53734998Y-20814532D01*
X53508313Y-20834364D01*
X53508302Y-20834366D01*
X53288511Y-20893258D01*
X53288502Y-20893261D01*
X53082267Y-20989431D01*
X53082265Y-20989432D01*
X52895858Y-21119954D01*
X52734954Y-21280858D01*
X52604432Y-21467265D01*
X52604431Y-21467267D01*
X52577382Y-21525275D01*
X52531209Y-21577714D01*
X52464016Y-21596866D01*
X52397135Y-21576650D01*
X52352618Y-21525275D01*
X52351977Y-21523900D01*
X52325568Y-21467266D01*
X52195047Y-21280861D01*
X52195045Y-21280858D01*
X52034141Y-21119954D01*
X51847734Y-20989432D01*
X51847732Y-20989431D01*
X51641497Y-20893261D01*
X51641488Y-20893258D01*
X51421697Y-20834366D01*
X51421693Y-20834365D01*
X51421692Y-20834365D01*
X51421691Y-20834364D01*
X51421686Y-20834364D01*
X51195002Y-20814532D01*
X51194998Y-20814532D01*
X50968313Y-20834364D01*
X50968302Y-20834366D01*
X50748511Y-20893258D01*
X50748502Y-20893261D01*
X50542267Y-20989431D01*
X50542265Y-20989432D01*
X50355858Y-21119954D01*
X50194954Y-21280858D01*
X50064432Y-21467265D01*
X50064431Y-21467267D01*
X50037382Y-21525275D01*
X49991209Y-21577714D01*
X49924016Y-21596866D01*
X49857135Y-21576650D01*
X49812618Y-21525275D01*
X49811977Y-21523900D01*
X49785568Y-21467266D01*
X49655047Y-21280861D01*
X49655045Y-21280858D01*
X49494141Y-21119954D01*
X49307734Y-20989432D01*
X49307732Y-20989431D01*
X49101497Y-20893261D01*
X49101488Y-20893258D01*
X48881697Y-20834366D01*
X48881693Y-20834365D01*
X48881692Y-20834365D01*
X48881691Y-20834364D01*
X48881686Y-20834364D01*
X48655002Y-20814532D01*
X48654998Y-20814532D01*
X48428313Y-20834364D01*
X48428302Y-20834366D01*
X48208511Y-20893258D01*
X48208502Y-20893261D01*
X48002267Y-20989431D01*
X48002265Y-20989432D01*
X47815858Y-21119954D01*
X47654954Y-21280858D01*
X47524432Y-21467265D01*
X47524431Y-21467267D01*
X47497382Y-21525275D01*
X47451209Y-21577714D01*
X47384016Y-21596866D01*
X47317135Y-21576650D01*
X47272618Y-21525275D01*
X47271977Y-21523900D01*
X47245568Y-21467266D01*
X47115047Y-21280861D01*
X47115045Y-21280858D01*
X46954141Y-21119954D01*
X46767734Y-20989432D01*
X46767732Y-20989431D01*
X46561497Y-20893261D01*
X46561488Y-20893258D01*
X46341697Y-20834366D01*
X46341693Y-20834365D01*
X46341692Y-20834365D01*
X46341691Y-20834364D01*
X46341686Y-20834364D01*
X46115002Y-20814532D01*
X46114998Y-20814532D01*
X45888313Y-20834364D01*
X45888302Y-20834366D01*
X45668511Y-20893258D01*
X45668502Y-20893261D01*
X45462267Y-20989431D01*
X45462265Y-20989432D01*
X45275858Y-21119954D01*
X45114954Y-21280858D01*
X45097725Y-21305464D01*
X45043147Y-21349088D01*
X44973648Y-21356280D01*
X44911294Y-21324757D01*
X44875882Y-21264526D01*
X44872861Y-21247591D01*
X44869091Y-21212516D01*
X44818797Y-21077671D01*
X44818793Y-21077664D01*
X44732547Y-20962455D01*
X44732544Y-20962452D01*
X44617335Y-20876206D01*
X44617328Y-20876202D01*
X44482482Y-20825908D01*
X44482483Y-20825908D01*
X44422883Y-20819501D01*
X44422881Y-20819500D01*
X44422873Y-20819500D01*
X44422864Y-20819500D01*
X42727129Y-20819500D01*
X42727123Y-20819501D01*
X42667516Y-20825908D01*
X42532671Y-20876202D01*
X42532664Y-20876206D01*
X42417455Y-20962452D01*
X42417452Y-20962455D01*
X42331206Y-21077664D01*
X42331202Y-21077671D01*
X42280908Y-21212517D01*
X42274501Y-21272116D01*
X42274500Y-21272135D01*
X42274500Y-22967870D01*
X42274501Y-22967876D01*
X42280908Y-23027483D01*
X42331202Y-23162328D01*
X42331206Y-23162335D01*
X42417452Y-23277544D01*
X42417455Y-23277547D01*
X42532664Y-23363793D01*
X42532671Y-23363797D01*
X42667517Y-23414091D01*
X42667516Y-23414091D01*
X42674444Y-23414835D01*
X42727127Y-23420500D01*
X44422872Y-23420499D01*
X44482483Y-23414091D01*
X44617331Y-23363796D01*
X44732546Y-23277546D01*
X44818796Y-23162331D01*
X44869091Y-23027483D01*
X44872862Y-22992401D01*
X44899599Y-22927855D01*
X44956990Y-22888006D01*
X45026816Y-22885511D01*
X45086905Y-22921163D01*
X45097726Y-22934536D01*
X45114956Y-22959143D01*
X45275858Y-23120045D01*
X45275861Y-23120047D01*
X45462266Y-23250568D01*
X45668504Y-23346739D01*
X45888308Y-23405635D01*
X46050230Y-23419801D01*
X46114998Y-23425468D01*
X46115000Y-23425468D01*
X46115002Y-23425468D01*
X46171807Y-23420498D01*
X46341692Y-23405635D01*
X46561496Y-23346739D01*
X46767734Y-23250568D01*
X46954139Y-23120047D01*
X47115047Y-22959139D01*
X47245568Y-22772734D01*
X47272618Y-22714724D01*
X47318790Y-22662285D01*
X47385983Y-22643133D01*
X47452865Y-22663348D01*
X47497382Y-22714725D01*
X47524429Y-22772728D01*
X47524432Y-22772734D01*
X47654954Y-22959141D01*
X47815858Y-23120045D01*
X47815861Y-23120047D01*
X48002266Y-23250568D01*
X48208504Y-23346739D01*
X48428308Y-23405635D01*
X48590230Y-23419801D01*
X48654998Y-23425468D01*
X48655000Y-23425468D01*
X48655002Y-23425468D01*
X48711807Y-23420498D01*
X48881692Y-23405635D01*
X49101496Y-23346739D01*
X49307734Y-23250568D01*
X49494139Y-23120047D01*
X49655047Y-22959139D01*
X49785568Y-22772734D01*
X49812618Y-22714724D01*
X49858790Y-22662285D01*
X49925983Y-22643133D01*
X49992865Y-22663348D01*
X50037382Y-22714725D01*
X50064429Y-22772728D01*
X50064432Y-22772734D01*
X50194954Y-22959141D01*
X50355858Y-23120045D01*
X50355861Y-23120047D01*
X50542266Y-23250568D01*
X50748504Y-23346739D01*
X50968308Y-23405635D01*
X51130230Y-23419801D01*
X51194998Y-23425468D01*
X51195000Y-23425468D01*
X51195002Y-23425468D01*
X51251807Y-23420498D01*
X51421692Y-23405635D01*
X51641496Y-23346739D01*
X51847734Y-23250568D01*
X52034139Y-23120047D01*
X52195047Y-22959139D01*
X52325568Y-22772734D01*
X52352618Y-22714724D01*
X52398790Y-22662285D01*
X52465983Y-22643133D01*
X52532865Y-22663348D01*
X52577382Y-22714725D01*
X52604429Y-22772728D01*
X52604432Y-22772734D01*
X52734954Y-22959141D01*
X52895858Y-23120045D01*
X52895861Y-23120047D01*
X53082266Y-23250568D01*
X53288504Y-23346739D01*
X53508308Y-23405635D01*
X53670230Y-23419801D01*
X53734998Y-23425468D01*
X53735000Y-23425468D01*
X53735002Y-23425468D01*
X53791807Y-23420498D01*
X53961692Y-23405635D01*
X54181496Y-23346739D01*
X54387734Y-23250568D01*
X54574139Y-23120047D01*
X54735047Y-22959139D01*
X54865568Y-22772734D01*
X54892895Y-22714129D01*
X54939064Y-22661695D01*
X55006257Y-22642542D01*
X55073139Y-22662757D01*
X55117657Y-22714133D01*
X55144865Y-22772482D01*
X55275342Y-22958820D01*
X55436179Y-23119657D01*
X55622517Y-23250134D01*
X55828673Y-23346265D01*
X55828682Y-23346269D01*
X56024999Y-23398872D01*
X56025000Y-23398871D01*
X56025000Y-22553012D01*
X56082007Y-22585925D01*
X56209174Y-22620000D01*
X56340826Y-22620000D01*
X56467993Y-22585925D01*
X56525000Y-22553012D01*
X56525000Y-23398872D01*
X56721317Y-23346269D01*
X56721326Y-23346265D01*
X56927482Y-23250134D01*
X57113820Y-23119657D01*
X57274657Y-22958820D01*
X57405134Y-22772481D01*
X57405135Y-22772479D01*
X57432618Y-22713543D01*
X57478790Y-22661103D01*
X57545983Y-22641951D01*
X57612864Y-22662166D01*
X57657382Y-22713543D01*
X57684864Y-22772479D01*
X57684865Y-22772481D01*
X57815342Y-22958820D01*
X57976179Y-23119657D01*
X58162517Y-23250134D01*
X58368673Y-23346265D01*
X58368682Y-23346269D01*
X58433418Y-23363615D01*
X58493079Y-23399980D01*
X58523608Y-23462827D01*
X58515313Y-23532202D01*
X58489006Y-23571071D01*
X28770579Y-53289500D01*
X27642221Y-54417858D01*
X27642218Y-54417861D01*
X27572538Y-54487540D01*
X27502859Y-54557219D01*
X27393371Y-54721079D01*
X27393364Y-54721092D01*
X27317950Y-54903160D01*
X27317947Y-54903170D01*
X27279500Y-55096456D01*
X27279500Y-78050500D01*
X27259815Y-78117539D01*
X27207011Y-78163294D01*
X27155500Y-78174500D01*
X26482129Y-78174500D01*
X26482123Y-78174501D01*
X26422516Y-78180908D01*
X26287671Y-78231202D01*
X26287664Y-78231206D01*
X26172455Y-78317452D01*
X26172452Y-78317455D01*
X26086206Y-78432664D01*
X26086202Y-78432671D01*
X26035908Y-78567517D01*
X26029501Y-78627116D01*
X26029501Y-78627123D01*
X26029500Y-78627135D01*
X26029500Y-82222870D01*
X26029501Y-82222876D01*
X26035908Y-82282483D01*
X26086202Y-82417328D01*
X26086206Y-82417335D01*
X26172452Y-82532544D01*
X26172455Y-82532547D01*
X26287664Y-82618793D01*
X26287673Y-82618798D01*
X26336506Y-82637011D01*
X26392440Y-82678881D01*
X26416858Y-82744345D01*
X26402007Y-82812618D01*
X26352603Y-82862024D01*
X26286598Y-82877018D01*
X26248625Y-82875001D01*
X26248579Y-82875000D01*
X25530000Y-82875000D01*
X25530000Y-84625000D01*
X25030000Y-84625000D01*
X25030000Y-82875000D01*
X24311423Y-82875000D01*
X24311411Y-82875001D01*
X24258808Y-82877794D01*
X24029012Y-82922237D01*
X23810024Y-83004879D01*
X23608158Y-83123339D01*
X23608151Y-83123344D01*
X23429213Y-83274211D01*
X23429211Y-83274213D01*
X23278344Y-83453151D01*
X23278339Y-83453158D01*
X23159879Y-83655024D01*
X23077237Y-83874012D01*
X23032794Y-84103808D01*
X23032794Y-84103809D01*
X23030001Y-84156382D01*
X23030000Y-84156421D01*
X13850500Y-84156421D01*
X13850500Y-79360803D01*
X20280000Y-79360803D01*
X20280000Y-80175000D01*
X21780000Y-80175000D01*
X21780000Y-80675000D01*
X20280001Y-80675000D01*
X20280001Y-81489197D01*
X20290400Y-81621332D01*
X20345377Y-81839519D01*
X20438428Y-82044374D01*
X20438431Y-82044380D01*
X20566559Y-82229323D01*
X20566569Y-82229335D01*
X20725664Y-82388430D01*
X20725676Y-82388440D01*
X20910619Y-82516568D01*
X20910625Y-82516571D01*
X21115480Y-82609622D01*
X21333667Y-82664599D01*
X21465810Y-82674999D01*
X22029999Y-82674999D01*
X22030000Y-82674998D01*
X22030000Y-81858012D01*
X22087007Y-81890925D01*
X22214174Y-81925000D01*
X22345826Y-81925000D01*
X22472993Y-81890925D01*
X22530000Y-81858012D01*
X22530000Y-82674999D01*
X23094182Y-82674999D01*
X23094197Y-82674998D01*
X23226332Y-82664599D01*
X23444519Y-82609622D01*
X23649374Y-82516571D01*
X23649380Y-82516568D01*
X23834323Y-82388440D01*
X23834335Y-82388430D01*
X23993430Y-82229335D01*
X23993440Y-82229323D01*
X24121568Y-82044380D01*
X24121571Y-82044374D01*
X24214622Y-81839519D01*
X24269599Y-81621332D01*
X24279999Y-81489196D01*
X24280000Y-81489184D01*
X24280000Y-80675000D01*
X22780000Y-80675000D01*
X22780000Y-80175000D01*
X24279999Y-80175000D01*
X24279999Y-79360817D01*
X24279998Y-79360802D01*
X24269599Y-79228667D01*
X24214622Y-79010480D01*
X24121571Y-78805625D01*
X24121568Y-78805619D01*
X23993440Y-78620676D01*
X23993430Y-78620664D01*
X23834335Y-78461569D01*
X23834323Y-78461559D01*
X23649380Y-78333431D01*
X23649374Y-78333428D01*
X23444519Y-78240377D01*
X23226332Y-78185400D01*
X23094196Y-78175000D01*
X22530000Y-78175000D01*
X22530000Y-78991988D01*
X22472993Y-78959075D01*
X22345826Y-78925000D01*
X22214174Y-78925000D01*
X22087007Y-78959075D01*
X22030000Y-78991988D01*
X22030000Y-78175000D01*
X21465817Y-78175000D01*
X21465802Y-78175001D01*
X21333667Y-78185400D01*
X21115480Y-78240377D01*
X20910625Y-78333428D01*
X20910619Y-78333431D01*
X20725676Y-78461559D01*
X20725664Y-78461569D01*
X20566569Y-78620664D01*
X20566559Y-78620676D01*
X20438431Y-78805619D01*
X20438428Y-78805625D01*
X20345377Y-79010480D01*
X20290400Y-79228667D01*
X20280000Y-79360803D01*
X13850500Y-79360803D01*
X13850500Y-21998711D01*
X27754500Y-21998711D01*
X27754500Y-22241288D01*
X27786161Y-22481785D01*
X27848947Y-22716104D01*
X27941773Y-22940205D01*
X27941777Y-22940214D01*
X27957746Y-22967873D01*
X28063064Y-23150289D01*
X28063066Y-23150292D01*
X28063067Y-23150293D01*
X28210733Y-23342736D01*
X28210739Y-23342743D01*
X28382256Y-23514260D01*
X28382262Y-23514265D01*
X28574711Y-23661936D01*
X28784788Y-23783224D01*
X29008900Y-23876054D01*
X29243211Y-23938838D01*
X29423586Y-23962584D01*
X29483711Y-23970500D01*
X29483712Y-23970500D01*
X29726289Y-23970500D01*
X29774388Y-23964167D01*
X29966789Y-23938838D01*
X30201100Y-23876054D01*
X30425212Y-23783224D01*
X30635289Y-23661936D01*
X30827738Y-23514265D01*
X30999265Y-23342738D01*
X31146936Y-23150289D01*
X31268224Y-22940212D01*
X31361054Y-22716100D01*
X31423838Y-22481789D01*
X31455500Y-22241288D01*
X31455500Y-21998712D01*
X31423838Y-21758211D01*
X31361054Y-21523900D01*
X31268224Y-21299788D01*
X31146936Y-21089711D01*
X31049289Y-20962455D01*
X30999266Y-20897263D01*
X30999260Y-20897256D01*
X30827743Y-20725739D01*
X30827736Y-20725733D01*
X30635293Y-20578067D01*
X30635292Y-20578066D01*
X30635289Y-20578064D01*
X30425212Y-20456776D01*
X30425205Y-20456773D01*
X30201104Y-20363947D01*
X29966785Y-20301161D01*
X29726289Y-20269500D01*
X29726288Y-20269500D01*
X29483712Y-20269500D01*
X29483711Y-20269500D01*
X29243214Y-20301161D01*
X29008895Y-20363947D01*
X28784794Y-20456773D01*
X28784785Y-20456777D01*
X28574706Y-20578067D01*
X28382263Y-20725733D01*
X28382256Y-20725739D01*
X28210739Y-20897256D01*
X28210733Y-20897263D01*
X28063067Y-21089706D01*
X27941777Y-21299785D01*
X27941773Y-21299794D01*
X27848947Y-21523895D01*
X27786161Y-21758214D01*
X27754500Y-21998711D01*
X13850500Y-21998711D01*
X13850500Y-18474500D01*
X13870185Y-18407461D01*
X13922989Y-18361706D01*
X13974500Y-18350500D01*
X86525500Y-18350500D01*
X86592539Y-18370185D01*
G37*
%TD.AperFunction*%
%TD*%
M02*
